<?xml version="1.0" encoding="iso-8859-1"?>
<!-- Generator: Adobe Illustrator 19.0.0, SVG Export Plug-In . SVG Version: 6.00 Build 0)  -->
<svg version="1.1" id="Layer_1" xmlns="http://www.w3.org/2000/svg" xmlns:xlink="http://www.w3.org/1999/xlink" x="0px" y="0px"
	 viewBox="0 0 512 512" style="enable-background:new 0 0 512 512;" xml:space="preserve">
<g>
	
		<rect x="155.948" y="144.427" transform="matrix(0.9766 0.215 -0.215 0.9766 40.5283 -32.6977)" style="fill:#E1B658;" width="29.237" height="51.043"/>
	
		<rect x="234.439" y="161.292" transform="matrix(0.9766 0.215 -0.215 0.9766 45.9473 -48.7875)" style="fill:#E1B658;" width="25.594" height="51.043"/>
</g>
<path style="fill:#FF5240;" d="M370.058,336.066c-21.578,22.201-46.289,33.549-72.523,33.55c-8.338,0-16.825-1.145-25.42-3.453
	c-29.783-7.994-47.791-22.218-53.524-42.276c-10.757-37.644,26.172-82.528,35.073-92.633c-0.27-1.883-0.469-3.82-0.583-5.819
	l-132.899-29.253v97.371c0,69.875,71.489,126.721,159.36,126.721c41.638,0,81.827-16.031,113.16-45.14
	c27.58-25.621,44.255-57.946,46.572-89.748c-12.451,3.723-25.371,6.047-38.608,6.96C397.111,299.67,386.986,318.651,370.058,336.066
	z M142.749,238.424c-8.474,0-15.365-6.893-15.365-15.364c0-8.474,6.893-15.366,15.365-15.366c8.472,0,15.365,6.894,15.365,15.366
	C158.115,231.531,151.222,238.424,142.749,238.424z"/>
<path style="fill:#FF5F6B;" d="M229.102,320.899c4.61,16.105,20.035,27.782,45.847,34.712c31.94,8.572,61.236-0.489,87.063-26.942
	c0.514-0.526,1.01-1.056,1.51-1.586c-10.858,6.49-22.728,11.074-35.271,13.47c-6.547,1.251-13.068,1.86-19.342,1.86
	c-14.909,0-28.422-3.442-37.573-9.906c-2.464-1.742-3.051-5.15-1.31-7.615s5.149-3.05,7.615-1.31
	c7.973,5.634,25.477,10.649,48.559,6.24c11.388-2.175,30.135-8.081,47.781-23.971c-13.913,5.283-26.835,6.861-37.209,6.861
	c-14.099,0-23.503-2.859-24.326-3.12c-2.878-0.908-4.474-3.978-3.566-6.855c0.906-2.872,3.968-4.468,6.844-3.567
	c0.387,0.121,28.85,8.538,61.14-6.475c-48.012-0.897-104.414-8.556-119.833-48.387C245.063,259.3,221.284,293.588,229.102,320.899z"
	/>
<polygon style="fill:#E1B658;" points="109.256,245.835 109.256,225.712 83.053,245.835 "/>
<rect x="195.163" y="153.047" transform="matrix(-0.9766 -0.2149 0.2149 -0.9766 376.2843 398.0474)" style="fill:#EFD18D;" width="29.236" height="51.042"/>
<path style="fill:#BDF3FF;" d="M142.749,218.621c-2.448,0-4.438,1.992-4.438,4.439c0,2.447,1.991,4.437,4.438,4.437
	c2.448,0,4.438-1.991,4.438-4.437C147.188,220.612,145.197,218.621,142.749,218.621z"/>
<rect x="120.298" y="136.192" transform="matrix(-0.9766 -0.215 0.215 -0.9766 228.308 348.2602)" style="fill:#EFD18D;" width="25.594" height="51.043"/>
<path style="fill:#E1B658;" d="M256.84,105.645c-10.245-16.028-26.12-27.107-44.698-31.195c-18.58-4.091-37.639-0.702-53.67,9.546
	c-14.485,9.259-24.907,23.121-29.803,39.414l138.671,30.519C269.737,137.085,266.097,120.13,256.84,105.645z"/>
<path style="fill:#FFFFFF;" d="M195.593,40.723c0.204,2.09-0.124,4.031-0.412,5.744c-0.166,0.98-0.415,2.457-0.295,2.925
	c0.214,0.304,1.482,1.132,2.321,1.679c1.451,0.948,3.097,2.022,4.483,3.587c1.371,1.549,2.23,3.295,2.989,4.836
	c0.403,0.82,1.067,2.17,1.461,2.547c0.124,0.03,0.446,0.085,1.138,0.085c0.55,0,1.116-0.029,1.683-0.057
	c0.748-0.035,1.501-0.07,2.241-0.07c1.373,0,2.518,0.112,3.604,0.351c2.087,0.46,3.854,1.383,5.413,2.198
	c0.833,0.433,2.076,1.084,2.589,1.163c0.459-0.146,1.657-1.115,2.38-1.699c1.338-1.082,2.856-2.308,4.752-3.137
	c1.907-0.835,3.853-1.122,5.568-1.373c0.991-0.146,2.489-0.365,2.897-0.63c0.221-0.297,0.616-1.746,0.878-2.703
	c0.458-1.676,0.976-3.573,2.039-5.385c1.033-1.762,2.416-3.107,3.638-4.293c0.696-0.676,1.86-1.808,2.018-2.273
	c0.044-0.454-0.539-1.971-0.886-2.878c-0.61-1.586-1.3-3.383-1.501-5.412c-0.204-2.096,0.124-4.037,0.413-5.749
	c0.165-0.981,0.414-2.461,0.294-2.93c-0.214-0.305-1.481-1.133-2.319-1.68c-1.451-0.948-3.096-2.023-4.481-3.587
	c-1.371-1.547-2.23-3.295-2.989-4.836c-0.403-0.818-1.066-2.164-1.458-2.542c-0.124-0.03-0.449-0.086-1.15-0.086
	c-0.55,0-1.113,0.028-1.679,0.056c-0.745,0.035-1.495,0.069-2.233,0.069c-1.373,0-2.517-0.11-3.602-0.35
	c-2.09-0.459-3.859-1.383-5.419-2.198c-0.823-0.43-2.049-1.071-2.569-1.161c-0.515,0.177-1.685,1.124-2.397,1.699
	c-1.337,1.081-2.851,2.306-4.744,3.135c-1.916,0.839-3.862,1.124-5.578,1.376c-0.991,0.146-2.49,0.365-2.898,0.63
	c-0.219,0.295-0.613,1.744-0.875,2.702c-0.457,1.676-0.975,3.574-2.037,5.387c-1.034,1.763-2.419,3.108-3.641,4.296
	c-0.695,0.675-1.858,1.803-2.016,2.268c-0.045,0.449,0.538,1.967,0.886,2.875C194.703,36.89,195.395,38.69,195.593,40.723z"/>
<g>
	<path style="fill:#4F413B;" d="M142.749,207.694c-8.474,0-15.365,6.894-15.365,15.366s6.893,15.364,15.365,15.364
		c8.472,0,15.365-6.893,15.365-15.364C158.115,214.587,151.222,207.694,142.749,207.694z M142.749,227.497
		c-2.448,0-4.438-1.991-4.438-4.437c0-2.448,1.991-4.439,4.438-4.439c2.448,0,4.438,1.992,4.438,4.439
		C147.188,225.507,145.197,227.497,142.749,227.497z"/>
	<path style="fill:#4F413B;" d="M450.186,275.978c-0.996-2.85-4.116-4.354-6.961-3.352c-17.508,6.128-36.13,9.235-55.348,9.235
		c-84.246,0-123.66-19.179-123.994-60.329l13.174-59.868c0.001-0.002,0.001-0.002,0.001-0.004
		c4.717-21.43,0.806-43.414-11.01-61.902c-7.967-12.465-18.894-22.32-31.729-28.872l0.001-0.001
		c0.567-0.249,1.688-0.414,2.771-0.573c2.602-0.381,5.839-0.856,8.517-3.23c2.661-2.357,3.522-5.505,4.213-8.034
		c0.293-1.07,0.595-2.176,0.925-2.738c0.283-0.486,1.102-1.281,1.826-1.984c1.807-1.756,4.282-4.162,5.069-7.74
		c0.79-3.585-0.448-6.81-1.354-9.167c-0.361-0.94-0.771-2.005-0.826-2.556c-0.063-0.645,0.127-1.776,0.313-2.869
		c0.435-2.589,0.979-5.809-0.449-9.069c-1.435-3.277-4.174-5.068-6.376-6.505c-0.918-0.599-1.866-1.219-2.279-1.684
		c-0.395-0.447-0.909-1.492-1.365-2.416c-1.169-2.375-2.624-5.331-5.751-7.165c-2.396-1.402-4.948-1.565-6.66-1.565
		c-0.72,0-1.458,0.033-2.2,0.069c-1.124,0.052-2.385,0.091-2.966-0.038c-0.669-0.147-1.705-0.688-2.706-1.212
		c-2.279-1.19-5.22-2.703-8.678-2.362c-3.602,0.355-6.163,2.426-8.22,4.089c-0.8,0.648-1.708,1.383-2.256,1.622
		c-0.571,0.25-1.693,0.414-2.777,0.574c-2.601,0.38-5.836,0.855-8.519,3.227c-2.663,2.359-3.522,5.509-4.213,8.038
		c-0.291,1.07-0.593,2.176-0.923,2.737c-0.283,0.484-1.102,1.281-1.826,1.983c-1.808,1.754-4.284,4.16-5.07,7.739
		c-0.789,3.583,0.448,6.805,1.351,9.16c0.361,0.941,0.771,2.007,0.826,2.568c0.063,0.645-0.127,1.775-0.312,2.867
		c-0.436,2.586-0.979,5.804,0.448,9.065c1.439,3.281,4.178,5.07,6.38,6.507c0.918,0.599,1.866,1.218,2.275,1.68
		c-14.401,0.559-28.458,4.916-40.922,12.883c-18.49,11.817-31.27,30.128-35.985,51.559l-13.319,60.521
		c-0.648,2.947,1.214,5.861,4.161,6.509l1.813,0.398v18.155l-45.615,35.035c-1.855,1.427-2.598,3.874-1.846,6.091
		c0.753,2.216,2.833,3.707,5.174,3.707h42.287v36.79c0,60.505,48.546,112.019,115.807,130.425v71.263l-12.418,6.444
		c-2.678,1.39-3.723,4.687-2.334,7.365c0.973,1.875,2.879,2.949,4.854,2.949c0.847,0,1.707-0.198,2.511-0.616l12.849-6.667
		l12.849,6.667c0.804,0.418,1.663,0.616,2.511,0.616c1.975,0,3.882-1.075,4.854-2.949c1.39-2.678,0.345-5.976-2.334-7.365
		l-12.417-6.444v-68.611c13.907,2.976,28.504,4.57,43.553,4.57c6.234,0,12.432-0.348,18.582-1.013v65.052l-12.418,6.444
		c-2.678,1.39-3.723,4.687-2.334,7.365c0.973,1.875,2.879,2.949,4.854,2.949c0.847,0,1.707-0.198,2.511-0.616l12.849-6.667
		l12.849,6.667c0.804,0.418,1.663,0.616,2.511,0.616c1.975,0,3.882-1.075,4.854-2.949c1.39-2.678,0.345-5.976-2.334-7.365
		l-12.418-6.444v-66.58c33.607-5.81,65.199-21.47,91.09-45.521c31.998-29.728,50.351-68.128,50.351-105.357h-0.022
		C450.472,277.183,450.396,276.576,450.186,275.978z M109.256,245.835H83.053l26.203-20.124V245.835z M376.866,292.69
		c-32.292,15.013-60.753,6.597-61.14,6.475c-2.876-0.9-5.938,0.696-6.844,3.567c-0.908,2.878,0.687,5.947,3.566,6.855
		c0.824,0.261,10.227,3.12,24.326,3.12c10.375,0,23.297-1.58,37.209-6.861c-17.645,15.89-36.395,21.797-47.781,23.971
		c-23.082,4.41-40.586-0.606-48.559-6.24c-2.466-1.74-5.875-1.155-7.615,1.31c-1.741,2.465-1.153,5.874,1.31,7.615
		c9.151,6.464,22.665,9.906,37.573,9.906c6.274,0,12.795-0.61,19.342-1.86c12.544-2.396,24.413-6.98,35.271-13.47
		c-0.5,0.529-0.997,1.06-1.51,1.586c-25.828,26.453-55.123,35.514-87.063,26.942c-25.812-6.929-41.237-18.607-45.847-34.712
		c-7.818-27.31,15.96-61.598,27.931-76.595C272.452,284.134,328.854,291.791,376.866,292.69z M254.243,214.5l-25.001-5.503
		l10.97-49.852l25,5.501L254.243,214.5z M200.99,150.514l28.551,6.283l-10.97,49.852l-28.551-6.286L200.99,150.514z
		 M179.348,198.016l-28.55-6.285l10.972-49.85l28.547,6.283L179.348,198.016z M193.207,32.426c0.158-0.465,1.321-1.593,2.016-2.268
		c1.223-1.187,2.607-2.533,3.641-4.296c1.062-1.812,1.581-3.712,2.037-5.387c0.262-0.958,0.657-2.405,0.875-2.702
		c0.408-0.265,1.906-0.483,2.898-0.63c1.716-0.251,3.662-0.535,5.578-1.376c1.894-0.829,3.408-2.054,4.744-3.135
		c0.712-0.576,1.882-1.523,2.397-1.699c0.521,0.09,1.747,0.731,2.569,1.161c1.56,0.815,3.329,1.739,5.419,2.198
		c1.084,0.239,2.229,0.35,3.602,0.35c0.737,0,1.487-0.033,2.233-0.069c0.566-0.028,1.129-0.056,1.679-0.056
		c0.701,0,1.027,0.056,1.15,0.086c0.392,0.378,1.055,1.724,1.458,2.542c0.759,1.542,1.618,3.289,2.989,4.836
		c1.387,1.564,3.031,2.638,4.481,3.587c0.838,0.548,2.105,1.376,2.319,1.68c0.12,0.469-0.129,1.95-0.294,2.93
		c-0.289,1.712-0.617,3.655-0.413,5.749c0.2,2.029,0.891,3.826,1.501,5.412c0.347,0.907,0.931,2.423,0.886,2.878
		c-0.158,0.465-1.322,1.597-2.018,2.273c-1.221,1.187-2.606,2.532-3.638,4.293c-1.062,1.812-1.581,3.71-2.039,5.385
		c-0.262,0.957-0.657,2.404-0.878,2.703c-0.408,0.265-1.905,0.483-2.897,0.63c-1.716,0.251-3.661,0.537-5.568,1.373
		c-1.897,0.829-3.414,2.056-4.752,3.137c-0.722,0.585-1.921,1.553-2.38,1.699c-0.512-0.079-1.754-0.73-2.589-1.163
		c-1.559-0.815-3.326-1.737-5.413-2.198c-1.085-0.239-2.23-0.351-3.604-0.351c-0.739,0-1.492,0.034-2.241,0.07
		c-0.567,0.027-1.133,0.057-1.683,0.057c-0.691,0-1.014-0.055-1.138-0.085c-0.393-0.378-1.058-1.728-1.461-2.547
		c-0.759-1.542-1.618-3.287-2.989-4.836c-1.387-1.565-3.032-2.638-4.483-3.587c-0.839-0.548-2.108-1.376-2.321-1.679
		c-0.12-0.467,0.13-1.945,0.295-2.925c0.288-1.713,0.616-3.656,0.412-5.744c-0.198-2.034-0.889-3.833-1.498-5.422
		C193.745,34.393,193.162,32.875,193.207,32.426z M158.472,83.995c16.031-10.248,35.089-13.636,53.67-9.546
		c18.579,4.088,34.453,15.167,44.698,31.195c9.257,14.485,12.897,31.442,10.499,48.284l-138.671-30.519
		C133.565,107.116,143.987,93.254,158.472,83.995z M126.1,134.032l25.001,5.503l-10.974,49.847l-24.997-5.501L126.1,134.032z
		 M392.705,375.134c-31.334,29.11-71.521,45.14-113.16,45.14c-87.871,0-159.36-56.846-159.36-126.721v-97.371l132.896,29.253
		c0.115,1.999,0.314,3.936,0.583,5.819c-8.901,10.105-45.831,54.989-35.074,92.633c5.733,20.059,23.741,34.282,53.524,42.276
		c8.595,2.307,17.082,3.453,25.42,3.453c26.234-0.001,50.946-11.349,72.523-33.55c16.927-17.415,27.052-36.397,30.61-43.722
		c13.236-0.912,26.157-3.237,38.608-6.96C436.96,317.188,420.283,349.512,392.705,375.134z"/>
</g>
<g>
</g>
<g>
</g>
<g>
</g>
<g>
</g>
<g>
</g>
<g>
</g>
<g>
</g>
<g>
</g>
<g>
</g>
<g>
</g>
<g>
</g>
<g>
</g>
<g>
</g>
<g>
</g>
<g>
</g>
</svg>
