<svg width="57.516px" height="57.516px" viewBox="-7.46 0 57.516 57.516" xmlns="http://www.w3.org/2000/svg">
  <g id="Group_5150" data-name="Group 5150" transform="translate(-1093.877 -467.729)">
    <g id="Group_5148" data-name="Group 5148">
      <g id="Group_5096" data-name="Group 5096">
        <g id="Group_5095" data-name="Group 5095">
          <g id="Group_5094" data-name="Group 5094">
            <path id="Path_1878" data-name="Path 1878" d="M1101.713,474.149c-3.627,1.83-4.251,4.252-4.251,4.252a50.979,50.979,0,0,0,5.669,1.417l1.417-1.417A5.627,5.627,0,0,0,1101.713,474.149Z" fill="#b3b3b3"/>
          </g>
        </g>
      </g>
      <g id="Group_5099" data-name="Group 5099">
        <g id="Group_5098" data-name="Group 5098">
          <g id="Group_5097" data-name="Group 5097">
            <path id="Path_1879" data-name="Path 1879" d="M1114.469,472.732c.1.062.2.127.307.191l1.111-4.443c-13.2,0-14.174,5.669-14.174,5.669S1106.8,468.156,1114.469,472.732Z" fill="#f95b67"/>
          </g>
        </g>
      </g>
      <g id="Group_5102" data-name="Group 5102">
        <g id="Group_5101" data-name="Group 5101">
          <g id="Group_5100" data-name="Group 5100">
            <path id="Path_1880" data-name="Path 1880" d="M1110.217,479.818c3.3-.137,5.118-3.134,6.081-5.8a15.206,15.206,0,0,0-1.522-1.1c-.1-.064-.2-.129-.307-.191-7.665-4.576-12.756,1.417-12.756,1.417a5.627,5.627,0,0,1,2.835,4.252A11.19,11.19,0,0,0,1110.217,479.818Z" fill="#985c4c"/>
          </g>
        </g>
      </g>
      <g id="Group_5105" data-name="Group 5105">
        <g id="Group_5104" data-name="Group 5104">
          <g id="Group_5103" data-name="Group 5103">
            <path id="Path_1881" data-name="Path 1881" d="M1116.3,474.019c-.963,2.665-2.776,5.662-6.081,5.8a11.19,11.19,0,0,1-5.669-1.417l-1.417,1.417a4.776,4.776,0,0,1,1.417,4.252s-5.876,7.779,2.246,20.367a27.875,27.875,0,0,1-2.246-10.446c0-.105,0-.206.006-.311.05-4.269,1.124-7.407,2.755-9.61a10.418,10.418,0,0,1,8.578-4.252,9.252,9.252,0,0,1,5.474,2A15.669,15.669,0,0,0,1116.3,474.019Z" fill="#f95b67"/>
          </g>
        </g>
      </g>
      <g id="Group_5108" data-name="Group 5108">
        <g id="Group_5107" data-name="Group 5107">
          <g id="Group_5106" data-name="Group 5106">
            <path id="Path_1882" data-name="Path 1882" d="M1121.361,481.815a9.252,9.252,0,0,0-5.474-2,10.418,10.418,0,0,0-8.578,4.252c-1.631,2.2-2.7,5.341-2.755,9.61,3.242,1.838,7.375,1.869,9.1,1.787.513-.024.815-.058.815-.058l5.67-4.252,4.252,2.834a8.886,8.886,0,0,0,3.531-1.019C1126.744,487.782,1124.243,483.963,1121.361,481.815Z" fill="#985c4c"/>
          </g>
        </g>
      </g>
      <g id="Group_5111" data-name="Group 5111">
        <g id="Group_5110" data-name="Group 5110">
          <g id="Group_5109" data-name="Group 5109">
            <path id="Path_1883" data-name="Path 1883" d="M1115.851,504.822c.014.174.025.34.037.508l.526-.132C1116.227,505.076,1116.039,504.953,1115.851,504.822Z" fill="none"/>
          </g>
        </g>
      </g>
      <g id="Group_5114" data-name="Group 5114">
        <g id="Group_5113" data-name="Group 5113">
          <g id="Group_5112" data-name="Group 5112">
            <path id="Path_1884" data-name="Path 1884" d="M1115.935,509.582h.66l-.706-4.24A31.345,31.345,0,0,1,1115.935,509.582Z" fill="none"/>
          </g>
        </g>
      </g>
      <g id="Group_5117" data-name="Group 5117">
        <g id="Group_5116" data-name="Group 5116">
          <g id="Group_5115" data-name="Group 5115">
            <path id="Path_1885" data-name="Path 1885" d="M1123.15,507.737l.768,1.845h1.181l-1.748-2.332C1123.288,507.414,1123.217,507.575,1123.15,507.737Z" fill="none"/>
          </g>
        </g>
      </g>
      <g id="Group_5120" data-name="Group 5120">
        <g id="Group_5119" data-name="Group 5119">
          <g id="Group_5118" data-name="Group 5118">
            <path id="Path_1886" data-name="Path 1886" d="M1116.414,505.2a23.41,23.41,0,0,0,6.559,2.967c.064-.142.118-.285.177-.428.067-.162.138-.323.2-.487,2.406-6.273,1.04-13.259,1.04-13.259l-4.252-2.834-5.67,4.252a84.954,84.954,0,0,1,1.382,9.413C1116.039,504.953,1116.227,505.076,1116.414,505.2Z" fill="#f95b67"/>
          </g>
        </g>
      </g>
      <g id="Group_5123" data-name="Group 5123">
        <g id="Group_5122" data-name="Group 5122">
          <g id="Group_5121" data-name="Group 5121">
            <path id="Path_1887" data-name="Path 1887" d="M1115.887,506.086a.743.743,0,0,1-.739-.625.763.763,0,0,1,.5-.842h0a.753.753,0,1,1,.3,1.465Zm.238-.045h0Z" fill="#7a7a7a"/>
          </g>
        </g>
      </g>
      <g id="Group_5126" data-name="Group 5126">
        <g id="Group_5125" data-name="Group 5125">
          <g id="Group_5124" data-name="Group 5124">
            <path id="Path_1888" data-name="Path 1888" d="M1115.935,509.582c-.267,3.908-1.466,4.252-1.466,4.252a18.494,18.494,0,0,1-4.663-4.252h-15.179v7.087h23.149l-1.181-7.087Z" fill="#fda654"/>
          </g>
        </g>
      </g>
      <g id="Group_5129" data-name="Group 5129">
        <g id="Group_5128" data-name="Group 5128">
          <g id="Group_5127" data-name="Group 5127">
            <path id="Path_1889" data-name="Path 1889" d="M1135.729,509.582h-7.836a19.243,19.243,0,0,1-.668,2.835l-2.126-2.835h-1.181l2.953,7.087h8.858Z" fill="#fda654"/>
          </g>
        </g>
      </g>
      <g id="Group_5132" data-name="Group 5132">
        <g id="Group_5131" data-name="Group 5131">
          <g id="Group_5130" data-name="Group 5130">
            <path id="Path_1890" data-name="Path 1890" d="M1126.871,516.669l-2.953-7.087-.768-1.845c-.059.143-.113.286-.177.428a23.41,23.41,0,0,1-6.559-2.967l-.526.132v.012l.706,4.24,1.181,7.087.945,5.669a3.868,3.868,0,0,0,5.67,1.417s3.678.851,4.252-2.835Z" fill="#666"/>
          </g>
        </g>
      </g>
      <g id="Group_5135" data-name="Group 5135">
        <g id="Group_5134" data-name="Group 5134">
          <g id="Group_5133" data-name="Group 5133">
            <path id="Path_1891" data-name="Path 1891" d="M1127.922,492.972a8.886,8.886,0,0,1-3.531,1.019s1.366,6.986-1.04,13.259l1.748,2.332,2.126,2.835a19.243,19.243,0,0,0,.668-2.835,57.518,57.518,0,0,0,.75-9.921A30.213,30.213,0,0,0,1127.922,492.972Z" fill="#666"/>
          </g>
        </g>
      </g>
      <g id="Group_5138" data-name="Group 5138">
        <g id="Group_5137" data-name="Group 5137">
          <g id="Group_5136" data-name="Group 5136">
            <path id="Path_1892" data-name="Path 1892" d="M1115.889,505.342l0-.012h0c-.012-.168-.023-.334-.037-.508a84.954,84.954,0,0,0-1.382-9.413s-.3.034-.815.058c-1.725.082-5.858.051-9.1-1.787,0,.105-.006.206-.006.311a27.875,27.875,0,0,0,2.246,10.446,23.112,23.112,0,0,0,3.012,5.145,18.494,18.494,0,0,0,4.663,4.252s1.2-.344,1.466-4.252A31.345,31.345,0,0,0,1115.889,505.342Z" fill="#666"/>
          </g>
        </g>
      </g>
      <g id="Group_5141" data-name="Group 5141">
        <g id="Group_5140" data-name="Group 5140">
          <g id="Group_5139" data-name="Group 5139">
            <path id="Path_1893" data-name="Path 1893" d="M1115.851,504.822c.014.174.025.34.037.508l.526-.132C1116.227,505.076,1116.039,504.953,1115.851,504.822Z" fill="none"/>
          </g>
        </g>
      </g>
      <g id="Group_5144" data-name="Group 5144">
        <g id="Group_5143" data-name="Group 5143">
          <g id="Group_5142" data-name="Group 5142">
            <path id="Path_1894" data-name="Path 1894" d="M1115.935,509.582h.66l-.706-4.24A31.345,31.345,0,0,1,1115.935,509.582Z" fill="none"/>
          </g>
        </g>
      </g>
      <g id="Group_5147" data-name="Group 5147">
        <g id="Group_5146" data-name="Group 5146">
          <g id="Group_5145" data-name="Group 5145">
            <path id="Path_1895" data-name="Path 1895" d="M1123.15,507.737l.768,1.845h1.181l-1.748-2.332C1123.288,507.414,1123.217,507.575,1123.15,507.737Z" fill="none"/>
          </g>
        </g>
      </g>
    </g>
    <g id="Group_5149" data-name="Group 5149">
      <path id="Path_1896" data-name="Path 1896" d="M1106.674,473.4a1.459,1.459,0,1,0,1.459,1.458A1.46,1.46,0,0,0,1106.674,473.4Zm-.041,1.458a.041.041,0,0,1,.041-.041.042.042,0,0,1,.042.041C1106.716,474.9,1106.633,474.9,1106.633,474.857Z" fill="#1a1a1a"/>
      <path id="Path_1897" data-name="Path 1897" d="M1135.729,515.918h-8.358l-1.929-4.629,1.183,1.578a.759.759,0,0,0,.243.2c.014.007.026.016.041.023a.716.716,0,0,0,.29.068.235.235,0,0,0,.026.006.706.706,0,0,0,.112-.008.748.748,0,0,0,.594-.488l.018-.051.011-.032c.009-.028.019-.06.032-.1l.019-.06c.013-.044.028-.091.044-.148q.015-.05.03-.1c.017-.058.034-.12.052-.188l.037-.139c.019-.073.039-.152.06-.235l.043-.178c.021-.087.042-.18.064-.276.017-.072.032-.141.049-.218.023-.1.045-.214.068-.325.018-.085.035-.164.053-.254l.005-.026h7.213a.75.75,0,0,0,0-1.5h-6.954a61.248,61.248,0,0,0,.617-9.171,31.011,31.011,0,0,0-.739-6.855c-1.118-4.93-3.475-8.966-6.64-11.421a16.233,16.233,0,0,0-5.24-7.946c-.362-.3-.756-.56-1.147-.826l.988-3.951a.75.75,0,0,0-.727-.933c-11.862,0-14.331,4.537-14.806,5.91-3.621,1.943-4.317,4.465-4.345,4.574a.75.75,0,0,0,.456.888,47.211,47.211,0,0,0,5.546,1.4,4.056,4.056,0,0,1,1.1,3.269c-.826,1.214-5.445,8.986,2.3,21.021q.322.747.684,1.457l-1.163,1.163h-2.524a2.073,2.073,0,0,0-2.011,1.417h-6.493a.75.75,0,0,0,0,1.5H1105.9l.742,2.229c-.009.105-.1.411-.8.534a.75.75,0,0,0,.128,1.489.72.72,0,0,0,.13-.011,2.126,2.126,0,0,0,2.03-2.264.837.837,0,0,0-.031-.13l-.615-1.847h1.966c.155.191.323.366.484.55s.31.365.472.538c.216.229.443.444.667.661.161.156.317.318.482.468.257.232.526.446.794.663.144.116.282.241.429.353q.63.48,1.3.9a.729.729,0,0,0,.262.1.505.505,0,0,0,.068.01c.023,0,.047.01.071.01a.773.773,0,0,0,.207-.029c.032-.01.071-.024.114-.042l.034-.016a1.308,1.308,0,0,0,.141-.075l.015-.009a1.656,1.656,0,0,0,.174-.128l.047-.041a2.239,2.239,0,0,0,.169-.168l.031-.032a3.037,3.037,0,0,0,.2-.262c.017-.024.033-.05.05-.076.058-.089.115-.188.172-.3.013-.024.026-.046.039-.072.066-.132.131-.28.194-.442.014-.036.028-.076.042-.114.053-.145.1-.3.153-.47.008-.028.018-.05.026-.08l.064.388.55,3.3h-22.264a.75.75,0,0,0,0,1.5h22.514l.841,5.043a.725.725,0,0,0,.078.23,5.252,5.252,0,0,0,2.956,2.413,4.036,4.036,0,0,0,1.058.141,5.024,5.024,0,0,0,2.461-.705,4.715,4.715,0,0,0,3.186-.636,4.031,4.031,0,0,0,1.663-2.868.754.754,0,0,0-.049-.4L1128,517.418h7.733a.75.75,0,0,0,0-1.5Zm-13.213-8.664c-.124-.039-.264-.084-.42-.136l-.188-.066c-.116-.041-.23-.08-.36-.127-.092-.034-.2-.076-.295-.113-.114-.044-.222-.084-.344-.132s-.248-.1-.373-.157-.224-.092-.344-.144c-.14-.061-.289-.132-.435-.2-.116-.053-.226-.1-.345-.158-.161-.078-.33-.166-.5-.251-.112-.057-.22-.108-.334-.169-.182-.1-.369-.2-.555-.309-.1-.059-.207-.112-.313-.174-.293-.171-.591-.354-.89-.549h0c-.085-.055-.17-.11-.255-.167-.032-.371-.079-.771-.12-1.161-.025-.23-.044-.447-.071-.683-.083-.7-.178-1.424-.288-2.177l0-.018c-.112-.763-.24-1.555-.38-2.371-.043-.251-.095-.518-.141-.774-.088-.494-.173-.98-.271-1.491l4.869-3.652,3.541,2.361c.016.1.034.222.054.369l.013.1c.015.11.03.229.046.359.006.053.012.112.019.168.014.124.028.256.041.4q.01.106.021.219c.012.141.024.291.036.445.006.084.013.167.018.254.011.164.021.336.029.512.005.088.01.173.013.264.009.208.015.426.019.647,0,.067,0,.13.005.2,0,.294,0,.6,0,.912,0,.045,0,.092,0,.138-.006.265-.015.536-.029.813-.005.107-.014.217-.021.326-.014.221-.029.444-.049.671-.011.128-.025.258-.038.387-.022.214-.047.429-.074.647-.018.139-.038.278-.059.419q-.047.32-.1.644c-.025.143-.051.286-.079.43-.043.221-.091.443-.142.665-.032.138-.062.276-.1.414-.061.243-.13.485-.2.727-.035.118-.065.236-.1.354-.111.357-.232.713-.367,1.066l0,0c-.036.094-.075.187-.115.28Zm3.167-12.687q.258-.052.551-.13c.034-.009.071-.022.106-.032.162-.045.326-.094.5-.151.07-.024.142-.053.213-.078.11-.04.218-.076.33-.121a30.012,30.012,0,0,1,.511,5.606,56.856,56.856,0,0,1-.738,9.79c-.087.5-.174.923-.254,1.281l-1.2-1.6h0l-1.5-2c.071-.2.133-.4.2-.6.031-.1.065-.189.094-.284.112-.366.214-.733.306-1.1.02-.082.036-.162.055-.243.069-.289.133-.577.189-.863.024-.122.046-.243.068-.364.045-.252.087-.5.124-.75.018-.118.036-.236.052-.353.038-.281.07-.558.1-.832.008-.073.018-.146.025-.218.033-.349.059-.69.078-1.026,0-.071.006-.14.01-.21.013-.264.024-.523.03-.777,0-.1,0-.2.005-.3q.006-.339,0-.664c0-.089,0-.178,0-.265,0-.256-.01-.5-.02-.742,0-.034,0-.07,0-.1q-.018-.417-.044-.793c0-.057-.009-.108-.012-.163-.015-.19-.029-.372-.045-.545-.006-.068-.013-.132-.019-.2-.015-.156-.031-.3-.047-.44q-.009-.081-.018-.159c-.018-.153-.037-.294-.054-.423l-.009-.066v-.011c.088-.014.191-.035.29-.054C1125.593,494.584,1125.634,494.578,1125.683,494.567Zm1.369-2.006-.033.017c-.236.1-.467.19-.691.263-.057.019-.111.034-.168.051-.168.052-.331.1-.484.135l-.173.042c-.158.035-.308.064-.439.087-.023,0-.051.009-.073.013-.151.024-.279.04-.379.051l-.023,0-4.035-2.689a.752.752,0,0,0-.866.024l-5.5,4.125h0c-.131.011-.324.025-.567.036-.377.018-.893.03-1.5.016h-.017c-.293-.007-.61-.021-.941-.044l-.057,0c-.322-.023-.661-.055-1.008-.1l-.1-.012c-.341-.043-.692-.1-1.047-.163l-.131-.024c-.351-.068-.707-.149-1.064-.243l-.144-.039q-.532-.146-1.06-.339c-.048-.017-.095-.036-.143-.054a11.127,11.127,0,0,1-1.034-.452l-.05-.027c.005-.169.011-.336.02-.5.01-.207.02-.416.035-.619.019-.24.046-.473.072-.707.022-.2.042-.394.069-.586.032-.229.073-.45.113-.672.033-.186.063-.374.1-.554.047-.219.1-.429.156-.641.044-.172.084-.347.133-.515.062-.213.134-.416.2-.621.053-.155.1-.315.159-.466.081-.213.173-.417.264-.622.057-.13.11-.266.171-.393.111-.231.235-.451.36-.67.051-.091.1-.187.149-.275.183-.3.377-.6.584-.876a9.967,9.967,0,0,1,1.164-1.319,9.855,9.855,0,0,1,6.811-2.63,8.5,8.5,0,0,1,5.025,1.849C1123.774,484.549,1125.941,488.136,1127.052,492.561Zm-17.8-13.509c-.123-.009-.24-.023-.359-.036-.183-.02-.363-.043-.538-.072-.123-.021-.244-.042-.362-.066q-.255-.054-.495-.115c-.1-.025-.2-.049-.3-.076-.237-.068-.465-.14-.672-.213-.057-.02-.1-.04-.158-.061-.157-.058-.31-.117-.445-.174-.071-.03-.134-.058-.2-.087-.1-.045-.2-.088-.279-.128l-.151-.073-.058-.03-.008-.037c-.014-.076-.032-.159-.053-.249-.006-.028-.011-.052-.019-.08-.028-.118-.063-.243-.105-.379-.006-.021-.015-.043-.021-.065-.038-.114-.08-.234-.128-.358-.017-.042-.034-.084-.051-.128-.053-.127-.112-.257-.177-.391-.013-.027-.024-.053-.038-.081-.08-.157-.17-.317-.27-.478-.026-.042-.055-.083-.083-.125q-.123-.189-.267-.378c-.036-.046-.07-.092-.108-.139a6.153,6.153,0,0,0-.431-.483l-.026-.024a6.218,6.218,0,0,0-.493-.433c-.023-.019-.042-.04-.066-.058.1-.087.2-.177.324-.274l.029-.023c.122-.1.257-.2.4-.3.041-.029.087-.059.13-.089q.181-.126.384-.251l.167-.1c.146-.087.3-.172.463-.256.048-.025.094-.051.144-.075.219-.109.448-.213.691-.31l.006,0c.233-.091.479-.174.733-.249l.208-.055q.3-.08.611-.139c.085-.016.17-.031.256-.044.218-.035.444-.059.674-.076.076-.006.15-.015.228-.018a8.7,8.7,0,0,1,1.973.137c.1.017.2.043.294.064q.383.081.777.2c.12.036.24.075.362.116.264.091.533.2.807.315.114.049.227.093.343.148a13.232,13.232,0,0,1,1.185.624c.067.04.133.082.2.124l.093.059h0c.35.221.693.458,1.023.709l-.024.059c-.1.254-.214.51-.336.766l-.011.024c-.125.261-.263.52-.409.774-.014.025-.027.05-.042.075-.142.244-.3.48-.461.71l-.068.1a7.843,7.843,0,0,1-.523.635c-.03.031-.059.063-.089.1a6,6,0,0,1-.595.545c-.033.027-.067.052-.1.077a4.954,4.954,0,0,1-.681.437c-.032.017-.067.032-.1.048a4.4,4.4,0,0,1-.783.3c-.024.007-.05.01-.075.017a4.493,4.493,0,0,1-.917.139A8.276,8.276,0,0,1,1109.251,479.052Zm10.68,1.008c-.039-.02-.078-.032-.118-.051-.265-.127-.532-.242-.8-.343-.034-.013-.067-.029-.1-.042a9.347,9.347,0,0,0-.907-.277c-.085-.022-.169-.039-.254-.058-.229-.052-.458-.1-.688-.127-.089-.013-.177-.027-.266-.037a8.188,8.188,0,0,0-.909-.057q-.552,0-1.094.05c-.119.011-.236.033-.354.047-.23.028-.462.052-.688.093.08-.063.152-.145.23-.212.133-.114.263-.233.391-.36.146-.145.287-.3.426-.461.121-.141.242-.284.358-.437.133-.176.261-.364.388-.556.109-.167.219-.334.323-.513.121-.206.236-.428.349-.651.1-.191.2-.381.288-.584.031-.069.067-.127.1-.2A14.95,14.95,0,0,1,1119.931,480.06Zm-5.008-10.82-.631,2.527c-.034-.019-.068-.033-.1-.051-.122-.065-.241-.123-.362-.183s-.254-.128-.379-.185-.24-.1-.359-.156-.246-.1-.368-.153-.236-.086-.354-.128-.237-.085-.354-.123-.236-.07-.353-.1-.226-.066-.338-.094-.235-.054-.352-.08-.216-.048-.321-.068-.235-.038-.352-.056c-.1-.015-.2-.032-.3-.044-.118-.015-.235-.024-.352-.034-.095-.008-.19-.018-.284-.023-.117-.007-.232-.009-.347-.011-.073,0-.148-.007-.22-.007l-.029,0a9.684,9.684,0,0,0-1.307.091h-.023A25.485,25.485,0,0,1,1114.923,469.24Zm-13.256,5.783c.108.072.221.141.318.218.051.04.108.079.157.121a4.606,4.606,0,0,1,.516.51c.033.038.059.076.089.114a4.689,4.689,0,0,1,.314.431c.034.054.067.108.1.161.082.141.155.28.218.414.016.034.035.07.05.1.072.165.131.323.178.468.012.037.02.068.03.1.033.109.061.213.082.3.008.033.016.067.022.1s.008.045.012.069l-.867.868c-.869-.178-2.993-.628-4.4-1.052A7.962,7.962,0,0,1,1101.667,475.023Zm3.48,9.5a.762.762,0,0,0,.132-.282,5.487,5.487,0,0,0-1.115-4.394l.521-.521c.128.064.281.135.45.21l.163.068c.135.058.278.116.435.175.087.034.175.065.268.1.151.054.31.1.476.157.1.032.195.063.3.093.261.075.533.144.821.2.083.018.171.03.256.046.225.042.455.08.693.11.117.015.236.025.355.036q.35.032.712.039c.077,0,.149.013.227.013s.154,0,.231,0c.016,0,.031,0,.046,0-.055.032-.105.072-.159.1-.234.14-.46.29-.683.446-.1.074-.212.143-.314.22a10.9,10.9,0,0,0-.915.765q-.36.341-.7.721c-.019.021-.035.044-.053.065-.2.235-.4.477-.592.731-1.877,2.535-2.854,5.915-2.9,10.047h0l-.006.318c0,.422.014.854.041,1.293.007.113.021.23.03.344.025.331.05.663.089,1v.006C1101.822,489.139,1104.973,484.755,1105.147,484.522Zm1.677,23.845.745-.745c.245.414.5.819.763,1.21h-1.353Zm7.573,4.522q-.559-.381-1.09-.808a18.192,18.192,0,0,1-2.911-2.962h0a22.328,22.328,0,0,1-2.911-4.978c-.188-.437-.355-.869-.512-1.3-.031-.084-.063-.169-.092-.253-.145-.406-.278-.807-.4-1.2-.025-.08-.047-.158-.07-.237-.11-.373-.212-.741-.3-1.1-.009-.033-.019-.068-.027-.1-.093-.376-.172-.739-.245-1.093-.016-.08-.033-.161-.049-.24-.066-.337-.124-.664-.174-.976-.01-.064-.019-.125-.029-.188-.043-.283-.08-.555-.111-.812-.006-.043-.012-.089-.017-.131-.032-.278-.058-.535-.078-.778-.005-.06-.011-.12-.015-.177-.018-.229-.033-.446-.042-.637l0-.026c.1.044.206.074.309.115.284.115.568.228.857.322.151.05.3.088.454.132.248.073.495.147.742.207.163.04.322.07.484.1.234.05.466.1.7.14.164.029.321.05.482.074.221.033.44.066.655.091.157.019.306.032.459.047.207.019.411.039.608.052.145.01.281.017.42.024.19.009.372.017.548.022l.37.007c.081,0,.172,0,.25,0,.1,0,.178,0,.267,0l.176,0c.218,0,.42-.011.59-.019l.165-.008c.072.377.139.747.206,1.115.062.345.128.7.185,1.033.085.5.158.972.232,1.449.046.3.1.6.14.892.074.515.136,1,.2,1.492.029.227.064.466.089.687q.118,1.024.195,1.965l0,.042.034.45a.825.825,0,0,0,.006.1,30.538,30.538,0,0,1,.043,4.1A7.229,7.229,0,0,1,1114.4,512.889Zm12.491,9.768a3.366,3.366,0,0,1-2.329.367.756.756,0,0,0-.561.092,3.285,3.285,0,0,1-2.578.543,3.687,3.687,0,0,1-1.982-1.582l-.922-5.531h0l-1.181-7.087v0l-.522-3.126c.1.059.2.114.3.171l.23.133c.138.077.273.15.408.223.063.034.127.07.189.1.184.1.366.19.545.279l.034.017q.287.143.561.27l.165.075.37.166.2.085.3.129.211.085.261.1.2.078.235.088.186.067.209.074.177.06.175.058.157.051.16.049.121.038.137.04.1.029.1.028.076.021.077.02.039.01.056.014.022,0,.4.971h0l2.953,7.086h0l1.687,4.049A2.5,2.5,0,0,1,1126.888,522.657Z" fill="#1a1a1a"/>
    </g>
  </g>
</svg>
