<svg width="150px" height="150px" viewBox="0 -3 150 150" fill="none" xmlns="http://www.w3.org/2000/svg">
<path d="M96.7625 73.074C96.6438 75.3 96.1875 77.424 95.3938 79.416C97.8063 78.54 100.394 78 103.125 78C115.206 78 125 87.402 125 99V120H103.125C91.0438 120 81.25 110.598 81.25 99C81.25 96.378 81.8125 93.894 82.725 91.578C80.6813 92.322 78.4938 92.76 76.2063 92.88L68.2688 107.172L90.8125 128.814L84.1875 135.18L56.7313 108.822L66.4563 91.32C65.5688 90.954 64.7563 90.474 63.9313 90.006L49.2938 103.182L60.6063 130.326L51.9 133.668L38.2125 100.812L56.8938 84H31.425L9.22501 63.222L15.7688 56.778L35.2438 75H53.4438C53.2938 74.01 53.125 73.026 53.125 72C53.125 69.378 53.6875 66.9 54.6063 64.584C52.1938 65.46 49.6063 66 46.875 66C41.0313 66 35.75 63.768 31.825 60.18L31.8 60.198C31.8 60.198 31.7063 60.108 31.5563 59.964C31.4563 59.874 31.3563 59.772 31.2563 59.676C30.0875 58.518 26.8938 55.272 21.0313 48.564C13.2 39.612 12.5 24 12.5 24L27.7563 34.986C29.7875 31.422 32.8313 28.518 36.5563 26.586L25 12C25 12 41.2625 12.732 50.6563 20.154C59.825 27.396 62.4625 30.288 62.4625 30.288C66.3438 34.074 68.75 39.264 68.75 45C68.75 47.622 68.1875 50.106 67.275 52.422C69.6875 51.54 72.2688 51 75 51C76.0625 51 77.0875 51.162 78.1063 51.3L78.2 33.72L59.3188 14.94L66.0625 8.68799L87.6 30.102L87.4688 54.552L105.081 36.696L139.238 50.004L135.713 58.344L107.488 47.346L93.725 61.296C94.2188 62.088 94.7188 62.874 95.1063 63.732L113.338 54.516L140.65 81.006L133.988 87.336L111.556 65.586L96.7625 73.074Z" fill="#BF360C"/>
<path opacity="0.3" d="M49.2938 103.182L60.6063 130.326L51.9 133.668L38.2125 100.812L56.8938 84H31.425L9.22501 63.222L15.7688 56.778L35.2438 75H53.4438C54.4125 81.402 58.3563 86.838 63.9313 90.006L49.2938 103.182ZM76.2063 92.88C75.8 92.904 75.4125 93 75 93C71.9688 93 69.0813 92.4 66.45 91.326L56.725 108.828L84.1813 135.186L90.8125 128.82L68.2688 107.178L76.2063 92.88ZM113.331 54.528L95.1 63.744C96.2375 66.282 96.875 69.066 96.875 72C96.875 72.366 96.7813 72.714 96.7625 73.074L111.55 65.592L133.981 87.342L140.644 81.012L113.331 54.528ZM135.706 58.35L139.231 50.01L105.075 36.702L87.4625 54.558L87.5938 30.108L66.0625 8.694L59.3188 14.946L78.2 33.726L78.1063 51.306C84.7562 52.23 90.4063 55.992 93.7187 61.314L107.481 47.364L135.706 58.35ZM31.2563 59.676C27.3938 55.89 25 50.718 25 45C25 41.352 26.0563 37.974 27.7563 34.986L12.5 24C12.5 24 13.2 39.612 21.0313 48.564C26.8938 55.272 30.0875 58.518 31.2563 59.676ZM31.825 60.18C31.7438 60.102 31.6375 60.048 31.5563 59.97C31.7 60.108 31.8 60.204 31.8 60.204L31.825 60.18ZM46.875 24C52.9813 24 58.4875 26.412 62.4563 30.282C62.4563 30.282 59.8188 27.39 50.65 20.148C41.2625 12.732 25 12 25 12L36.5625 26.586C39.6438 24.99 43.125 24 46.875 24Z" fill="black"/>
</svg>
