<svg width="145px" height="145px" viewBox="0 -0.5 145 145" fill="none" xmlns="http://www.w3.org/2000/svg">
<path d="M132.917 84V132H123.854V110.022L114.792 102.018V132H105.729V110.022L96.6425 102H81.5625V132H72.5V102H63.4375V132H54.375V100.896C50.1337 99.402 46.6658 96.402 44.5452 92.526C44.5392 92.532 44.509 92.568 44.509 92.568L32.039 70.434L20.7229 77.394L20.7048 77.376C19.9133 77.748 19.0554 78 18.125 78C14.79 78 12.0833 75.312 12.0833 72C12.0833 70.65 12.615 69.468 13.3702 68.466L13.3219 68.4L25.7375 48.108L25.7737 48.138C26.1483 47.478 26.5773 46.866 27.0667 46.296C26.4262 42.81 25.4415 33.06 32.3652 24.858C36.9508 19.44 39.2708 15.114 39.2708 12H48.3333C48.3333 19.14 43.1798 26.058 39.3071 30.642C36.4373 34.044 35.7485 38.016 35.7062 40.992C37.9537 37.632 42.1406 32.724 49.2456 29.016C56.3567 25.308 60.906 22.836 63.7819 12H73.074C69.5637 27.378 62.9844 32.01 53.4627 36.984C48.7019 39.468 45.7535 42.558 44.0135 44.874C45.1071 45.792 46.0194 46.89 46.7262 48.132L46.7625 48.102C49.5356 52.464 53.8735 64.998 60.4167 66H114.792C124.803 66 132.917 74.058 132.917 84Z" fill="#FFA000"/>
<path opacity="0.5" d="M73.074 12C69.5637 27.378 62.9844 32.01 53.4627 36.984C48.7019 39.468 45.7535 42.558 44.0135 44.874C41.911 43.11 39.2225 42 36.25 42C36.0627 42 35.8875 42.036 35.7062 42.054C32.2323 42.21 29.1692 43.818 27.0667 46.29C26.4262 42.81 25.4415 33.06 32.3652 24.858C36.9508 19.44 39.2708 15.114 39.2708 12H48.3333C48.3333 19.14 43.1798 26.058 39.3071 30.642C36.4312 34.05 35.7727 37.998 35.7365 40.968C37.9658 37.614 42.1285 32.736 49.2456 29.016C56.3567 25.308 60.906 22.836 63.7819 12H73.074V12Z" fill="black"/>
<path opacity="0.3" d="M96.6425 102H114.792V132H105.729V110.022L96.6425 102ZM60.4167 102C58.284 102 56.2721 101.568 54.375 100.896V132H63.4375V102H60.4167Z" fill="black"/>
<path opacity="0.4" d="M114.701 102H102.708H90.625H81.5625V90H101.011L114.701 102ZM42.7387 63.858L32.039 70.44L44.509 92.574L44.5452 92.532C46.6658 96.408 50.1337 99.402 54.375 100.896C56.2721 101.568 58.284 102 60.4167 102H63.4375H72.5V90H60.4167C54.9731 89.166 46.9015 72.102 42.7387 63.858Z" fill="white"/>
</svg>
