<svg width="145px" height="145px" viewBox="0 -0.5 145 145" fill="none" xmlns="http://www.w3.org/2000/svg">
<path d="M120.833 84V51C120.833 46.038 116.767 42 111.771 42C107.693 42 104.273 44.712 103.137 48.402C103.137 48.402 106.714 50.058 106.732 50.088C111.789 52.626 114.453 57.546 114.713 64.848L120.839 120H108.684L104.43 86.298L97.2104 120H84.8491L93.7304 78.552L66.4704 88.344C65.0264 88.854 63.5523 89.274 62.0056 89.538L72.7598 120H59.9514C59.9514 120 48.4964 88.404 48.3333 88.344V120H36.25V79.782C32.5283 75.162 30.2083 69.378 30.2083 63V54H21.1458C16.1433 54 12.0833 49.968 12.0833 45C12.0833 40.032 16.1433 36 21.1458 36H24.1666C24.1666 29.37 29.5739 24 36.25 24H48.3333L92.0871 43.482C95.1441 35.616 102.787 30 111.771 30C123.431 30 132.917 39.42 132.917 51V84H120.833Z" fill="#616161"/>
<path opacity="0.3" d="M48.3333 88.344V120H36.25V79.782C41.035 86.25 48.4965 88.404 48.3333 88.344ZM104.43 86.298L108.684 120H120.839L115.511 72L106.013 75.468L104.43 86.298Z" fill="black"/>
<path opacity="0.6" d="M102.708 54C102.708 52.11 103.083 50.322 103.633 48.618L106.69 49.98C106.69 49.98 106.72 50.058 106.738 50.088C111.795 52.626 114.459 57.546 114.719 64.848L114.761 64.842L115.45 71.076C108.085 68.79 102.708 62.064 102.708 54ZM36.25 24C29.5739 24 24.1666 29.37 24.1666 36H21.1458C16.1433 36 12.0833 40.032 12.0833 45C12.0833 49.968 16.1433 54 21.1458 54H30.2083C36.8844 54 42.2917 48.63 42.2917 42V24H36.25Z" fill="#D84315"/>
<path opacity="0.4" d="M36.25 79.782C32.5283 75.162 30.2083 69.378 30.2083 63V54C36.8844 54 42.2916 48.63 42.2916 42V24H48.3333L60.4166 29.436C60.5194 40.512 61.625 70.416 49.3544 77.34C43.6571 80.55 36.25 79.782 36.25 79.782Z" fill="white"/>
</svg>
