<svg width="150px" height="150px" viewBox="0 -3 150 150" fill="none" xmlns="http://www.w3.org/2000/svg">
<path d="M100.406 73.164L112.5 108L76.5063 96.48C67.5 98.064 56.25 103.338 56.25 120C56.25 120 20.8313 100.752 12.5 132V90C35.575 90 49.1563 83.19 56.2125 77.946L43.75 60H56.25L62.5 54V42L81.1938 53.964C86.6563 47.19 93.75 34.152 93.75 12H137.5C104.688 19.5 125 54 125 54C107.519 54 102.019 64.572 100.406 73.164Z" fill="#616161"/>
<path opacity="0.3" d="M100.406 73.164L112.5 108L76.5063 96.48C68.0438 93.744 60.7813 84.9 56.2125 77.946L43.75 60H56.25L62.5 54V42L81.1938 53.964C87.6563 57.3 95.7813 63.75 100.406 73.164Z" fill="black"/>
</svg>
