<svg width="144px" height="144px" viewBox="0 0 144 144" fill="none" xmlns="http://www.w3.org/2000/svg">
<path d="M129 96L120 78V90V108H108V88.8L90 87L66 93V108H54V93L39.69 85.848L27 96L12 87V60C12 53.37 17.37 48 24 48H36L53.106 38.202C53.64 37.824 54.216 37.512 54.816 37.224L54.966 37.14H54.978C56.508 36.426 58.2 36 60 36C61.098 36 62.136 36.192 63.144 36.468L63.186 36.462L105 48C105 48 129 55.032 129 66C129 76.968 129 96 129 96Z" fill="#6D4C41"/>
<path opacity="0.4" d="M36 66V57C42.39 57 45 54.39 45 48H54C54 59.442 47.442 66 36 66Z" fill="white"/>
<path opacity="0.3" d="M63.186 36.468L63.144 36.474C62.136 36.192 61.098 36 60 36C58.2 36 56.508 36.426 54.972 37.134H54.96L54.816 37.224C54.222 37.512 53.646 37.824 53.106 38.202L36 48H24C17.37 48 12 53.37 12 60H15.69C28.944 60 39.69 70.746 39.69 84C39.69 84.69 39.546 85.332 39.486 86.01L39.69 85.848L54 93L66 99V93V84C66 64.116 82.116 48 102 48C103.212 48 104.406 48.066 105.582 48.18C105.24 48.072 105 48 105 48L63.186 36.468ZM36 66V57C42.39 57 45 54.39 45 48H54C54 59.442 47.442 66 36 66ZM129 66C129 76.98 129 96 129 96L120 78V54.6C124.86 57.54 129 61.38 129 66Z" fill="black"/>
</svg>
