<svg width="145px" height="145px" viewBox="0 -0.5 145 145" fill="none" xmlns="http://www.w3.org/2000/svg">
<path d="M132.917 63C132.917 71.268 126.144 78 117.813 78C111.771 78 107.922 75.504 104.527 73.308C104.164 73.074 103.796 72.846 103.433 72.618L114.665 87.582L114.792 87.666V87.744L114.816 87.774L114.792 87.798V102H105.729V92.334L94.7454 84.63L90.625 91.104V102H81.5625V84H60.4167V102H51.3542V84H46.0254L34.51 102H23.7679L37.1442 81.096L24.3479 60H15.6721L12.0833 51L21.5808 43.932L21.599 43.962C23.1456 42.75 25.0669 42 27.1875 42V36H36.25V42L69.4792 57L95.5369 60L95.549 60.054C102.116 61.032 106.206 63.648 109.487 65.766C112.49 67.71 114.471 69 117.819 69C121.154 69 123.86 66.306 123.86 63C123.86 59.694 121.154 57 117.819 57H114.792V48H117.813C126.144 48 132.917 54.732 132.917 63Z" fill="#424242"/>
<path opacity="0.3" d="M46.0254 84L34.51 102H23.7679L37.1442 81.096L38.9083 84H40.2858H46.0254ZM93.8452 84H81.5625V102H90.625V91.104L94.7454 84.63L93.8452 84Z" fill="black"/>
</svg>
