<svg width="144px" height="144px" viewBox="0 0 144 144" fill="none" xmlns="http://www.w3.org/2000/svg">
<path d="M138 126C138 129.318 135.318 132 132 132H108C104.682 132 102 129.318 102 126C102 118.188 107.034 111.588 114 109.104V108C114 98.076 105.924 90 96 90C86.916 90 78.21 90 78 90C70.518 90 62.22 89.85 54 88.578V108C45.048 108 36.624 98.124 36.102 83.442C19.812 75.954 6.918 59.952 6.198 25.782C6.174 24.774 6 21.582 6 21C6 16.032 10.032 12 15 12C16.56 12 18.012 12.432 19.29 13.134C19.752 13.386 111.384 74.382 111.384 74.382C126.138 83.418 126.642 93.342 126.246 109.182C133.092 111.738 138 118.278 138 126Z" fill="#0097A7"/>
<path opacity="0.4" d="M94.128 90C85.044 90 78.21 90 78 90C70.518 90 62.22 89.85 54 88.578C54 88.578 43.122 86.622 36.102 83.442C19.914 76.002 7.044 60.696 6.198 25.782L94.128 90Z" fill="white"/>
<path opacity="0.3" d="M36.102 83.442C43.128 86.628 54 88.578 54 88.578V108C45.048 108 36.624 98.124 36.102 83.442ZM7.86 15.576C6.708 17.088 6 18.954 6 21C6 21.582 6.066 22.146 6.174 22.698C6.174 22.704 6.168 22.71 6.168 22.716C6.168 23.73 6.18 24.798 6.198 25.782L32.838 45.126L38.172 37.878L7.86 15.576ZM138 126C138 129.318 135.318 132 132 132H108C104.682 132 102 129.318 102 126C102 118.188 107.034 111.588 114 109.104L126.252 109.182C133.092 111.738 138 118.278 138 126Z" fill="black"/>
</svg>
