<svg width="144px" height="144px" viewBox="0 0 144 144" fill="none" xmlns="http://www.w3.org/2000/svg">
<path d="M123 72C123.06 70.5 123.108 59.928 114 57.354V108H102V93L90.048 81.138L60 96.048V108H48V96L36 84L30 96C30 96 30 96 24 96C20.532 96 18 90 18 90C18 90 9 72 9 60C9 53.376 14.376 48 21 48H31.104C33.582 41.022 40.176 36 48 36C48.984 36 49.932 36.138 50.874 36.288L114 48.144C128.964 50.58 132 64.338 131.994 72.234L132 78H123V72Z" fill="#5D4037"/>
<path opacity="0.4" d="M30 69V60C33.534 60 36 57.534 36 54V48H45V54C45 62.55 38.55 69 30 69Z" fill="white"/>
<path opacity="0.3" d="M132 72V78H123V72H132ZM50.874 36.288C49.932 36.138 48.984 36 48 36C40.176 36 33.582 41.022 31.104 48H21C14.376 48 9 53.376 9 60H11.934C19.176 60 25.59 63.264 30 68.328V60C33.534 60 36 57.534 36 54V48H45V54C45 62.376 38.802 68.688 30.516 68.952C33.876 73.08 35.976 78.27 35.994 84H36L48 96V108H60V78.048C60 78.048 60.126 65.106 68.424 55.404C72.144 51.054 84.018 42.516 84.018 42.516L50.874 36.288Z" fill="black"/>
</svg>
