<svg width="144px" height="144px" viewBox="0 0 144 144" fill="none" xmlns="http://www.w3.org/2000/svg">
<path d="M127.872 52.548C130.476 56.388 132 61.014 132 66V120H120V102.174L108 90C107.916 90 66 90 66 90V120H54V102.636L38.316 80.67C36.888 78.084 36 75.162 36 72H27C18.714 72 12 65.286 12 57C12 49.734 17.172 43.68 24.03 42.3C24.03 42.198 24 42.102 24 42C24 32.058 36 24 48 24C55.224 24 62.406 26.952 67.008 31.446L78 42H108C110.184 42 112.254 42.384 114.264 42.93C115.2 38.964 118.746 36 123 36C127.968 36 132 40.032 132 45C132 48.168 130.35 50.946 127.872 52.548Z" fill="#6D4C41"/>
<path opacity="0.3" d="M60 26.808V33C60 37.968 55.968 42 51 42C46.032 42 42 37.968 42 33V24.69C43.962 24.252 45.978 24 48 24C52.206 24 56.328 25.086 60 26.808Z" fill="black"/>
<path opacity="0.4" d="M107.898 90H66V120H54V102.636L38.316 80.67C36.888 78.084 36 75.162 36 72H28.314C24.186 72 22.878 71.352 22.878 71.352C16.608 69.552 12 63.846 12 57C12 50.202 16.554 44.532 22.752 42.696C23.178 42.564 23.586 42.39 24.03 42.3C24.03 42.198 24 42.102 24 42C24 33.738 32.31 26.85 42 24.732V33C42 37.968 46.032 42 51 42C55.968 42 60 37.968 60 33V66C60 72.63 65.37 78 72 78H95.97L107.898 90Z" fill="white"/>
</svg>
