<svg width="150px" height="150px" viewBox="-3 0 150 150" fill="none" xmlns="http://www.w3.org/2000/svg">
<path d="M132 78.125C132 86.7563 125.286 93.75 117 93.75C116.412 93.75 113.88 93.375 113.508 93.2813L97.17 90.0813C105.534 100.381 109.95 108.263 106.746 111.369C103.572 114.45 96.186 109.975 86.544 101.444L89.7 118.75C89.898 119.763 90 120.806 90 121.875C90 130.506 83.286 137.5 75 137.5C66.714 137.5 60 130.506 60 121.875C60 120.1 60.348 118.419 60.87 116.825L66.738 97.9938C66.738 97.9938 52.608 111.706 52.29 112.006L50.886 113.213C46.782 116.625 41.658 118.75 36 118.75C22.746 118.75 12 107.556 12 93.75C12 79.9438 22.746 68.75 36 68.75H54.402C41.412 54.2188 33.186 42.5813 37.254 38.6313C41.31 34.6938 52.242 43.0938 66 56.5563V37.5C66 23.6938 76.746 12.5 90 12.5C103.254 12.5 114 23.6938 114 37.5C114 44.7375 111.006 51.2 106.29 55.7625L89.166 71.2188C89.166 71.2188 112.938 63.0375 114 62.8125H114.006C114.006 62.8125 115.98 62.5 117.006 62.5C125.286 62.5 132 69.4938 132 78.125Z" fill="#F9A825"/>
<path opacity="0.3" d="M78 68.75C97.188 88.8375 111.93 106.338 106.746 111.369C101.562 116.4 85.188 101.338 66 81.25C46.812 61.1625 32.07 43.6625 37.254 38.6313C42.438 33.6 58.812 48.6625 78 68.75Z" fill="black"/>
</svg>
