<svg width="150px" height="150px" viewBox="-2.5 0 150 150" fill="none" xmlns="http://www.w3.org/2000/svg">
<path d="M132.917 115.625C132.917 120.8 128.857 125 123.854 125C118.852 125 114.792 120.8 114.792 115.625C114.792 115.044 114.725 102.662 96.6183 100.394C96.3404 112.45 84.5833 112.5 84.5833 112.5V100H72.5C72.5 112.5 60.4166 112.5 60.4166 112.5V99.675C58.0544 99.4312 55.686 99.0187 53.3419 98.4187C49.5417 106.225 36.25 106.25 36.25 106.25L42.3219 93.6938C39.2829 91.7313 36.4614 89.2125 33.9904 86.025C29.2175 87.75 24.1666 87.5 24.1666 87.5L29.9848 79.4813C28.42 76.3125 27.0969 72.7375 26.1362 68.6C23.6229 68.8937 20.886 68.9625 18.125 68.75L24.7285 59.6438C24.6137 58.5063 24.4627 57.425 24.3902 56.225C24.3116 56.2313 24.2452 56.25 24.1666 56.25C17.4906 56.25 12.0833 50.6563 12.0833 43.75C12.0833 39.7687 13.9139 36.2687 16.7112 33.9812L24.1666 28.1938C26.6981 26.2188 29.8156 25 33.2291 25C38.576 25 43.2462 27.8938 45.9287 32.225C45.9287 32.225 51.7348 43.2875 53.8071 49.125C58.9787 63.6625 61.7458 68.75 72.5 68.75H90.625C121.021 68.75 132.917 87.5 132.917 115.625Z" fill="#9CCC65"/>
<path opacity="0.4" d="M123.854 125C118.852 125 114.792 120.8 114.792 115.625C114.792 114.981 114.792 100 90.625 100H66.4583C48.1823 100 26.6196 92.1688 24.3902 56.225C24.3117 56.2313 36.25 56.25 36.25 56.25C43.3308 81.8375 61.7458 81.25 72.5 81.25H84.5833C132.917 81.25 123.854 125 123.854 125Z" fill="white"/>
<path opacity="0.3" d="M66.4583 100H72.5C72.5 112.5 60.4167 112.5 60.4167 112.5V99.675C62.4467 99.8875 64.4767 100 66.4583 100ZM90.625 100H84.5833V112.5C84.5833 112.5 96.3404 112.45 96.6183 100.394C94.7877 100.163 92.8423 100 90.625 100ZM42.3219 93.6938L36.25 106.25C36.25 106.25 49.5417 106.225 53.3419 98.4188C49.5175 97.4313 45.7777 95.925 42.3219 93.6938ZM29.9848 79.4813L24.1667 87.5C24.1667 87.5 29.2175 87.75 33.9904 86.025C32.5102 84.1063 31.181 81.9063 29.9848 79.4813ZM24.7285 59.6438L18.125 68.75C20.886 68.9625 23.6229 68.8938 26.1363 68.5938C25.4958 65.8625 25.0548 62.8375 24.7285 59.6438Z" fill="black"/>
</svg>
