<?xml version="1.0" encoding="iso-8859-1"?>
<!-- Generator: Adobe Illustrator 19.0.0, SVG Export Plug-In . SVG Version: 6.00 Build 0)  -->
<svg version="1.1" id="Layer_1" xmlns="http://www.w3.org/2000/svg" xmlns:xlink="http://www.w3.org/1999/xlink" x="0px" y="0px"
	 viewBox="0 0 512 512" style="enable-background:new 0 0 512 512;" xml:space="preserve">
<path style="fill:#096C80;" d="M256,8.17c136.873,0,247.83,110.957,247.83,247.83S392.873,503.83,256,503.83S8.17,392.873,8.17,256
	S119.127,8.17,256,8.17"/>
<polygon style="fill:#89EBFF;" points="177.791,341.732 142.083,278.109 161.967,278.109 118.24,200.197 74.515,278.109 
	94.399,278.109 58.69,341.732 118.24,363.519 "/>
<polygon style="fill:#4DE1FF;" points="325.686,357.852 280.931,278.109 300.816,278.109 257.089,200.197 213.362,278.109 
	233.248,278.109 188.492,357.852 "/>
<polygon style="fill:#89EBFF;" points="453.31,341.732 417.601,278.109 437.485,278.109 393.76,200.197 350.033,278.109 
	369.917,278.109 334.209,341.732 393.76,363.519 "/>
<path style="fill:#FFFFFF;" d="M256,348.268c-14.092,0-14.075-6.536-28.168-6.536c-14.094,0-14.094,6.536-28.188,6.536
	s-14.094-6.536-28.188-6.536c-14.094,0-14.094,6.536-28.188,6.536c-14.095,0-14.095-6.536-28.189-6.536
	c-14.096,0-14.096,6.536-28.194,6.536c-14.096,0-14.096-6.536-28.194-6.536C91.88,417.822,167.824,471.149,256,471.149
	s164.12-53.326,197.31-129.417c-14.096,0-14.096,6.536-28.194,6.536c-14.096,0-14.096-6.536-28.194-6.536
	c-14.095,0-14.095,6.536-28.189,6.536c-14.094,0-14.094-6.536-28.188-6.536c-14.094,0-14.094,6.536-28.188,6.536
	c-14.094,0-14.094-6.536-28.188-6.536C270.075,341.732,270.092,348.268,256,348.268z"/>
<g>
	<g>
		<path style="fill:none;stroke:#FFC240;stroke-width:15;stroke-linecap:round;stroke-linejoin:round;stroke-miterlimit:10;" d="
			M224.681,169.546c-10.529,0-19.064-8.535-19.064-19.064s8.535-19.064,19.064-19.064h62.638c9.024,0,16.34-7.316,16.34-16.34
			s-7.316-16.34-16.34-16.34H109.323"/>
		
			<line style="fill:none;stroke:#FFC240;stroke-width:15;stroke-linecap:round;stroke-linejoin:round;stroke-miterlimit:10;" x1="453" y1="169.548" x2="257.362" y2="169.548"/>
	</g>
	
		<line style="fill:none;stroke:#FFD170;stroke-width:15;stroke-linecap:round;stroke-linejoin:round;stroke-miterlimit:10;" x1="369.021" y1="125.974" x2="369.021" y2="136.867"/>
	
		<line style="fill:none;stroke:#FFFFFF;stroke-width:15;stroke-linecap:round;stroke-linejoin:round;stroke-miterlimit:10;" x1="401.702" y1="125.974" x2="401.702" y2="136.867"/>
</g>
<circle style="fill:#FFD170;" cx="434.383" cy="136.867" r="8.17"/>
<g>
	
		<line style="fill:none;stroke:#FFFFFF;stroke-width:15;stroke-linecap:round;stroke-linejoin:round;stroke-miterlimit:10;" x1="336.34" y1="125.974" x2="336.34" y2="136.867"/>
	
		<line style="fill:none;stroke:#FFD170;stroke-width:15;stroke-linecap:round;stroke-linejoin:round;stroke-miterlimit:10;" x1="221.957" y1="55.163" x2="221.957" y2="66.059"/>
	
		<line style="fill:none;stroke:#FFFFFF;stroke-width:15;stroke-linecap:round;stroke-linejoin:round;stroke-miterlimit:10;" x1="254.638" y1="55.163" x2="254.638" y2="66.059"/>
	
		<line style="fill:none;stroke:#FFD170;stroke-width:15;stroke-linecap:round;stroke-linejoin:round;stroke-miterlimit:10;" x1="287.319" y1="55.163" x2="287.319" y2="66.059"/>
</g>
<circle style="fill:#FFD170;" cx="156.596" cy="66.059" r="8.17"/>
<line style="fill:none;stroke:#FFFFFF;stroke-width:15;stroke-linecap:round;stroke-linejoin:round;stroke-miterlimit:10;" x1="189.277" y1="55.163" x2="189.277" y2="66.059"/>
<g>
	<path style="fill:#03242B;" d="M461.158,343.991c0.084-0.292,0.151-0.589,0.203-0.889c0.013-0.074,0.019-0.148,0.029-0.222
		c0.034-0.234,0.058-0.47,0.071-0.706c0.004-0.09,0.008-0.181,0.01-0.27c0.005-0.236-0.001-0.474-0.016-0.711
		c-0.004-0.072-0.007-0.144-0.013-0.216c-0.057-0.617-0.184-1.232-0.387-1.836c-0.024-0.071-0.053-0.141-0.08-0.211
		c-0.079-0.219-0.168-0.435-0.268-0.648c-0.045-0.097-0.094-0.192-0.143-0.286c-0.045-0.087-0.082-0.175-0.13-0.261l-28.878-51.454
		h5.929c2.901,0,5.584-1.538,7.05-4.043c1.466-2.503,1.495-5.597,0.074-8.127l-43.727-77.911c-1.447-2.576-4.171-4.171-7.126-4.171
		c-2.954,0-5.679,1.595-7.125,4.171l-43.727,77.911c-1.419,2.53-1.391,5.623,0.074,8.127c1.466,2.504,4.149,4.043,7.05,4.043h5.93
		l-27.555,49.096c-2.078,0.693-3.804,1.488-5.369,2.214c-0.12,0.056-0.236,0.109-0.354,0.163
		c-0.01-0.018-28.888-51.473-28.888-51.473h5.93c2.901,0,5.584-1.538,7.05-4.043c1.466-2.503,1.495-5.597,0.074-8.127
		l-43.727-77.911c-1.447-2.576-4.171-4.171-7.126-4.171c-2.954,0-5.679,1.595-7.126,4.171l-43.727,77.911
		c-1.419,2.53-1.391,5.623,0.074,8.127c1.466,2.504,4.149,4.043,7.05,4.043h5.93l-28.879,51.454
		c-0.115-0.041-0.224-0.093-0.338-0.145c-1.573-0.729-3.307-1.529-5.401-2.224l-27.549-49.086h5.93c2.901,0,5.584-1.538,7.05-4.043
		c1.466-2.503,1.495-5.597,0.074-8.127l-43.727-77.911c-1.447-2.576-4.171-4.171-7.126-4.171s-5.679,1.595-7.126,4.171
		l-43.727,77.911c-1.419,2.53-1.391,5.623,0.074,8.127c1.466,2.504,4.149,4.043,7.05,4.043h5.929l-28.879,51.454
		c-0.048,0.086-0.085,0.174-0.13,0.261c-0.049,0.095-0.097,0.19-0.143,0.287c-0.1,0.214-0.188,0.43-0.268,0.648
		c-0.026,0.071-0.056,0.139-0.08,0.211c-0.203,0.603-0.329,1.218-0.387,1.836c-0.007,0.072-0.009,0.144-0.013,0.216
		c-0.015,0.237-0.022,0.474-0.016,0.711c0.002,0.09,0.004,0.18,0.01,0.27c0.013,0.237,0.037,0.472,0.071,0.706
		c0.011,0.074,0.016,0.148,0.029,0.222c0.051,0.301,0.119,0.597,0.203,0.89c0.019,0.066,0.045,0.131,0.065,0.196
		c0.073,0.232,0.156,0.461,0.249,0.685c0.017,0.041,0.027,0.084,0.046,0.125c8.907,20.419,20.829,39.389,35.436,56.385
		c1.616,1.88,3.901,2.844,6.2,2.844c1.885,0,3.78-0.649,5.322-1.975c3.422-2.94,3.812-8.099,0.87-11.521
		c-9.67-11.252-18.071-23.437-25.09-36.374c3.183,1.145,7.219,2.078,12.945,2.078c8.851,0,13.665-2.232,17.533-4.026
		c3.143-1.456,5.414-2.51,10.66-2.51c5.245,0,7.516,1.053,10.658,2.51c3.868,1.794,8.682,4.026,17.532,4.026
		c8.85,0,13.663-2.233,17.531-4.026c3.142-1.456,5.412-2.51,10.657-2.51s7.514,1.053,10.657,2.51
		c3.868,1.793,8.682,4.026,17.532,4.026c8.849,0,13.663-2.233,17.531-4.026c3.142-1.456,5.412-2.51,10.657-2.51
		c5.243,0,7.513,1.053,10.655,2.51c3.868,1.793,8.681,4.026,17.53,4.026c8.849,0,13.663-2.233,17.53-4.026
		c3.141-1.456,5.411-2.51,10.654-2.51s7.512,1.053,10.653,2.51c3.867,1.793,8.68,4.026,17.528,4.026
		c8.849,0,13.663-2.233,17.531-4.026c3.142-1.456,5.411-2.51,10.655-2.51c5.243,0,7.513,1.053,10.655,2.51
		c3.868,1.793,8.681,4.026,17.53,4.026c7.22,0,11.654-1.471,15.04-2.908c4.153-1.765,6.09-6.561,4.325-10.715
		c-1.765-4.154-6.56-6.09-10.714-4.326c-1.914,0.814-4.158,1.608-8.65,1.608c-5.243,0-7.513-1.053-10.655-2.51
		c-2.647-1.228-5.74-2.66-10.263-3.442l29.206-52.038c1.419-2.529,1.391-5.623-0.074-8.127c-1.466-2.504-4.149-4.043-7.05-4.043
		h-5.93l29.772-53.046l29.772,53.046h-5.929c-2.901,0-5.584,1.538-7.05,4.043c-1.466,2.503-1.495,5.597-0.074,8.127l30.021,53.49
		c-1.792,0.637-3.319,1.342-4.718,1.991c-3.142,1.456-5.411,2.51-10.655,2.51c-4.491,0-6.736-0.794-8.65-1.608
		c-4.154-1.763-8.95,0.172-10.714,4.326c-1.764,4.154,0.172,8.95,4.325,10.715c3.385,1.437,7.818,2.908,15.039,2.908
		c5.728,0,9.765-0.935,12.949-2.082C402.074,420.879,332.4,462.979,256,462.979c-49.382,0-97.231-17.759-134.736-50.003
		c-3.423-2.943-8.58-2.552-11.522,0.868c-2.942,3.422-2.552,8.58,0.868,11.521c40.469,34.793,92.101,53.954,145.389,53.954
		c88.819,0,169.207-52.724,204.798-134.32c0.019-0.041,0.028-0.085,0.046-0.126c0.093-0.223,0.175-0.451,0.248-0.682
		C461.113,344.124,461.139,344.059,461.158,343.991z M153.925,337.589c-3.142,1.456-5.412,2.51-10.657,2.51
		c-5.245,0-7.516-1.053-10.657-2.51c-3.868-1.793-8.682-4.026-17.532-4.026c-8.851,0-13.665,2.232-17.533,4.026
		c-3.143,1.456-5.414,2.51-10.66,2.51s-7.517-1.053-10.66-2.51c-1.4-0.649-2.927-1.355-4.72-1.992l30.02-53.489
		c1.419-2.529,1.391-5.623-0.074-8.127c-1.466-2.504-4.149-4.043-7.05-4.043h-5.929l29.772-53.046l29.772,53.046h-5.93
		c-2.901,0-5.584,1.538-7.05,4.043c-1.466,2.503-1.495,5.597-0.074,8.127l29.208,52.042
		C159.655,334.933,156.567,336.363,153.925,337.589z M284.201,333.561c-8.849,0-13.663,2.233-17.53,4.026
		c-3.141,1.456-5.411,2.51-10.654,2.51s-7.513-1.053-10.655-2.51c-3.868-1.793-8.681-4.026-17.53-4.026
		c-8.85,0-13.663,2.233-17.531,4.026c-0.998,0.463-1.909,0.885-2.855,1.245l31.837-56.725c1.419-2.529,1.391-5.623-0.074-8.127
		c-1.466-2.504-4.149-4.043-7.05-4.043h-5.93L256,216.892l29.772,53.046h-5.93c-2.901,0-5.584,1.538-7.05,4.043
		c-1.466,2.503-1.495,5.597-0.074,8.127l31.829,56.712c-0.931-0.357-1.831-0.775-2.816-1.231
		C297.863,335.795,293.05,333.561,284.201,333.561z"/>
	<path style="fill:#03242B;" d="M437.019,74.981C388.668,26.628,324.38,0,256,0S123.332,26.628,74.981,74.981
		C26.628,123.333,0,187.62,0,256s26.628,132.667,74.981,181.019C123.332,485.372,187.62,512,256,512s132.668-26.628,181.019-74.981
		C485.372,388.667,512,324.38,512,256S485.372,123.333,437.019,74.981z M256,495.66c-132.149,0-239.66-107.51-239.66-239.66
		S123.851,16.34,256,16.34S495.66,123.851,495.66,256S388.149,495.66,256,495.66z"/>
</g>
<g>
</g>
<g>
</g>
<g>
</g>
<g>
</g>
<g>
</g>
<g>
</g>
<g>
</g>
<g>
</g>
<g>
</g>
<g>
</g>
<g>
</g>
<g>
</g>
<g>
</g>
<g>
</g>
<g>
</g>
</svg>
