<?xml version="1.0" encoding="iso-8859-1"?>
<!-- Generator: Adobe Illustrator 19.0.0, SVG Export Plug-In . SVG Version: 6.00 Build 0)  -->
<svg version="1.1" id="Layer_1" xmlns="http://www.w3.org/2000/svg" xmlns:xlink="http://www.w3.org/1999/xlink" x="0px" y="0px"
	 viewBox="0 0 512 512" style="enable-background:new 0 0 512 512;" xml:space="preserve">
<circle style="fill:#FFE1A0;" cx="256" cy="256" r="247.83"/>
<path style="fill:#FF7066;" d="M156.667,111.491c-11.12,0-20.136,9.016-20.136,20.136v21.57h-8.087
	c-11.12,0-20.136,9.016-20.136,20.136v114.269l-35.926,80.418l93.113,21.787V111.491H156.667z"/>
<path style="fill:#FF5347;" d="M304.569,368.018L268.613,287.6v-74.105h-45.932v-81.869c0-11.12-9.016-20.136-20.136-20.136h-37.051
	v278.314L304.569,368.018z"/>
<polygon style="fill:#FF7066;" points="304.369,260.792 304.369,389.805 347.943,389.805 337.05,260.792 "/>
<path style="fill:#FF6E36;" d="M414.844,312.598v-93.945c0-7.664-6.213-13.876-13.877-13.876h-50.042
	c-7.664,0-13.876,6.213-13.876,13.876v171.153l102.57-21.787L414.844,312.598z"/>
<path style="fill:#FF984C;" d="M72.38,368.018C110.224,429.822,178.374,471.149,256,471.149s145.776-41.327,183.62-103.131H72.38z"
	/>
<circle style="fill:#FF6E36;" cx="350.655" cy="112.891" r="43.574"/>
<g>
	<path style="fill:#03242B;" d="M437.019,74.981C388.667,26.628,324.38,0,256,0S123.333,26.628,74.981,74.981
		C26.628,123.332,0,187.62,0,256s26.628,132.668,74.981,181.019C123.333,485.372,187.62,512,256,512s132.667-26.628,181.019-74.981
		C485.372,388.668,512,324.38,512,256S485.372,123.332,437.019,74.981z M256,495.66c-132.149,0-239.66-107.51-239.66-239.66
		S123.851,16.34,256,16.34S495.66,123.851,495.66,256S388.149,495.66,256,495.66z"/>
	<path style="fill:#03242B;" d="M165.494,343.507c4.513,0,8.17-3.658,8.17-8.17v-44.144c0-4.512-3.657-8.17-8.17-8.17
		c-4.513,0-8.17,3.658-8.17,8.17v44.144C157.323,339.849,160.98,343.507,165.494,343.507z"/>
	<path style="fill:#03242B;" d="M165.494,266.682c4.513,0,8.17-3.658,8.17-8.17v-42.825c0-4.512-3.657-8.17-8.17-8.17
		c-4.513,0-8.17,3.658-8.17,8.17v42.825C157.323,263.024,160.98,266.682,165.494,266.682z"/>
	<path style="fill:#03242B;" d="M350.652,164.635c28.531,0,51.745-23.213,51.745-51.745s-23.213-51.745-51.745-51.745
		c-28.531,0-51.745,23.213-51.745,51.745S322.12,164.635,350.652,164.635z M350.652,77.486c19.522,0,35.404,15.883,35.404,35.404
		s-15.882,35.404-35.404,35.404c-19.522,0-35.404-15.883-35.404-35.404S331.13,77.486,350.652,77.486z"/>
	<path style="fill:#03242B;" d="M316.46,428.119v-10.894c0-4.512-3.657-8.17-8.17-8.17c-4.513,0-8.17,3.658-8.17,8.17v10.894
		c0,4.512,3.657,8.17,8.17,8.17C312.803,436.289,316.46,432.631,316.46,428.119z"/>
	<path style="fill:#03242B;" d="M349.14,411.592v-10.894c0-4.512-3.657-8.17-8.17-8.17c-4.513,0-8.17,3.658-8.17,8.17v10.894
		c0,4.512,3.657,8.17,8.17,8.17C345.483,419.763,349.14,416.105,349.14,411.592z"/>
	<path style="fill:#03242B;" d="M179.2,400.699c0-4.512-3.657-8.17-8.17-8.17s-8.17,3.658-8.17,8.17v10.894
		c0,4.512,3.657,8.17,8.17,8.17s8.17-3.658,8.17-8.17V400.699z"/>
	<path style="fill:#03242B;" d="M446.987,371.532c0.032-0.066,0.066-0.132,0.096-0.199c0.248-0.559,0.437-1.149,0.556-1.766
		c0.014-0.073,0.022-0.147,0.034-0.221c0.036-0.222,0.066-0.446,0.084-0.673c0.009-0.112,0.012-0.223,0.017-0.336
		c0.004-0.107,0.016-0.211,0.016-0.319c0-0.09-0.011-0.178-0.013-0.267c-0.003-0.114-0.009-0.229-0.017-0.344
		c-0.016-0.214-0.041-0.424-0.074-0.633c-0.013-0.088-0.024-0.176-0.04-0.265c-0.117-0.622-0.302-1.218-0.55-1.782
		c-0.016-0.044-24.079-53.872-24.079-53.872v-92.202c0-12.157-9.89-22.047-22.047-22.047h-50.043
		c-12.156,0-22.047,9.89-22.047,22.047v33.971h-24.511c-4.513,0-8.17,3.658-8.17,8.17v26.712c0,4.512,3.657,8.17,8.17,8.17
		c4.513,0,8.17-3.658,8.17-8.17v-18.542h16.34v43.635c0,4.512,3.657,8.17,8.17,8.17c4.513,0,8.17-3.658,8.17-8.17v-93.945
		c0-3.146,2.56-5.706,5.706-5.706h23.068v47.847c0,4.512,3.657,8.17,8.17,8.17c4.513,0,8.17-3.658,8.17-8.17v-47.847h10.634
		c3.147,0,5.706,2.56,5.706,5.706v93.945c0,1.149,0.243,2.285,0.711,3.335l19.631,43.915H309.866l-33.083-73.991V150.509
		c0-4.512-3.657-8.17-8.17-8.17c-4.513,0-8.17,3.658-8.17,8.17v54.816h-29.591v-73.699c0-15.608-12.698-28.306-28.306-28.306
		h-45.878c-15.608,0-28.306,12.698-28.306,28.306v13.4c-15.57,0.046-28.223,12.726-28.223,28.305v112.527l-35.216,78.827
		c-0.265,0.607-0.45,1.203-0.565,1.824c-0.016,0.09-0.027,0.18-0.041,0.27c-0.032,0.207-0.057,0.415-0.073,0.626
		c-0.009,0.117-0.014,0.233-0.017,0.351c-0.003,0.088-0.013,0.174-0.013,0.263c0,0.107,0.012,0.21,0.016,0.315
		c0.004,0.114,0.008,0.229,0.017,0.342c0.017,0.224,0.047,0.444,0.083,0.663c0.013,0.076,0.021,0.154,0.035,0.23
		c0.119,0.615,0.307,1.205,0.554,1.763c0.031,0.069,0.065,0.135,0.098,0.203c0.101,0.212,0.211,0.419,0.33,0.621
		c0.025,0.042,0.042,0.087,0.069,0.129c21.342,34.855,51.795,63.229,88.068,82.053c1.203,0.624,2.489,0.921,3.757,0.921
		c2.952,0,5.804-1.607,7.258-4.409c2.079-4.004,0.516-8.937-3.488-11.015c-29.205-15.156-54.317-37.002-73.385-63.646h216.92
		c0.071,0,119.855,0,119.855,0c-38.92,54.604-100.818,86.79-168.4,86.79c-22.584,0-44.815-3.642-66.074-10.824
		c-4.277-1.447-8.912,0.85-10.355,5.125c-1.445,4.275,0.851,8.911,5.125,10.355c22.947,7.753,46.938,11.683,71.304,11.683
		c38.877,0,77.189-10.191,110.795-29.473c32.575-18.691,60.168-45.511,79.792-77.561c0.025-0.041,0.044-0.087,0.069-0.129
		C446.774,371.953,446.884,371.745,446.987,371.532z M115.766,290.933c0.468-1.048,0.71-2.184,0.71-3.332V173.332
		c0-6.597,5.368-11.964,11.966-11.964h8.087c4.513,0,8.17-3.658,8.17-8.17v-21.57c0-6.598,5.368-11.966,11.966-11.966h45.878
		c6.598,0,11.966,5.367,11.966,11.966v112.826c0,4.512,3.657,8.17,8.17,8.17c4.513,0,8.17-3.658,8.17-8.17v-22.787h29.591V287.6
		c0,1.149,0.243,2.285,0.711,3.336l30.813,68.912H84.979L115.766,290.933z"/>
</g>
<g>
</g>
<g>
</g>
<g>
</g>
<g>
</g>
<g>
</g>
<g>
</g>
<g>
</g>
<g>
</g>
<g>
</g>
<g>
</g>
<g>
</g>
<g>
</g>
<g>
</g>
<g>
</g>
<g>
</g>
</svg>
