<?xml version="1.0" encoding="iso-8859-1"?>
<!-- Generator: Adobe Illustrator 19.0.0, SVG Export Plug-In . SVG Version: 6.00 Build 0)  -->
<svg version="1.1" id="Layer_1" xmlns="http://www.w3.org/2000/svg" xmlns:xlink="http://www.w3.org/1999/xlink" x="0px" y="0px"
	 viewBox="0 0 512 512" style="enable-background:new 0 0 512 512;" xml:space="preserve">
<circle style="fill:#4DE1FF;" cx="256" cy="256" r="247.83"/>
<path style="fill:#FF984C;" d="M52.28,186.76c-7.409,21.737-11.428,45.028-11.428,69.24c0,19.798,2.689,39.643,7.718,57.864
	l78.345,13.63V186.76H52.28z"/>
<polygon style="fill:#FF6E36;" points="201.178,239.66 201.178,186.76 126.914,186.76 126.914,327.493 173.804,335.651 
	212.977,328.836 212.977,250.312 "/>
<polygon style="fill:#FF984C;" points="201.178,186.76 201.178,239.66 212.977,250.312 212.977,328.836 254.565,321.6 
	254.565,186.761 "/>
<polygon style="fill:#FF6E36;" points="299.044,230.336 287.246,219.683 287.246,186.761 254.565,186.761 254.565,321.6 
	299.038,313.864 "/>
<path style="fill:#096C80;" d="M428.14,288.681c-9.726,15.237-25.378,25.183-43.053,25.183c-17.662,0-33.269-9.946-43.009-25.183
	c-9.755,15.237-25.378,25.183-43.039,25.183c-17.676,0-33.283-9.946-43.024-25.183c-9.726,15.237-25.378,25.183-43.038,25.183
	s-33.284-9.946-43.024-25.183c-9.755,15.237-25.378,25.183-43.038,25.183c-17.662,0-33.284-9.946-43.024-25.183
	c-8.272,12.958-20.833,22.07-35.269,24.507c25.11,90.956,108.561,157.955,207.393,157.961
	c98.83-0.007,182.283-67.001,207.393-157.957C448.977,310.756,436.411,301.639,428.14,288.681z"/>
<circle style="fill:#FFD170;" cx="424.415" cy="185.802" r="32.681"/>
<polygon style="fill:#405A0F;" points="115.116,93.523 91.177,154.08 139.055,154.08 "/>
<polygon style="fill:#557714;" points="174.195,93.523 150.258,154.08 198.134,154.08 "/>
<polygon style="fill:#405A0F;" points="233.276,93.523 209.337,154.08 257.214,154.08 "/>
<g>
	<path style="fill:#03242B;" d="M437.019,74.981C388.668,26.628,324.38,0,256,0S123.332,26.628,74.981,74.981
		C26.628,123.332,0,187.62,0,256s26.628,132.668,74.981,181.019C123.332,485.372,187.62,512,256,512s132.668-26.628,181.019-74.981
		C485.372,388.668,512,324.38,512,256S485.372,123.332,437.019,74.981z M256,495.66c-132.149,0-239.66-107.51-239.66-239.66
		S123.851,16.34,256,16.34S495.66,123.851,495.66,256S388.149,495.66,256,495.66z"/>
	<path style="fill:#03242B;" d="M307.214,379.224c0,4.512,3.658,8.17,8.17,8.17h10.894c4.512,0,8.17-3.658,8.17-8.17
		c0-4.512-3.658-8.17-8.17-8.17h-10.894C310.872,371.054,307.214,374.712,307.214,379.224z"/>
	<path style="fill:#03242B;" d="M304.491,338.373h-10.894c-4.512,0-8.17,3.658-8.17,8.17c0,4.512,3.658,8.17,8.17,8.17h10.894
		c4.512,0,8.17-3.658,8.17-8.17C312.661,342.031,309.003,338.373,304.491,338.373z"/>
	<path style="fill:#03242B;" d="M390.525,354.714c4.512,0,8.17-3.658,8.17-8.17c0-4.512-3.658-8.17-8.17-8.17h-10.894
		c-4.512,0-8.17,3.658-8.17,8.17c0,4.512,3.658,8.17,8.17,8.17H390.525z"/>
	<path style="fill:#03242B;" d="M121.467,338.373c-4.512,0-8.17,3.658-8.17,8.17c0,4.512,3.658,8.17,8.17,8.17h10.894
		c4.512,0,8.17-3.658,8.17-8.17c0-4.512-3.658-8.17-8.17-8.17H121.467z"/>
	<path style="fill:#03242B;" d="M424.42,226.65c22.526,0,40.851-18.325,40.851-40.851s-18.325-40.851-40.851-40.851
		c-22.526,0-40.851,18.325-40.851,40.851S401.894,226.65,424.42,226.65z M424.42,161.289c13.516,0,24.511,10.995,24.511,24.511
		s-10.995,24.511-24.511,24.511c-13.516,0-24.511-10.995-24.511-24.511S410.904,161.289,424.42,161.289z"/>
	<path style="fill:#03242B;" d="M470.298,308.802c-1.242-1.95-3.252-3.282-5.532-3.668c-11.703-1.975-22.543-9.576-29.74-20.85
		c-1.5-2.352-4.097-3.775-6.887-3.775c-2.79,0-5.386,1.423-6.887,3.775c-8.684,13.605-21.867,21.408-36.167,21.408
		c-14.259,0-27.427-7.805-36.125-21.413c-1.501-2.348-4.095-3.768-6.88-3.769c-2.789,0-5.381,1.419-6.884,3.765
		c-7.02,10.964-16.94,18.154-27.987,20.539l0.004-74.477c0-2.312-0.979-4.515-2.695-6.064l-9.103-8.219v-29.291
		c0-4.512-3.658-8.17-8.17-8.17h-45.8v-16.34h15.769c2.705,0,5.235-1.339,6.756-3.576c1.521-2.238,1.837-5.082,0.841-7.598
		l-23.939-60.558c-1.232-3.118-4.244-5.167-7.598-5.167c-3.353,0-6.365,2.048-7.598,5.167l-11.969,30.279
		c-1.659,4.196,0.398,8.943,4.594,10.602c4.197,1.659,8.943-0.399,10.602-4.594l4.372-11.058l11.923,30.162h-11.922
		c-4.512,0-8.17,3.658-8.17,8.17v24.511h-42.739v-16.34h15.769c2.705,0,5.235-1.339,6.756-3.576
		c1.521-2.238,1.837-5.082,0.841-7.598l-23.939-60.558c-1.232-3.118-4.244-5.167-7.598-5.167c-3.353,0-6.365,2.048-7.598,5.167
		l-11.969,30.279c-1.659,4.196,0.398,8.943,4.594,10.602c4.198,1.659,8.943-0.399,10.602-4.594l4.372-11.058l11.923,30.162h-11.923
		c-4.512,0-8.17,3.658-8.17,8.17v24.511h-42.739v-16.34h15.769c2.705,0,5.235-1.339,6.756-3.576
		c1.521-2.238,1.837-5.082,0.841-7.598l-23.939-60.558c-1.232-3.118-4.244-5.167-7.598-5.167s-6.365,2.048-7.598,5.167
		l-23.939,60.558c-0.995,2.516-0.68,5.361,0.841,7.598c1.521,2.238,4.051,3.576,6.756,3.576h15.769v16.34H52.277
		c-3.497,0-6.605,2.224-7.733,5.535C36.673,207.226,32.681,231.409,32.681,256c0,20.05,2.73,39.779,7.924,58.723
		c0.078,0.411,0.187,0.807,0.324,1.191c13.707,48.934,43.945,92.519,86.478,122.575c1.433,1.012,3.077,1.498,4.708,1.498
		c2.563,0,5.087-1.203,6.679-3.455c2.605-3.684,1.728-8.784-1.958-11.387c-37.27-26.337-64.342-63.881-77.93-106.216
		c9.353-3.271,17.955-9.06,24.983-16.819c11.431,12.635,26.89,19.923,43.025,19.923c16.131,0,31.593-7.289,43.034-19.927
		c11.432,12.637,26.891,19.927,43.029,19.927c16.153,0,31.617-7.287,43.042-19.919c11.431,12.631,26.887,19.918,43.02,19.919
		c16.132,0,31.595-7.289,43.035-19.926c11.43,12.635,26.884,19.926,43.013,19.926c16.161,0,31.631-7.288,43.057-19.92
		c7.038,7.771,15.654,13.576,25.023,16.846c-27.247,85.21-107.157,144.02-197.168,144.02c-32.367,0-63.381-7.295-92.181-21.684
		c-4.039-2.016-8.944-0.379-10.961,3.657c-2.016,4.037-0.379,8.944,3.657,10.961c31.089,15.531,64.56,23.406,99.485,23.406
		c100.105,0,188.632-67.421,215.282-163.953C471.897,313.137,471.539,310.752,470.298,308.802z M115.116,115.747l11.923,30.162
		h-23.846L115.116,115.747z M262.899,284.28c-1.501-2.349-4.096-3.769-6.884-3.769c-2.791,0.001-5.386,1.424-6.887,3.775
		c-8.684,13.605-21.861,21.408-36.152,21.408c-14.268,0-27.441-7.805-36.141-21.413c-1.5-2.348-4.094-3.768-6.88-3.769
		c-2.788,0-5.381,1.419-6.884,3.765c-7.02,10.964-16.938,18.154-27.987,20.539v-85.372c0-4.512-3.658-8.17-8.17-8.17
		s-8.17,3.658-8.17,8.17v85.372c-11.048-2.383-20.963-9.571-27.969-20.534c-1.501-2.349-4.097-3.769-6.884-3.769
		c-2.791,0.001-5.386,1.424-6.887,3.774c-5.678,8.895-13.63,15.487-22.483,18.848c-3.605-15.308-5.5-31.109-5.5-47.133
		c0-20.837,3.091-41.352,9.192-61.07h56.895c0.015,0,59.083,0,59.083,0c0.01,0,18.818,0,18.818,0v44.729
		c0,2.312,0.979,4.515,2.695,6.064l9.103,8.219V272.1c0,4.512,3.658,8.17,8.17,8.17c4.512,0,8.17-3.658,8.17-8.17v-21.787
		c0-2.312-0.979-4.515-2.695-6.064l-9.104-8.219v-41.097h23.925c0.004,0,13.121,0,13.121,0v33.594c0,4.512,3.658,8.17,8.17,8.17
		c4.512,0,8.17-3.658,8.17-8.17v-33.594h16.34v24.751c0,2.312,0.979,4.515,2.695,6.063l9.103,8.219l-0.004,70.849
		C279.82,302.431,269.907,295.243,262.899,284.28z"/>
</g>
<g>
</g>
<g>
</g>
<g>
</g>
<g>
</g>
<g>
</g>
<g>
</g>
<g>
</g>
<g>
</g>
<g>
</g>
<g>
</g>
<g>
</g>
<g>
</g>
<g>
</g>
<g>
</g>
<g>
</g>
</svg>
