<?xml version="1.0" encoding="iso-8859-1"?>
<!-- Generator: Adobe Illustrator 19.0.0, SVG Export Plug-In . SVG Version: 6.00 Build 0)  -->
<svg version="1.1" id="Layer_1" xmlns="http://www.w3.org/2000/svg" xmlns:xlink="http://www.w3.org/1999/xlink" x="0px" y="0px"
	 viewBox="0 0 512 512" style="enable-background:new 0 0 512 512;" xml:space="preserve">
<circle style="fill:#89EBFF;" cx="256" cy="256" r="247.83"/>
<polygon style="fill:#557714;" points="89.875,119.446 41.277,242.383 138.472,242.383 "/>
<path style="fill:#2DB8D4;" d="M47.152,307.745C70.393,401.491,155.214,471.149,256,471.149s185.607-69.658,208.848-163.404
	L256,296.851L47.152,307.745z"/>
<path style="fill:#557714;" d="M464.854,307.745c2.619-10.607,4.465-21.519,5.446-32.681H41.702
	c0.98,11.162,2.827,22.074,5.446,32.681H464.854z"/>
<polygon style="fill:#405A0F;" points="200.624,119.446 152.028,242.383 249.222,242.383 "/>
<polygon style="fill:#557714;" points="311.376,119.446 262.778,242.383 359.972,242.383 "/>
<polygon style="fill:#405A0F;" points="422.125,119.446 373.528,242.383 470.723,242.383 "/>
<circle style="fill:#FFD170;" cx="256" cy="73.532" r="32.681"/>
<g>
	<path style="fill:#03242B;" d="M437.019,74.981C388.668,26.628,324.38,0,256,0S123.332,26.628,74.981,74.981
		C26.628,123.332,0,187.62,0,256s26.628,132.668,74.981,181.019C123.332,485.372,187.62,512,256,512s132.668-26.628,181.019-74.981
		C485.372,388.668,512,324.38,512,256S485.372,123.332,437.019,74.981z M256,495.66c-132.149,0-239.66-107.51-239.66-239.66
		S123.851,16.34,256,16.34S495.66,123.851,495.66,256S388.149,495.66,256,495.66z"/>
	<path style="fill:#03242B;" d="M425.896,340.426c0-4.512-3.658-8.17-8.17-8.17H192.318c-4.512,0-8.17,3.658-8.17,8.17
		c0,4.512,3.658,8.17,8.17,8.17h225.407C422.238,348.596,425.896,344.938,425.896,340.426z"/>
	<path style="fill:#03242B;" d="M167.807,340.426c0-4.512-3.658-8.17-8.17-8.17H94.276c-4.512,0-8.17,3.658-8.17,8.17
		c0,4.512,3.658,8.17,8.17,8.17h65.362C164.149,348.596,167.807,344.938,167.807,340.426z"/>
	<path style="fill:#03242B;" d="M116.183,381.277H307.91c4.512,0,8.17-3.658,8.17-8.17c0-4.512-3.658-8.17-8.17-8.17H116.183
		c-4.512,0-8.17,3.658-8.17,8.17C108.012,377.618,111.67,381.277,116.183,381.277z"/>
	<path style="fill:#03242B;" d="M230.441,397.617c-4.512,0-8.17,3.658-8.17,8.17c0,4.512,3.658,8.17,8.17,8.17h129.634
		c4.512,0,8.17-3.658,8.17-8.17c0-4.512-3.658-8.17-8.17-8.17H230.441z"/>
	<path style="fill:#03242B;" d="M464.848,299.574H47.152c-2.513,0-4.887,1.157-6.435,3.136c-1.548,1.979-2.1,4.562-1.495,7.001
		c12.682,51.131,43.354,96.394,86.367,127.45c3.659,2.642,8.766,1.817,11.407-1.841c2.642-3.658,1.817-8.765-1.841-11.407
		c-37.015-26.726-64.17-64.783-77.28-107.999h396.26C427.852,403.02,347.83,462.979,256,462.979
		c-33.077,0-64.714-7.619-94.032-22.643c-4.015-2.059-8.94-0.471-10.997,3.545c-2.058,4.015-0.472,8.939,3.545,10.997
		c31.646,16.218,65.79,24.442,101.484,24.442c50.832,0,98.752-16.708,138.582-48.318c38.636-30.662,66.406-73.738,78.197-121.291
		c0.605-2.439,0.053-5.021-1.496-7C469.735,300.731,467.361,299.574,464.848,299.574z"/>
	<path style="fill:#03242B;" d="M470.31,266.894h-40.014v-16.34h40.427c2.705,0,5.235-1.339,6.756-3.576
		c1.521-2.238,1.837-5.082,0.841-7.598l-48.598-122.937c-1.232-3.118-4.245-5.167-7.598-5.167s-6.365,2.048-7.598,5.167
		l-37.804,95.634c-1.659,4.196,0.398,8.943,4.594,10.602c4.197,1.66,8.943-0.398,10.602-4.594l30.207-76.413l36.584,92.542h-63.594
		c-4.512,0-8.17,3.658-8.17,8.17c0,4.512,3.658,8.17,8.17,8.17h18.841v16.34h-94.411v-16.34h40.427c2.705,0,5.235-1.339,6.756-3.576
		s1.837-5.082,0.841-7.598l-48.598-122.937c-1.232-3.118-4.245-5.167-7.598-5.167s-6.365,2.048-7.598,5.167l-37.804,95.634
		c-1.659,4.196,0.398,8.943,4.594,10.602c4.197,1.66,8.943-0.398,10.602-4.594l30.207-76.413l36.584,92.542h-63.594
		c-4.512,0-8.17,3.658-8.17,8.17c0,4.512,3.658,8.17,8.17,8.17h18.841v16.34h-94.41v-16.34h40.427c2.705,0,5.235-1.339,6.756-3.576
		c1.521-2.238,1.837-5.082,0.841-7.598l-48.598-122.937c-1.232-3.118-4.245-5.167-7.598-5.167s-6.365,2.048-7.598,5.167
		l-37.804,95.634c-1.659,4.196,0.398,8.943,4.594,10.602c4.196,1.66,8.943-0.398,10.602-4.594l30.207-76.413l36.584,92.542h-63.594
		c-4.512,0-8.17,3.658-8.17,8.17c0,4.512,3.658,8.17,8.17,8.17h18.841v16.34h-94.41v-16.34h40.427c2.705,0,5.235-1.339,6.756-3.576
		c1.521-2.238,1.837-5.082,0.841-7.598L97.473,116.443c-1.232-3.118-4.245-5.167-7.598-5.167s-6.365,2.048-7.598,5.167L33.68,239.38
		c-0.995,2.516-0.68,5.361,0.841,7.598c1.521,2.238,4.051,3.576,6.756,3.576h40.427v16.34H41.689c-4.512,0-8.17,3.658-8.17,8.17
		c0,4.512,3.658,8.17,8.17,8.17H470.31c4.512,0,8.17-3.658,8.17-8.17C478.48,270.553,474.823,266.894,470.31,266.894z
		 M89.875,141.67l36.582,92.542H53.292L89.875,141.67z"/>
	<path style="fill:#03242B;" d="M256,114.383c22.526,0,40.851-18.325,40.851-40.851S278.526,32.681,256,32.681
		c-22.526,0-40.851,18.325-40.851,40.851S233.474,114.383,256,114.383z M256,49.021c13.516,0,24.511,10.995,24.511,24.511
		S269.516,98.043,256,98.043s-24.511-10.995-24.511-24.511S242.484,49.021,256,49.021z"/>
</g>
<g>
</g>
<g>
</g>
<g>
</g>
<g>
</g>
<g>
</g>
<g>
</g>
<g>
</g>
<g>
</g>
<g>
</g>
<g>
</g>
<g>
</g>
<g>
</g>
<g>
</g>
<g>
</g>
<g>
</g>
</svg>
