<?xml version="1.0" encoding="iso-8859-1"?>
<!-- Generator: Adobe Illustrator 19.0.0, SVG Export Plug-In . SVG Version: 6.00 Build 0)  -->
<svg version="1.1" id="Layer_1" xmlns="http://www.w3.org/2000/svg" xmlns:xlink="http://www.w3.org/1999/xlink" x="0px" y="0px"
	 viewBox="0 0 512 512" style="enable-background:new 0 0 512 512;" xml:space="preserve">
<circle style="fill:#096C80;" cx="256" cy="256" r="247.83"/>
<g>
	<path style="fill:#064855;" d="M386.561,281.13h-2.949c0.492,0.015,0.979,0.052,1.474,0.052S386.069,281.146,386.561,281.13z"/>
	<path style="fill:#064855;" d="M128.388,281.13h-2.949c0.492,0.015,0.979,0.052,1.475,0.052S127.897,281.146,128.388,281.13z"/>
	<path style="fill:#064855;" d="M428.14,256c-9.497,14.809-24.527,24.592-41.579,25.13c-0.49,0.015-0.978,0.052-1.474,0.052
		s-0.984-0.036-1.475-0.052c-17.051-0.538-32.066-10.322-41.534-25.13c-9.497,14.809-24.528,24.592-41.579,25.13
		c-0.477,0.015-0.964,0.052-1.46,0.052c-0.51,0-0.998-0.036-1.49-0.052c-17.051-0.538-32.066-10.322-41.534-25.13
		c-9.497,14.809-24.513,24.592-41.578,25.13c-0.478,0.015-0.965,0.052-1.461,0.052c-0.51,0-0.998-0.036-1.49-0.052
		c-17.037-0.538-32.068-10.322-41.534-25.13c-9.497,14.809-24.513,24.592-41.565,25.13c-0.491,0.015-0.978,0.052-1.474,0.052
		c-0.497,0-0.985-0.036-1.477-0.052c-17.05-0.538-32.081-10.322-41.547-25.13c-9.483,14.809-24.513,24.591-41.563,25.13
		c8.772,75.047,56.312,138.421,122,169.492c0-0.01,184.409-0.516,184.409-0.516c65.135-31.249,112.214-94.335,120.937-168.975
		C452.622,280.591,437.593,270.809,428.14,256z"/>
	<path style="fill:#064855;" d="M300.498,281.13h-2.936c0.49,0.015,0.975,0.051,1.468,0.051S300.009,281.146,300.498,281.13z"/>
	<path style="fill:#064855;" d="M214.438,281.13h-2.936c0.489,0.015,0.975,0.051,1.467,0.051S213.947,281.146,214.438,281.13z"/>
</g>
<polygon style="fill:#FFFFFF;" points="288.681,69.719 256,53.379 223.319,69.719 223.319,107.847 256,129.634 288.681,107.847 "/>
<rect x="223.319" y="107.847" style="fill:#FFD170;" width="65.362" height="54.468"/>
<g>
	<polygon style="fill:#FFFFFF;" points="299.574,140.528 212.426,140.528 209.009,208.158 256,229.946 302.991,208.158 	"/>
	<polyline style="fill:#FFFFFF;" points="201.162,363.518 310.838,363.518 306.407,275.79 256,254.003 205.593,275.79 	"/>
</g>
<polygon style="fill:#FF7066;" points="302.991,208.158 209.009,208.158 205.593,275.79 306.407,275.79 "/>
<path style="fill:#FFD170;" d="M256,471.149c33.221,0,64.681-7.535,92.772-20.981l-0.035-0.054l-5.843-106.693H170.046
	l-5.719,107.191v0.07C192.139,463.801,223.209,471.149,256,471.149z"/>
<g>
	
		<line style="fill:none;stroke:#FFE1A0;stroke-width:15;stroke-linecap:round;stroke-linejoin:round;stroke-miterlimit:10;" x1="179.745" y1="107.847" x2="147.064" y2="107.847"/>
	
		<line style="fill:none;stroke:#FFE1A0;stroke-width:15;stroke-linecap:round;stroke-linejoin:round;stroke-miterlimit:10;" x1="179.745" y1="139.438" x2="155.354" y2="149.537"/>
	
		<line style="fill:none;stroke:#FFE1A0;stroke-width:15;stroke-linecap:round;stroke-linejoin:round;stroke-miterlimit:10;" x1="179.745" y1="76.255" x2="155.354" y2="66.159"/>
	
		<line style="fill:none;stroke:#FFE1A0;stroke-width:15;stroke-linecap:round;stroke-linejoin:round;stroke-miterlimit:10;" x1="332.255" y1="107.847" x2="364.936" y2="107.847"/>
	
		<line style="fill:none;stroke:#FFE1A0;stroke-width:15;stroke-linecap:round;stroke-linejoin:round;stroke-miterlimit:10;" x1="332.255" y1="139.438" x2="356.646" y2="149.537"/>
	
		<line style="fill:none;stroke:#FFE1A0;stroke-width:15;stroke-linecap:round;stroke-linejoin:round;stroke-miterlimit:10;" x1="332.255" y1="76.255" x2="356.646" y2="66.159"/>
</g>
<g>
	<path style="fill:#03242B;" d="M437.019,74.981C388.667,26.628,324.38,0,256,0S123.332,26.628,74.981,74.981
		C26.628,123.333,0,187.62,0,256s26.628,132.667,74.981,181.019C123.332,485.372,187.62,512,256,512s132.667-26.628,181.019-74.981
		S512,324.38,512,256S485.372,123.333,437.019,74.981z M256,495.66c-132.149,0-239.66-107.51-239.66-239.66S123.851,16.34,256,16.34
		S495.66,123.851,495.66,256S388.149,495.66,256,495.66z"/>
	<path style="fill:#03242B;" d="M475.861,275.797c-1.493-1.733-3.644-2.759-5.929-2.832c-13.796-0.436-26.518-8.223-34.904-21.36
		c-1.501-2.351-4.098-3.775-6.887-3.775c-2.789,0-5.386,1.424-6.886,3.774c-8.687,13.605-21.868,21.408-36.167,21.408
		c-14.26,0-27.428-7.804-36.125-21.411c-1.501-2.348-4.095-3.769-6.88-3.77c-2.789,0-5.381,1.419-6.884,3.764
		c-0.954,1.491-2.031,2.99-3.198,4.457c-2.812,3.528-2.23,8.669,1.3,11.481c2.385,1.899,5.506,2.25,8.144,1.19
		c11.488,13.069,27.217,20.631,43.644,20.631c16.151,0,31.611-7.278,43.035-19.896c8.867,9.875,20.068,16.407,32.322,18.822
		c-6.584,41.589-26.153,80.881-55.632,111.408c-3.134,3.245-3.044,8.419,0.203,11.553c1.586,1.531,3.631,2.292,5.674,2.292
		c2.139,0,4.276-0.836,5.878-2.495c33.857-35.061,55.599-80.859,61.22-128.959C478.054,279.807,477.355,277.529,475.861,275.797z"/>
	<path style="fill:#03242B;" d="M381.323,420.598c-8.045,6.142-16.436,11.639-25.119,16.481l-5.153-94.105
		c-0.237-4.332-3.82-7.724-8.158-7.724h-25.303l-9.857-195.135c-0.219-4.347-3.807-7.758-8.159-7.758h-2.723v-16.34h2.723
		c4.513,0,8.17-3.657,8.17-8.17c0-4.513-3.657-8.17-8.17-8.17h-2.723V82.868c0.891,0.317,1.809,0.471,2.717,0.471
		c2.997,0,5.883-1.656,7.314-4.518c2.019-4.036,0.382-8.944-3.654-10.962l-43.574-21.787c-2.3-1.151-5.008-1.151-7.307,0
		l-43.574,21.787c-4.036,2.019-5.672,6.925-3.654,10.962c1.865,3.73,6.197,5.403,10.031,4.042v16.814h-2.724
		c-4.512,0-8.17,3.657-8.17,8.17c0,4.513,3.658,8.17,8.17,8.17h2.723v16.34h-2.723c-4.352,0-7.94,3.412-8.159,7.758l-9.857,195.135
		h-24.364c-4.343,0-7.927,3.398-8.158,7.736l-5.054,94.717c-54.942-30.014-95.083-84.297-105.285-149.42
		c12.272-2.415,23.488-8.949,32.362-18.829c11.428,12.619,26.878,19.899,43.004,19.899c16.436,0,32.178-7.567,43.679-20.647
		c2.629,1.04,5.727,0.691,8.101-1.196c3.534-2.806,4.123-7.946,1.316-11.48c-1.158-1.459-2.227-2.949-3.174-4.43
		c-1.501-2.348-4.095-3.768-6.88-3.769c-2.788,0-5.381,1.419-6.884,3.765c-8.715,13.61-21.893,21.417-36.157,21.417
		c-14.268,0-27.44-7.804-36.14-21.413c-1.501-2.348-4.097-3.769-6.884-3.769c-2.791,0.001-5.386,1.424-6.887,3.775
		c-8.387,13.138-21.121,20.923-34.936,21.36c-2.285,0.072-4.437,1.099-5.929,2.832c-1.494,1.732-2.192,4.011-1.927,6.283
		c6.303,53.929,32.185,103.722,72.88,140.206c16.133,14.465,34.107,26.36,53.317,35.486c0.269,0.148,0.547,0.281,0.834,0.399
		c29.411,13.82,61.698,21.146,94.756,21.146c49.284,0,96.049-15.815,135.239-45.734c3.587-2.738,4.275-7.865,1.536-11.451
		C390.037,418.547,384.91,417.856,381.323,420.598z M220.194,148.698h71.612l2.59,51.29h-76.795L220.194,148.698z M231.489,74.768
		L256,62.513l24.511,12.255v24.908h-49.021V74.768z M231.489,116.017h49.021v16.34h-49.021V116.017z M213.36,283.96l60.366,0.001
		c4.512,0,8.17-3.658,8.17-8.17c0-4.512-3.657-8.17-8.17-8.17l-59.54-0.001l2.591-51.29h78.446l6.008,118.922H210.77L213.36,283.96z
		 M172.779,445.542l5.013-93.951H335.16l5.118,93.477c-26.28,11.792-54.791,17.91-84.277,17.91
		C226.506,462.979,198.329,456.768,172.779,445.542z"/>
	<circle style="fill:#03242B;" cx="250.008" cy="425.396" r="8.17"/>
	<circle style="fill:#03242B;" cx="217.328" cy="392.715" r="8.17"/>
</g>
<g>
</g>
<g>
</g>
<g>
</g>
<g>
</g>
<g>
</g>
<g>
</g>
<g>
</g>
<g>
</g>
<g>
</g>
<g>
</g>
<g>
</g>
<g>
</g>
<g>
</g>
<g>
</g>
<g>
</g>
</svg>
