<?xml version="1.0" encoding="iso-8859-1"?>
<!-- Generator: Adobe Illustrator 19.0.0, SVG Export Plug-In . SVG Version: 6.00 Build 0)  -->
<svg version="1.1" id="Layer_1" xmlns="http://www.w3.org/2000/svg" xmlns:xlink="http://www.w3.org/1999/xlink" x="0px" y="0px"
	 viewBox="0 0 512 512" style="enable-background:new 0 0 512 512;" xml:space="preserve">
<circle style="fill:#4DE1FF;" cx="256" cy="256" r="247.83"/>
<path style="fill:#7FB21E;" d="M353.309,188.652l-56.305,75.736l-65.242,113.003l95.605,81.637
	c56.841-19.983,102.756-63.164,126.392-118.179l-44.145-76.46L353.309,188.652z"/>
<path style="fill:#9FC657;" d="M158.691,188.652l-56.305,75.736l-44.144,76.46C91.163,417.478,167.31,471.149,256,471.149
	c25.017,0,49.029-4.284,71.363-12.134L214.994,264.389L158.691,188.652z"/>
<g>
	<path style="fill:#FFFFFF;" d="M369.896,129.634c0-26.015-21.09-47.105-47.105-47.105c-3.9,0-7.688,0.477-11.312,1.37
		C305.16,59.151,282.718,40.851,256,40.851s-49.16,18.3-55.479,43.048c-3.624-0.893-7.412-1.37-11.312-1.37
		c-26.015,0-47.105,21.09-47.105,47.105H369.896z"/>
	<path style="fill:#FFFFFF;" d="M353.309,166.865l56.305,97.523l-28.165,20.838l-28.136-20.818l-28.14,20.818l-28.168-20.838
		C328.185,210.381,353.309,166.865,353.309,166.865z"/>
	<path style="fill:#FFFFFF;" d="M158.691,166.865l-56.305,97.523l28.165,20.838l28.136-20.818l28.14,20.818l28.168-20.838
		C183.815,210.381,158.691,166.865,158.691,166.865z"/>
</g>
<g>
	<path style="fill:#03242B;" d="M142.104,137.804h227.792c4.512,0,8.17-3.658,8.17-8.17c0-30.479-24.796-55.275-55.275-55.275
		c-1.903,0-3.803,0.098-5.692,0.292c-9.584-25.049-33.728-41.97-61.099-41.97s-51.515,16.921-61.099,41.97
		c-1.889-0.194-3.79-0.292-5.692-0.292c-30.479,0-55.275,24.796-55.275,55.275C133.934,134.146,137.592,137.804,142.104,137.804z
		 M189.208,90.699c3.159,0,6.307,0.381,9.357,1.133c4.353,1.075,8.763-1.565,9.872-5.911c5.548-21.726,25.108-36.9,47.564-36.9
		s42.016,15.174,47.564,36.9c1.11,4.348,5.522,6.988,9.872,5.911c3.049-0.752,6.197-1.133,9.357-1.133
		c18.667,0,34.308,13.205,38.072,30.765H151.136C154.901,103.904,170.542,90.699,189.208,90.699z"/>
	<path style="fill:#03242B;" d="M437.019,74.981C388.668,26.628,324.38,0,256,0S123.332,26.628,74.981,74.981
		C26.628,123.332,0,187.62,0,256s26.628,132.668,74.981,181.019C123.332,485.372,187.62,512,256,512s132.668-26.628,181.019-74.981
		C485.372,388.668,512,324.38,512,256S485.372,123.332,437.019,74.981z M256,495.66c-132.149,0-239.66-107.51-239.66-239.66
		S123.851,16.34,256,16.34S495.66,123.851,495.66,256S388.149,495.66,256,495.66z"/>
	<circle style="fill:#03242B;" cx="164.439" cy="400.155" r="8.17"/>
	<circle style="fill:#03242B;" cx="144.831" cy="367.474" r="8.17"/>
	<circle style="fill:#03242B;" cx="381.451" cy="328.802" r="8.17"/>
	<path style="fill:#03242B;" d="M460.809,336.706L360.385,162.78c-1.46-2.528-4.157-4.085-7.075-4.085
		c-2.919,0-5.616,1.558-7.075,4.085l-78.441,135.864c-2.256,3.908-0.917,8.904,2.99,11.161c3.905,2.256,8.904,0.917,11.161-2.99
		l17.559-30.414l20.807,15.394c2.888,2.136,6.831,2.136,9.719,0l23.277-17.223l23.281,17.223c1.443,1.068,3.152,1.602,4.859,1.602
		c1.707,0,3.415-0.534,4.859-1.602l20.813-15.397l37.464,64.887c-8.11,17.863-18.728,34.486-31.6,49.459
		c-2.941,3.422-2.552,8.58,0.869,11.522c1.543,1.326,3.437,1.975,5.323,1.975c2.299,0,4.584-0.965,6.2-2.844
		c14.843-17.267,26.908-36.57,35.863-57.373C462.258,341.652,462.098,338.941,460.809,336.706z M381.447,275.064l-23.282-17.223
		c-2.887-2.136-6.831-2.136-9.718,0l-23.276,17.223l-17.443-12.906l45.583-78.953l45.585,78.95L381.447,275.064z"/>
	<path style="fill:#03242B;" d="M390.741,412.979c-37.509,32.243-85.36,50-134.741,50c-81.41,0-154.986-47.626-188.584-121.694
		l37.465-64.886l20.81,15.396c2.888,2.136,6.831,2.136,9.719,0l23.277-17.223l23.281,17.223c1.443,1.068,3.152,1.602,4.859,1.602
		c1.708,0,3.415-0.534,4.859-1.602l20.809-15.395l91.095,157.78c2.256,3.908,7.253,5.247,11.161,2.99
		c3.908-2.256,5.246-7.253,2.99-11.16L165.766,162.78c-1.46-2.527-4.156-4.085-7.075-4.085c-2.918,0-5.616,1.558-7.075,4.085
		L51.191,336.706c-1.29,2.234-1.449,4.946-0.429,7.315C86.141,426.213,166.702,479.319,256,479.319
		c53.287,0,104.922-19.159,145.393-53.948c3.422-2.941,3.812-8.1,0.869-11.522C399.32,410.428,394.163,410.039,390.741,412.979z
		 M158.691,183.206l45.583,78.953l-17.446,12.906l-23.282-17.223c-2.887-2.136-6.831-2.136-9.718,0l-23.277,17.223l-17.446-12.908
		L158.691,183.206z"/>
</g>
<g>
</g>
<g>
</g>
<g>
</g>
<g>
</g>
<g>
</g>
<g>
</g>
<g>
</g>
<g>
</g>
<g>
</g>
<g>
</g>
<g>
</g>
<g>
</g>
<g>
</g>
<g>
</g>
<g>
</g>
</svg>
