<?xml version="1.0" encoding="iso-8859-1"?>
<!-- Generator: Adobe Illustrator 19.0.0, SVG Export Plug-In . SVG Version: 6.00 Build 0)  -->
<svg version="1.1" id="Layer_1" xmlns="http://www.w3.org/2000/svg" xmlns:xlink="http://www.w3.org/1999/xlink" x="0px" y="0px"
	 viewBox="0 0 512 512" style="enable-background:new 0 0 512 512;" xml:space="preserve">
<circle style="fill:#2DB8D4;" cx="256" cy="256" r="247.83"/>
<path style="fill:#C4F5FF;" d="M298.269,221.292c-54.484,0-98.653,44.168-98.653,98.653v39.217h197.305v-39.217
	C396.922,265.461,352.754,221.292,298.269,221.292z"/>
<g>
	<path style="fill:#0C8FAA;" d="M286.09,148.062c0-17.139,13.894-31.032,31.032-31.032c2.569,0,5.064,0.315,7.452,0.903
		c4.164-16.303,18.947-28.359,36.548-28.359c17.601,0,32.386,12.056,36.549,28.359c2.388-0.588,4.883-0.903,7.452-0.903
		c17.139,0,31.032,13.894,31.032,31.032H286.09z"/>
	<path style="fill:#0C8FAA;" d="M194.877,117.03c-2.57,0-5.064,0.315-7.452,0.903c-4.164-16.303-18.948-28.359-36.549-28.359
		s-32.386,12.056-36.549,28.359c-2.388-0.588-4.883-0.903-7.452-0.903c-17.138,0-31.032,13.894-31.032,31.032h150.065
		C225.91,130.924,212.016,117.03,194.877,117.03z"/>
</g>
<circle style="fill:#FFC240;" cx="256" cy="73.532" r="32.681"/>
<path style="fill:#89EBFF;" d="M281.624,270.618c-27.243,0-49.327,22.085-49.327,49.327v39.217h98.654v-39.217
	C330.95,292.703,308.866,270.618,281.624,270.618z"/>
<path style="fill:#0C8FAA;" d="M281.623,303.299c-9.179,0-16.645,7.466-16.645,16.645v39.217h33.292v-39.217
	C298.269,310.765,290.802,303.299,281.623,303.299z"/>
<path style="fill:#FFFFFF;" d="M256,348.268c-14.092,0-14.075-6.536-28.168-6.536c-14.094,0-14.094,6.536-28.188,6.536
	s-14.094-6.536-28.188-6.536c-14.094,0-14.094,6.536-28.188,6.536c-14.095,0-14.095-6.536-28.189-6.536
	c-14.096,0-14.096,6.536-28.194,6.536c-14.096,0-14.096-6.536-28.194-6.536C91.88,417.822,167.824,471.149,256,471.149
	s164.12-53.326,197.31-129.417c-14.096,0-14.096,6.536-28.194,6.536c-14.096,0-14.096-6.536-28.194-6.536
	c-14.095,0-14.095,6.536-28.189,6.536c-14.094,0-14.094-6.536-28.188-6.536c-14.094,0-14.094,6.536-28.188,6.536
	c-14.094,0-14.094-6.536-28.188-6.536C270.075,341.732,270.092,348.268,256,348.268z"/>
<g>
	<circle style="fill:#03242B;" cx="427.574" cy="188.917" r="8.17"/>
	<circle style="fill:#03242B;" cx="84.426" cy="286.96" r="8.17"/>
	<circle style="fill:#03242B;" cx="133.447" cy="188.917" r="8.17"/>
	<circle style="fill:#03242B;" cx="84.426" cy="221.598" r="8.17"/>
	<circle style="fill:#03242B;" cx="231.489" cy="188.917" r="8.17"/>
	<circle style="fill:#03242B;" cx="182.468" cy="221.598" r="8.17"/>
	<circle style="fill:#03242B;" cx="329.532" cy="188.917" r="8.17"/>
	<circle style="fill:#03242B;" cx="427.574" cy="254.279" r="8.17"/>
	<circle style="fill:#03242B;" cx="133.447" cy="254.279" r="8.17"/>
	<path style="fill:#03242B;" d="M437.019,74.981C388.667,26.628,324.38,0,256,0S123.333,26.628,74.981,74.981
		C26.628,123.332,0,187.62,0,256s26.628,132.668,74.981,181.019C123.333,485.372,187.62,512,256,512s132.667-26.628,181.019-74.981
		C485.372,388.668,512,324.38,512,256S485.372,123.332,437.019,74.981z M256,495.66c-132.149,0-239.66-107.51-239.66-239.66
		S123.851,16.34,256,16.34S495.66,123.851,495.66,256S388.149,495.66,256,495.66z"/>
	<path style="fill:#03242B;" d="M390.736,412.975C353.231,445.22,305.381,462.979,256,462.979
		c-76.4,0-146.074-42.099-182.074-108.622c3.184,1.146,7.222,2.082,12.95,2.082c7.22,0,11.654-1.47,15.039-2.908
		c4.154-1.765,6.09-6.561,4.326-10.714c-1.765-4.154-6.562-6.088-10.715-4.325c-1.914,0.813-4.157,1.607-8.648,1.607
		c-5.244,0-7.514-1.052-10.656-2.51c-3.868-1.794-8.681-4.026-17.53-4.026c-2.755,0-5.326,1.389-6.835,3.695
		c-1.509,2.306-1.755,5.217-0.654,7.742C86.794,426.595,167.182,479.319,256,479.319c53.288,0,104.921-19.161,145.388-53.954
		c3.422-2.942,3.811-8.1,0.868-11.522C399.314,410.421,394.156,410.034,390.736,412.975z"/>
	<path style="fill:#03242B;" d="M277.92,148.062c0,4.512,3.657,8.17,8.17,8.17h150.066c4.534,0,8.192-3.658,8.192-8.17
		c0-0.228-0.009-0.453-0.026-0.675c-0.362-21.306-17.807-38.526-39.196-38.526c-0.647,0-1.293,0.016-1.938,0.048
		c-7.194-16.501-23.579-27.504-42.062-27.504s-34.869,11.004-42.062,27.504c-0.646-0.032-1.292-0.048-1.938-0.048
		C295.507,108.86,277.92,126.445,277.92,148.062z M317.122,125.2c1.856,0,3.705,0.224,5.496,0.666
		c4.35,1.074,8.763-1.564,9.873-5.911c3.34-13.078,15.114-22.211,28.633-22.211s25.293,9.133,28.633,22.211
		c1.111,4.347,5.52,6.984,9.873,5.911c1.791-0.441,3.64-0.666,5.496-0.666c9.729,0,18.058,6.108,21.354,14.691H295.769
		C299.064,131.308,307.394,125.2,317.122,125.2z"/>
	<path style="fill:#03242B;" d="M75.844,156.232h38.484c4.513,0,8.17-3.658,8.17-8.17c0-4.512-3.657-8.17-8.17-8.17H85.523
		c3.294-8.583,11.625-14.691,21.354-14.691c1.856,0,3.705,0.224,5.496,0.666c4.359,1.074,8.763-1.564,9.873-5.911
		c3.34-13.078,15.114-22.211,28.633-22.211s25.293,9.133,28.633,22.211c1.11,4.347,5.521,6.984,9.873,5.911
		c1.791-0.441,3.64-0.666,5.496-0.666c9.729,0,18.058,6.108,21.354,14.691H147.01c-4.513,0-8.17,3.658-8.17,8.17
		c0,4.512,3.657,8.17,8.17,8.17h78.901c4.513,0,8.17-3.658,8.17-8.17c0-21.616-17.587-39.202-39.202-39.202
		c-0.647,0-1.293,0.016-1.938,0.048c-7.193-16.501-23.579-27.504-42.062-27.504s-34.87,11.004-42.062,27.504
		c-0.646-0.032-1.292-0.048-1.938-0.048c-21.616,0-39.202,17.587-39.202,39.202C67.673,152.574,71.33,156.232,75.844,156.232z"/>
	<path style="fill:#03242B;" d="M256,114.383c22.526,0,40.851-18.325,40.851-40.851S278.526,32.681,256,32.681
		c-22.526,0-40.851,18.325-40.851,40.851S233.474,114.383,256,114.383z M256,49.021c13.515,0,24.511,10.995,24.511,24.511
		S269.515,98.043,256,98.043c-13.515,0-24.511-10.995-24.511-24.511S242.485,49.021,256,49.021z"/>
	<path style="fill:#03242B;" d="M460.144,337.257c-1.51-2.306-4.08-3.695-6.835-3.695c-8.85,0-13.665,2.232-17.534,4.026
		c-3.143,1.458-5.413,2.51-10.659,2.51s-7.517-1.052-10.659-2.51c-2.467-1.144-5.326-2.464-9.365-3.272v-14.371
		c0-22.387-6.853-43.824-19.82-61.991c-2.621-3.672-7.721-4.527-11.397-1.904c-3.672,2.621-4.524,7.724-1.903,11.396
		c10.978,15.381,16.779,33.535,16.779,52.499v14.372c-4.037,0.808-6.895,2.128-9.361,3.271c-3.143,1.458-5.413,2.51-10.657,2.51
		s-7.514-1.052-10.657-2.51c-3.868-1.793-8.682-4.026-17.531-4.026c-0.488,0-0.96,0.01-1.424,0.023v-13.64
		c0-31.704-25.794-57.496-57.498-57.496c-8.719,0-17.099,1.905-24.906,5.663c-4.066,1.956-5.777,6.839-3.819,10.906
		c1.956,4.067,6.841,5.775,10.905,3.819c5.58-2.685,11.576-4.046,17.821-4.046c22.695,0,41.157,18.463,41.157,41.156v17.75
		c-3.024,1.401-5.312,2.403-10.425,2.403c-2.516,0-4.344-0.244-5.916-0.657v-19.496c0-13.683-11.132-24.816-24.816-24.816
		s-24.816,11.132-24.816,24.816v20.142c-0.268,0.007-0.54,0.011-0.826,0.011c-5.243,0-7.512-1.052-10.653-2.51
		c-1.437-0.667-3.006-1.393-4.862-2.044v-15.6c0-6.245,1.362-12.241,4.046-17.821c1.958-4.065,0.247-8.948-3.819-10.905
		c-4.065-1.955-8.949-0.247-10.904,3.819c-3.757,7.807-5.663,16.188-5.663,24.906v13.761c-6.574,0.514-10.564,2.355-13.858,3.882
		c-0.866,0.402-1.668,0.771-2.482,1.098v-18.742c0-49.892,40.591-90.482,90.482-90.482c18.964,0,37.117,5.802,52.496,16.779
		c3.674,2.622,8.776,1.768,11.397-1.904c2.621-3.673,1.769-8.775-1.903-11.396c-18.167-12.966-39.603-19.82-61.99-19.82
		c-58.902,0-106.823,47.92-106.823,106.823v18.742c-0.816-0.327-1.618-0.697-2.485-1.099c-3.868-1.794-8.682-4.026-17.531-4.026
		c-8.849,0-13.663,2.232-17.53,4.026c-3.142,1.456-5.412,2.51-10.655,2.51c-4.493,0-6.737-0.794-8.648-1.607
		c-4.152-1.764-8.95,0.171-10.715,4.324c-1.765,4.154,0.17,8.95,4.324,10.715c3.384,1.438,7.817,2.909,15.041,2.909
		c8.849,0,13.663-2.232,17.53-4.026c3.142-1.456,5.412-2.51,10.655-2.51c5.244,0,7.514,1.052,10.656,2.51
		c3.868,1.793,8.681,4.026,17.53,4.026c8.848,0,13.661-2.232,17.529-4.026c3.141-1.456,5.41-2.51,10.652-2.51
		c5.243,0,7.513,1.052,10.655,2.51c3.867,1.794,8.681,4.026,17.529,4.026c8.849,0,13.663-2.232,17.53-4.026
		c3.142-1.456,5.412-2.51,10.655-2.51c5.244,0,7.514,1.052,10.657,2.51c3.868,1.793,8.682,4.026,17.531,4.026
		c8.85,0,13.664-2.232,17.532-4.026c3.143-1.458,5.413-2.51,10.657-2.51c5.244,0,7.514,1.052,10.656,2.51
		c3.868,1.794,8.682,4.026,17.532,4.026s13.664-2.232,17.532-4.026c3.143-1.458,5.413-2.51,10.657-2.51
		c5.246,0,7.517,1.052,10.659,2.51c3.869,1.793,8.684,4.026,17.534,4.026c5.725,0,9.761-0.934,12.945-2.08
		c-7.018,12.937-15.419,25.122-25.089,36.374c-2.941,3.423-2.552,8.581,0.87,11.522c1.543,1.326,3.436,1.974,5.322,1.974
		c2.299,0,4.585-0.965,6.2-2.844c14.607-16.995,26.529-35.966,35.435-56.385C461.9,342.472,461.654,339.562,460.144,337.257z
		 M273.148,335.017v-15.072c0-4.673,3.802-8.475,8.475-8.475s8.475,3.802,8.475,8.475v13.994c-1.757-0.237-3.718-0.377-5.932-0.377
		C279.533,333.561,276.013,334.176,273.148,335.017z"/>
</g>
<g>
</g>
<g>
</g>
<g>
</g>
<g>
</g>
<g>
</g>
<g>
</g>
<g>
</g>
<g>
</g>
<g>
</g>
<g>
</g>
<g>
</g>
<g>
</g>
<g>
</g>
<g>
</g>
<g>
</g>
</svg>
