<?xml version="1.0" encoding="iso-8859-1"?>
<!-- Generator: Adobe Illustrator 18.0.0, SVG Export Plug-In . SVG Version: 6.00 Build 0)  -->
<!DOCTYPE svg PUBLIC "-//W3C//DTD SVG 1.1//EN" "http://www.w3.org/Graphics/SVG/1.1/DTD/svg11.dtd">
<svg version="1.1" id="Capa_1" xmlns="http://www.w3.org/2000/svg" xmlns:xlink="http://www.w3.org/1999/xlink" x="0px" y="0px"
	 viewBox="0 0 297.5 297.5" style="enable-background:new 0 0 297.5 297.5;" xml:space="preserve">
<g>
	<g id="XMLID_25_">
		<g>
			<path style="fill:#3498DB;" d="M176.63,48.4v215.65h-29.9V48.4c0-8.25,6.7-14.95,14.95-14.95
				C169.92,33.45,176.63,40.15,176.63,48.4z M172.83,122.14c0-3.64-2.95-6.59-6.59-6.59h-9.12c-3.64,0-6.59,2.95-6.59,6.59
				s2.95,6.59,6.59,6.59h9.12C169.88,128.73,172.83,125.78,172.83,122.14z M172.83,157.11c0-3.64-2.95-6.59-6.59-6.59h-9.12
				c-3.64,0-6.59,2.95-6.59,6.59s2.95,6.59,6.59,6.59h9.12C169.88,163.7,172.83,160.75,172.83,157.11z"/>
			<path style="fill:#3498DB;" d="M260.25,48.4v215.65h-29.9V48.4c0-8.25,6.71-14.95,14.95-14.95
				C253.55,33.45,260.25,40.15,260.25,48.4z M256.45,122.14c0-3.64-2.95-6.59-6.59-6.59h-9.12c-3.64,0-6.59,2.95-6.59,6.59
				s2.95,6.59,6.59,6.59h9.12C253.5,128.73,256.45,125.78,256.45,122.14z M256.45,157.11c0-3.64-2.95-6.59-6.59-6.59h-9.12
				c-3.64,0-6.59,2.95-6.59,6.59s2.95,6.59,6.59,6.59h9.12C253.5,163.7,256.45,160.75,256.45,157.11z"/>
			<path d="M287.12,264.05c5.59,0,10.13,4.54,10.13,10.14s-4.54,10.14-10.13,10.14H10.39c-5.6,0-10.14-4.54-10.14-10.14
				s4.54-10.14,10.14-10.14h23.14V82.69c-2.08,0.61-4.27,0.93-6.54,0.93c-12.97,0-23.52-12.05-23.52-26.86
				c0-26.67,28.26-43.59,40.2-43.59c5.6,0,10.14,4.54,10.14,10.14v240.74H93V82.69c-2.08,0.61-4.27,0.93-6.54,0.93
				c-12.97,0-23.52-12.05-23.52-26.86c0-26.67,28.26-43.59,40.2-43.59c5.6,0,10.14,4.54,10.14,10.14v240.74h13.17V48.4
				c0-19.42,15.8-35.23,35.23-35.23c19.42,0,35.22,15.81,35.22,35.23v215.65h13.18V48.4c0-19.42,15.8-35.23,35.22-35.23
				c19.43,0,35.23,15.81,35.23,35.23v215.65H287.12z M260.25,264.05V48.4c0-8.25-6.7-14.95-14.95-14.95
				c-8.24,0-14.95,6.7-14.95,14.95v215.65H260.25z M176.63,264.05V48.4c0-8.25-6.71-14.95-14.95-14.95
				c-8.25,0-14.95,6.7-14.95,14.95v215.65H176.63z M93,53.92V39.23c-5.02,4.18-9.79,10.32-9.79,17.53c0,4.28,2.31,6.59,3.25,6.59
				c2.34,0,4.95-3.74,6.51-9.32C92.98,54,92.99,53.96,93,53.92z M33.53,53.92V39.23c-5.02,4.18-9.79,10.32-9.79,17.53
				c0,4.28,2.31,6.59,3.25,6.59c2.34,0,4.95-3.74,6.51-9.32C33.51,54,33.52,53.96,33.53,53.92z"/>
			<path d="M249.86,115.55c3.64,0,6.59,2.95,6.59,6.59s-2.95,6.59-6.59,6.59h-9.12c-3.64,0-6.59-2.95-6.59-6.59s2.95-6.59,6.59-6.59
				H249.86z"/>
			<path d="M249.86,150.52c3.64,0,6.59,2.95,6.59,6.59s-2.95,6.59-6.59,6.59h-9.12c-3.64,0-6.59-2.95-6.59-6.59s2.95-6.59,6.59-6.59
				H249.86z"/>
			<path d="M166.24,115.55c3.64,0,6.59,2.95,6.59,6.59s-2.95,6.59-6.59,6.59h-9.12c-3.64,0-6.59-2.95-6.59-6.59s2.95-6.59,6.59-6.59
				H166.24z"/>
			<path d="M166.24,150.52c3.64,0,6.59,2.95,6.59,6.59s-2.95,6.59-6.59,6.59h-9.12c-3.64,0-6.59-2.95-6.59-6.59s2.95-6.59,6.59-6.59
				H166.24z"/>
		</g>
		<g>
		</g>
	</g>
</g>
<g>
</g>
<g>
</g>
<g>
</g>
<g>
</g>
<g>
</g>
<g>
</g>
<g>
</g>
<g>
</g>
<g>
</g>
<g>
</g>
<g>
</g>
<g>
</g>
<g>
</g>
<g>
</g>
<g>
</g>
</svg>
