<?xml version="1.0" encoding="iso-8859-1"?>
<!-- Generator: Adobe Illustrator 19.0.0, SVG Export Plug-In . SVG Version: 6.00 Build 0)  -->
<svg version="1.1" id="Layer_1" xmlns="http://www.w3.org/2000/svg" xmlns:xlink="http://www.w3.org/1999/xlink" x="0px" y="0px"
	 viewBox="0 0 512 512" style="enable-background:new 0 0 512 512;" xml:space="preserve">
<path style="fill:#565766;" d="M347.111,324.005l-92.95-128.398l0,0c-27.349,14.089-35.733,49.225-17.693,74.145l55.91,77.231
	l-18.141,72.168l56.066,14.094l21.428-85.243C353.814,339.714,352.123,330.929,347.111,324.005z"/>
<polygon style="fill:#70BBD6;" points="398.349,159.711 344.364,104.234 311.604,97.445 190.784,197.681 257.203,280.273 "/>
<path style="fill:#F0C19C;" d="M377.602,58.857l-31.994,54.793l0.022,0.115c3.745,19.381,17.455,36.277,37.466,43.14
	c20.017,6.864,41.216,1.937,56.067-11.075l0.078-0.07l8.365-62.896L377.602,58.857z"/>
<path style="fill:#7DD2F0;" d="M437.98,31.041l-20.975-7.192c-23.979-8.223-50.082,4.549-58.304,28.527l0,0l107.806,36.97l0,0
	C474.729,65.368,461.958,39.264,437.98,31.041z"/>
<path style="fill:#70BBD6;" d="M338.506,417.425l-60.041-15.093l-8.46,33.654l87.803,22.071l1.481-5.891
	C363.144,436.834,353.838,421.28,338.506,417.425z"/>
<path style="fill:#626375;" d="M300.39,312.261l-92.95-128.398l0,0c-27.349,14.089-35.733,49.225-17.693,74.145l55.91,77.231
	l-13.913,55.348l23.651,23.828l28.187,7.086l21.428-85.243C307.093,327.969,305.402,319.184,300.39,312.261z"/>
<path style="fill:#565766;" d="M248.623,407.408l18.141-72.168l-55.91-77.231c-14.558-20.109-11.901-46.865,4.037-63.851
	l-7.452-10.293l0,0c-27.349,14.089-35.733,49.225-17.693,74.145l55.91,77.231l-13.913,55.348l51.838,30.913l1.255-4.991
	L248.623,407.408z"/>
<path style="fill:#7DD2F0;" d="M291.785,405.68l-60.041-15.093l-8.46,33.654l87.803,22.071l1.481-5.891
	C316.423,425.09,307.117,409.534,291.785,405.68z"/>
<g>
	<path style="fill:#FFD782;" d="M230.581,81.58L230.581,81.58c9.862-8.142,11.257-22.737,3.114-32.599l-4.691-5.682l-35.713,29.484
		l4.691,5.682C206.125,88.328,220.72,89.722,230.581,81.58z"/>
	<path style="fill:#FFD782;" d="M374.05,501.879L48.196,419.967c-10.321-2.594-16.585-13.065-13.99-23.386
		c2.594-10.322,13.066-16.585,23.386-13.991l325.854,81.912c15.456,3.885,31.726-3.093,39.565-16.969
		c5.235-9.267,16.996-12.538,26.255-7.301c9.267,5.235,12.536,16.989,7.301,26.255C440.219,495.429,406.286,509.982,374.05,501.879z
		"/>
	<circle style="fill:#FFD782;" cx="428.805" cy="23.633" r="15.732"/>
</g>
<g>
	<path style="fill:#5A4146;" d="M366.425,91.449c-3.583,10.448-11.369,18.257-20.818,22.202c-1.8-9.417-1.262-19.414,2.071-29.133
		l11.023-32.142l18.901,6.482L366.425,91.449z"/>
	<path style="fill:#5A4146;" d="M436.429,115.456c-3.583,10.448-2.228,21.392,2.812,30.306c7.201-6.33,12.911-14.554,16.244-24.273
		l11.023-32.142l-18.901-6.482L436.429,115.456z"/>
</g>
<path style="fill:#FFD782;" d="M470.357,78.117l-107.806-36.97c-6.2-2.127-12.952,1.177-15.079,7.378
	c-2.127,6.201,1.177,12.953,7.377,15.079l107.806,36.97c6.201,2.127,12.952-1.177,15.079-7.378
	C479.862,86.995,476.558,80.244,470.357,78.117z"/>
<path style="fill:#7DD2F0;" d="M409.733,231.249c-16.866-7.956-31.275-18.503-41.31-30.53
	c-17.736-21.257-22.411-46.296-14.294-76.551c3.792-14.134-4.593-28.665-18.726-32.458c-14.17-3.823-28.665,4.592-32.457,18.726
	c-12.554,46.793-3.982,89.753,24.788,124.232c15.776,18.906,37.415,34.713,62.664,46.058l0.084,0.037l19.358-19.858v-29.601
	L409.733,231.249z"/>
<path style="fill:#9CE5FF;" d="M409.84,231.306l-0.107-0.056c-16.866-7.956-31.275-18.503-41.31-30.53
	c-17.736-21.257-22.411-46.296-14.294-76.551c3.792-14.134-4.593-28.665-18.726-32.458c-10.771-2.905-21.726,1.264-28.029,9.638
	c2.284,0,4.607,0.292,6.921,0.916c14.134,3.792,22.518,18.324,18.726,32.458c-8.118,30.255-3.442,55.294,14.294,76.551
	c10.036,12.027,24.445,22.574,41.31,30.53l0.107,0.056c4.699,2.212,9.591,4.215,14.629,6L409.84,231.306z"/>
<path style="fill:#FFD782;" d="M436.309,241.014c-9.27-2.515-18.165-5.798-26.469-9.707l-19.358,49.46
	c10.12,4.542,20.818,8.371,31.953,11.392c0.163,0.044,0.325,0.087,0.487,0.128c13.968,3.511,28.236-4.802,32.023-18.762
	C458.775,259.4,450.432,244.845,436.309,241.014z"/>
<circle cx="383.94" cy="93.814" r="6.835"/>
<circle cx="421.766" cy="107.154" r="6.835"/>
<path d="M403.045,118.633c-0.617,0.357-3.092,0.743-6.42-0.427c-3.327-1.169-5.015-3.019-5.275-3.684
	c-1.59-4.072-6.178-6.083-10.253-4.491c-4.072,1.59-6.082,6.181-4.491,10.253c2.174,5.563,7.696,10.37,14.769,12.857
	c3.188,1.122,6.424,1.677,9.493,1.677c3.738,0,7.227-0.825,10.071-2.461c3.79-2.179,5.094-7.018,2.915-10.808
	C411.673,117.76,406.834,116.455,403.045,118.633z"/>
<path d="M476.85,72.482c-0.652-17.731-10.103-34.081-25.023-43.518c2.716-11.658-3.802-23.749-15.364-27.716
	c-11.335-3.888-24.115,1.589-29.129,12.465c-1.739-0.171-3.484-0.281-5.229-0.281c-16.05,0-31.077,7.123-41.235,19.271
	c-0.723-0.08-1.448-0.136-2.178-0.136c-8.452,0-15.972,5.373-18.715,13.371c-2.626,7.658-0.258,15.834,5.351,20.992l-5.143,14.997
	c-0.305,0.89-0.58,1.784-0.848,2.688c-0.618-0.204-1.243-0.396-1.88-0.566c-8.877-2.394-18.144-1.189-26.099,3.393
	c-3.307,1.904-6.215,4.303-8.667,7.086l-30.355,25.184L241.068,81.84c3.186-4.418,5.162-9.616,5.693-15.182
	c0.789-8.262-1.687-16.336-6.971-22.738c-3.83-4.638-9.07-12.331-15.834-6.746c0,0-11.753,9.703-11.754,9.702
	c-4.223-5.115-10.883-17.328-19.023-10.61c-7.944,6.558,7.098,20.453,6.816,20.69c-4.591,3.79-13.958,8.424-14.592,15.053
	c-0.424,4.431,3.787,8.229,6.466,11.475c8.881,10.757,24.323,14.266,36.983,8.424l31.299,37.911l-57.206,47.46
	c-14.637,7.855-25.218,21.547-29.081,37.737c-3.939,16.511-0.49,33.864,9.463,47.612l20.559,28.4
	c2.564,3.542,7.512,4.335,11.053,1.771c3.541-2.564,4.333-7.512,1.77-11.053l-20.559-28.401
	c-7.244-10.007-9.755-22.638-6.887-34.655c2.341-9.81,8.065-18.368,16.063-24.258l57.834,79.889l30.81,42.56
	c2.509,3.465,3.87,7.549,3.983,11.725c0.052,1.898-0.155,3.814-0.629,5.7l-15.27,60.747l-40.713-10.234l11.984-47.671
	c0.571-2.269,0.108-4.675-1.265-6.572l-16.451-22.725c-2.564-3.54-7.511-4.331-11.053-1.77c-3.541,2.564-4.333,7.512-1.77,11.054
	l14.287,19.734l-13.014,51.767l-6.53,25.976l-52.157-13.111c-4.243-1.065-8.54,1.508-9.607,5.747
	c-1.066,4.24,1.507,8.54,5.747,9.606l59.804,15.033c0.011,0.002,0.02,0.006,0.03,0.01l87.803,22.071
	c0.019,0.005,0.037,0.01,0.056,0.015c0,0,46.666,11.73,46.68,11.733l25.623,6.441c18.901,4.755,38.796-3.78,48.383-20.747
	c4.855-8.591,18.189-6.956,20.829,2.537c0.813,2.922,0.439,5.984-1.054,8.626c-14.599,25.849-44.907,38.843-73.694,31.608
	c0,0-325.266-81.763-325.854-81.911c-6.043-1.519-9.76-7.748-8.244-13.781c1.526-6.073,7.706-9.769,13.78-8.245l74.196,18.652
	c4.244,1.069,8.541-1.506,9.606-5.747c1.066-4.24-1.507-8.54-5.747-9.606l-74.194-18.647c-14.536-3.66-29.338,5.199-32.993,19.737
	c-3.622,14.405,5.362,29.381,19.737,32.994l325.854,81.911c6.606,1.661,13.273,2.462,19.872,2.462
	c29.048-0.001,56.72-15.531,71.466-41.636c7.274-12.878,2.539-29.79-10.295-37.039c-12.927-7.302-29.758-2.598-37.044,10.298
	c-6.091,10.781-18.733,16.203-30.742,13.185l-18.006-4.527c3.522-17.699-6.509-35.301-23.282-41.426l15.32-60.94
	c2.661-10.586,0.516-21.727-5.885-30.567l-49.633-68.561l15.797-13.493c0.65,0.813,1.297,1.626,1.968,2.43
	c3.991,4.784,8.421,9.464,13.168,13.91c3.189,2.988,8.199,2.824,11.188-0.365c2.989-3.19,2.825-8.199-0.365-11.188
	c-4.275-4.005-8.258-8.211-11.835-12.498c-10.904-13.069-19.2-28.253-23.872-44.641c-4.615-16.19-5.675-33.284-3.696-49.977
	c0.011-0.085,0.02-0.172,0.031-0.258c0.915-7.729,2.031-16.562,4.871-23.948c1.539-4.001,4.402-7.452,8.124-9.596
	c4.286-2.47,9.285-3.118,14.084-1.824c5.128,1.383,9.499,5.084,11.817,9.924c2.698,5.631,1.738,10.85,0.356,16.651
	c-0.031,0.13-0.06,0.259-0.09,0.388c-7.303,31.058-1.759,57.095,16.911,79.471c9.367,11.225,22.234,21.286,37.491,29.358
	l-8.972,22.922l-4.658,11.904c-5.667-2.843-11.171-5.959-16.431-9.3c-3.691-2.343-8.581-1.252-10.925,2.438
	c-2.344,3.69-1.254,8.581,2.437,10.926c7.854,4.99,16.206,9.51,24.847,13.448c0,0,1.09,0.493,1.107,0.5
	c10.551,4.737,21.695,8.71,33.111,11.808c0.208,0.057,0.416,0.111,0.641,0.168c2.751,0.691,5.576,1.043,8.396,1.043
	c15.487,0,29.138-10.449,33.196-25.409c4.969-18.313-5.889-37.253-24.202-42.221c-8.686-2.357-17.128-5.45-25.095-9.196
	c-0.055-0.027-0.109-0.057-0.164-0.082c-16.057-7.572-29.412-17.41-38.622-28.447c-0.848-1.015-1.654-2.043-2.434-3.079
	l28.877-24.666c0.214,0.002,0.428,0.014,0.643,0.014c19.32,0,37.153-8.572,49.236-22.647c0.042-0.05,0.084-0.099,0.127-0.149
	c8.932-10.483,12.757-23.207,17.163-36.053c7.787-0.631,14.543-5.817,17.111-13.305C488.27,86.835,484.562,77.221,476.85,72.482z
	 M215.843,78.948c-4.389,0-8.517-1.861-11.411-5.123l23.491-19.394c2.357,3.067,3.448,6.855,3.079,10.725
	c-0.387,4.053-2.329,7.712-5.468,10.303c-2.764,2.283-6.114,3.489-9.689,3.489C215.844,78.948,215.844,78.948,215.843,78.948z
	 M291.805,124.132c-0.044,0.252-0.08,0.503-0.124,0.756c-0.912,5.368-1.558,10.681-1.924,15.93l-7.343-8.895L291.805,124.132z
	 M237.48,400.177c0,0,48.877,12.119,53.699,13.564c7.113,2.132,12.554,8.585,13.952,15.806c0.114,0.588,0.472,7.211,0.12,7.123
	l-72.371-18.193L237.48,400.177z M351.975,448.415c0,0-31.335-7.876-31.332-7.886c0.988-4.973,0.894-10.159-0.209-15.121
	c-0.365-1.613-0.836-3.195-1.412-4.733l13.571,3.411c0.002,0,3.975,0.998,3.975,0.998
	C347.041,427.718,353.642,437.944,351.975,448.415z M340.69,328.631c3.648,5.038,4.872,11.391,3.354,17.426l-15.27,60.746
	l-31.368-7.885l15.27-60.748c0.665-2.647,1.03-5.328,1.103-7.999c0.22-8.014-2.188-15.939-6.988-22.57l-26.527-36.643l11.54-9.856
	L340.69,328.631z M288.047,243.493l-0.001,0.001l-17.093,14.6l-52.765-72.887l52.042-43.176l19.909,24.115
	c2.166,20.823,8.971,40.386,20.296,58.224L288.047,243.493z M447.296,271.433c-2.192,8.08-9.56,13.723-17.917,13.723
	c-1.52,0-3.046-0.191-4.518-0.56l-0.362-0.095c-8.156-2.213-16.152-4.901-23.856-8.019l13.554-34.631
	c6.482,2.655,13.19,4.928,20.03,6.783C444.115,251.318,449.977,261.545,447.296,271.433z M428.789,15.817
	c5.288-0.058,9.095,5.374,7.395,10.334c-1.371,3.998-5.915,6.233-9.929,4.858c-3.976-1.364-6.223-5.949-4.858-9.929
	C422.485,17.906,425.565,15.852,428.789,15.817z M402.104,29.264c1.258,0,2.518,0.064,3.772,0.191
	c0.131,0.013,1.047,3.076,1.154,3.328c4.403,10.401,15.997,16.391,27.005,13.862c3.28-0.754,6.407-2.193,9.086-4.236
	c0.055-0.042,0.115-0.078,0.17-0.121c8.63,5.424,14.683,14.121,16.871,23.952L377.848,38.01
	C384.573,32.423,393.114,29.264,402.104,29.264z M354.95,51.076c0.698-2.035,2.993-3.154,5.024-2.459l53.903,18.485
	c0,0,52.295,17.933,52.426,17.979c2.471,0.845,4.984,2.474,3.936,5.531c-0.698,2.035-2.993,3.154-5.024,2.459
	c0,0-18.901-6.482-18.902-6.482l-88.904-30.489C355.346,55.392,354.243,53.139,354.95,51.076z M447.988,118.903
	c-1.325,3.862-3.142,7.558-5.376,10.974c-0.052,0.078-0.103,0.156-0.155,0.234c-0.37-4.052,0.106-8.179,1.451-12.105l4.759-13.875
	l3.926,1.347L447.988,118.903z M401.576,152.07c-0.961,0-1.921-0.039-2.879-0.095c-0.026-0.002-0.052-0.01-0.078-0.011
	c-3.262-0.198-6.487-0.724-9.628-1.556c-0.141-0.038-0.284-0.078-0.425-0.117c-0.971-0.267-1.936-0.556-2.889-0.882
	c-0.008-0.003-0.016-0.005-0.024-0.007c-0.05-0.017-0.098-0.037-0.148-0.054c-0.616-0.213-1.227-0.438-1.832-0.674
	c-0.223-0.088-0.442-0.184-0.664-0.274c-0.431-0.176-0.86-0.353-1.284-0.54c-0.25-0.111-0.497-0.23-0.745-0.345
	c-0.389-0.18-0.78-0.361-1.164-0.552c-0.255-0.127-0.507-0.26-0.76-0.39c-0.37-0.192-0.74-0.385-1.105-0.586
	c-0.254-0.14-0.507-0.285-0.759-0.43c-0.357-0.205-0.71-0.412-1.062-0.625c-0.249-0.151-0.497-0.306-0.743-0.461
	c-0.348-0.221-0.693-0.444-1.036-0.673c-0.239-0.159-0.476-0.32-0.711-0.482c-0.344-0.239-0.685-0.483-1.023-0.73
	c-0.226-0.165-0.451-0.329-0.673-0.498c-0.342-0.26-0.68-0.527-1.015-0.796c-0.209-0.168-0.419-0.332-0.626-0.503
	c-0.35-0.29-0.692-0.588-1.034-0.888c-0.183-0.159-0.367-0.316-0.548-0.478c-0.384-0.346-0.759-0.703-1.131-1.062
	c-0.13-0.125-0.263-0.245-0.392-0.372c-1.001-0.984-1.959-2.011-2.874-3.08c-0.129-0.151-0.251-0.306-0.379-0.458
	c-0.321-0.384-0.641-0.77-0.95-1.164c-0.157-0.201-0.308-0.406-0.462-0.609c-0.269-0.355-0.538-0.711-0.799-1.073
	c-0.163-0.227-0.32-0.458-0.478-0.687c-0.164-0.236-0.324-0.476-0.484-0.716c0.018-0.078,0.037-0.157,0.055-0.235
	c0.294-1.266,0.606-2.526,0.937-3.764c0.179-0.669,0.331-1.339,0.47-2.009c0.04-0.195,0.074-0.389,0.11-0.585
	c0.093-0.496,0.176-0.991,0.246-1.486c0.029-0.202,0.057-0.402,0.082-0.604c0.069-0.553,0.124-1.105,0.165-1.657
	c0.009-0.123,0.023-0.247,0.032-0.37c0.043-0.677,0.068-1.351,0.071-2.024c0.001-0.153-0.005-0.305-0.007-0.458
	c-0.004-0.507-0.018-1.012-0.044-1.517c-0.013-0.243-0.03-0.484-0.048-0.726c-0.031-0.415-0.071-0.827-0.116-1.24
	c-0.03-0.267-0.056-0.534-0.092-0.799c-0.04-0.3-0.092-0.597-0.139-0.895c5.15-4.936,9.068-11.004,11.409-17.832l4.759-13.876
	l55.033,18.871l-4.758,13.875c-3.418,9.968-3.194,20.77,0.488,30.515C421.415,148.91,411.771,152.07,401.576,152.07z
	 M363.686,74.989l-4.758,13.875c-0.855,2.493-2.028,4.833-3.488,6.973c-0.06-0.075-0.129-0.142-0.189-0.217
	c-0.237-0.293-0.481-0.583-0.729-0.869c-0.06-0.07-0.123-0.136-0.184-0.206c-0.301-0.342-0.595-0.688-0.912-1.018
	c0.189-0.965,0.418-1.918,0.663-2.864c0.059-0.223,0.112-0.443,0.174-0.669c0.27-0.986,0.561-1.964,0.892-2.926l4.605-13.427
	L363.686,74.989z M380.627,164.413l-16.756,14.313c-3.53-7.985-5.403-16.526-5.626-25.694c-0.001-0.042-0.002-0.083-0.003-0.126
	c-0.013-0.54-0.014-1.085-0.014-1.63c0.765,0.687,1.548,1.353,2.345,2.003c0.218,0.178,0.445,0.347,0.666,0.522
	c0.583,0.462,1.167,0.92,1.766,1.364c0.298,0.221,0.603,0.431,0.904,0.646c0.536,0.382,1.074,0.761,1.621,1.127
	c0.334,0.223,0.67,0.438,1.008,0.655c0.531,0.341,1.065,0.675,1.606,1.001c0.355,0.213,0.71,0.422,1.069,0.629
	c0.541,0.312,1.088,0.614,1.64,0.911c0.363,0.195,0.726,0.39,1.093,0.579c0.57,0.293,1.148,0.573,1.728,0.85
	c0.356,0.17,0.709,0.343,1.068,0.507c0.636,0.289,1.282,0.561,1.929,0.831c0.31,0.129,0.617,0.266,0.93,0.39
	c0.962,0.383,1.935,0.747,2.919,1.084C380.555,164.389,380.592,164.401,380.627,164.413z"/>
<g>
</g>
<g>
</g>
<g>
</g>
<g>
</g>
<g>
</g>
<g>
</g>
<g>
</g>
<g>
</g>
<g>
</g>
<g>
</g>
<g>
</g>
<g>
</g>
<g>
</g>
<g>
</g>
<g>
</g>
</svg>
