<?xml version="1.0" encoding="UTF-8" standalone="no" ?>
<!DOCTYPE svg PUBLIC "-//W3C//DTD SVG 1.1//EN" "http://www.w3.org/Graphics/SVG/1.1/DTD/svg11.dtd">
<svg xmlns="http://www.w3.org/2000/svg" xmlns:xlink="http://www.w3.org/1999/xlink" version="1.1" width="1080" height="1080" viewBox="0 0 1080 1080" xml:space="preserve">
<desc>Created with Fabric.js 5.2.4</desc>
<defs>
</defs>
<g transform="matrix(1 0 0 1 540 540)" id="32756fea-c82d-4491-af4b-13f86362b243"  >
<rect style="stroke: none; stroke-width: 1; stroke-dasharray: none; stroke-linecap: butt; stroke-dashoffset: 0; stroke-linejoin: miter; stroke-miterlimit: 4; fill: rgb(255,255,255); fill-rule: nonzero; opacity: 1; visibility: hidden;" vector-effect="non-scaling-stroke"  x="-540" y="-540" rx="0" ry="0" width="1080" height="1080" />
</g>
<g transform="matrix(1 0 0 1 540 540)" id="202a955e-dc2f-42b2-a2c0-c05bab7ea134"  >
</g>
<g transform="matrix(9.03 0 0 9.03 528.47 530.65)" id="2ce693ac-324a-4714-a3a0-335a704442ba"  >
<path style="stroke: rgb(0,0,0); stroke-width: 11; stroke-dasharray: none; stroke-linecap: butt; stroke-dashoffset: 0; stroke-linejoin: miter; stroke-miterlimit: 4; fill: rgb(36,183,227); fill-rule: nonzero; opacity: 1;" vector-effect="non-scaling-stroke"  transform=" translate(-25, -24.08)" d="M 21.493 8.001 L 20.950999999999997 8.971 C 20.596999999999998 9.689 19.865 10 19.028 10 L 17.753999999999998 10 C 18.485 11 19.654999999999998 11.818999999999999 21.011 11.818999999999999 C 23.229 11.818999999999999 25 10.142999999999999 25 7.930999999999999 L 25 7.999999999999999 L 21.682 7.999999999999999 C 21.599 7.999999999999999 21.516 7.917999999999999 21.493 8.001 z M 19.028 9 C 19.465 9 19.852999999999998 8.848 20.031 8.472 L 20.561 7.523999999999999 C 20.762 7.0889999999999995 21.187 6.999999999999999 21.682 6.999999999999999 L 25.834999999999997 6.999999999999999 C 25.291999999999998 4.999999999999999 23.345999999999997 3.1519999999999992 21.043999999999997 3.1519999999999992 C 18.318999999999996 3.1519999999999992 16.112999999999996 5.169999999999999 16.112999999999996 7.8999999999999995 C 16.112999999999996 8.336 16.159999999999997 9 16.277999999999995 9 L 19.027999999999995 9 z M 32.684 31 C 36.382999999999996 31 46.045 29.867 48.705 27.323999999999998 C 47.507999999999996 23.647999999999996 42.789 23.354 38.458999999999996 25.226 C 37.714999999999996 25.548 36.724999999999994 25.785999999999998 35.592 25.997999999999998 L 34.707 22.571999999999996 C 35.414 22.206999999999997 35.881 21.458999999999996 35.838 20.617999999999995 C 35.793 19.469999999999995 34.83 18.572999999999993 33.682 18.619999999999994 L 33.032000000000004 16.110999999999994 C 33.67100000000001 15.628999999999994 34.007000000000005 14.815999999999994 33.817 13.986999999999993 C 33.557 12.862999999999992 32.442 12.150999999999993 31.315 12.403999999999993 C 31.315 12.403999999999993 22.154000000000003 12.485999999999994 19.281 13.256999999999993 C 16.413999999999998 14.027999999999993 15.447 18.845999999999993 15.447 18.845999999999993 L 12.927999999999999 26.999999999999993 L 0.9999999999999982 26.999999999999993 L 0.9999999999999982 30.999999999999993 L 32.684 30.999999999999993 z M 24.448999999999998 16.804000000000002 L 31.557 16.511000000000003 L 32.123 18.688000000000002 C 30.200999999999997 18.782000000000004 26.784999999999997 18.959000000000003 23.735 19.129 L 24.448999999999998 16.804000000000002 z M 22.467 23.300000000000004 L 33.191 22.818000000000005 L 34.082 26.231000000000005 C 29.705000000000002 26.860000000000007 24.03 26.950000000000006 21.346 26.961000000000006 L 22.467 23.300000000000004 z M 42.506 35.609 C 42.506 35.609 49 35.527 49 29.189 C 49 28.935 48.975 28.744 48.953 28.509 C 44.900000000000006 31.438 34.07000000000001 32 32.70100000000001 32 L 1.000000000000007 32 L 1.000000000000007 36.903999999999996 C 1.767000000000007 36.903999999999996 2.558000000000007 36.726 3.253000000000007 36.422 C 4.398000000000007 35.892999999999994 5.672000000000008 35.61 6.923000000000007 35.61 C 8.173000000000007 35.61 9.436000000000007 35.893 10.556000000000008 36.411 C 11.299000000000008 36.741 12.066000000000008 36.905 12.845000000000008 36.905 C 13.636000000000008 36.905 14.402000000000008 36.741 15.110000000000008 36.423 C 16.26600000000001 35.894 17.52800000000001 35.611000000000004 18.779000000000007 35.611000000000004 C 20.041000000000007 35.611000000000004 21.28000000000001 35.882000000000005 22.425000000000008 36.412000000000006 C 23.14400000000001 36.742000000000004 23.934000000000008 36.906000000000006 24.71400000000001 36.906000000000006 C 25.492000000000008 36.906000000000006 26.259000000000007 36.742000000000004 26.97800000000001 36.42400000000001 C 28.123000000000008 35.895 29.39800000000001 35.61200000000001 30.63600000000001 35.61200000000001 C 31.90900000000001 35.61200000000001 33.13800000000001 35.88300000000001 34.28100000000001 36.41300000000001 C 35.01300000000001 36.74300000000001 35.802000000000014 36.90700000000001 36.570000000000014 36.90700000000001 L 36.847000000000016 36.89500000000001 L 37.792000000000016 40.51800000000001 C 37.384000000000015 40.58800000000001 36.978000000000016 40.63700000000001 36.558000000000014 40.63700000000001 C 35.521000000000015 40.63700000000001 34.51700000000002 40.412000000000006 33.63200000000001 40.01200000000001 C 32.72400000000001 39.58800000000001 31.69800000000001 39.342000000000006 30.624000000000013 39.342000000000006 C 29.552000000000014 39.342000000000006 28.52400000000001 39.58800000000001 27.616000000000014 40.01200000000001 C 26.731000000000012 40.412000000000006 25.739000000000015 40.63700000000001 24.701000000000015 40.63700000000001 C 23.663000000000014 40.63700000000001 22.660000000000014 40.412000000000006 21.775000000000013 40.01200000000001 C 20.86700000000001 39.58800000000001 19.84100000000001 39.342000000000006 18.767000000000014 39.342000000000006 C 17.693000000000016 39.342000000000006 16.667000000000012 39.58800000000001 15.759000000000015 40.01200000000001 C 14.874000000000015 40.412000000000006 13.883000000000015 40.63700000000001 12.845000000000015 40.63700000000001 C 11.819000000000015 40.63700000000001 10.816000000000015 40.412000000000006 9.931000000000015 40.01200000000001 C 9.022000000000014 39.58800000000001 7.996000000000015 39.342000000000006 6.923000000000015 39.342000000000006 C 5.861000000000015 39.342000000000006 4.834000000000016 39.58800000000001 3.9260000000000153 40.01200000000001 C 3.0300000000000153 40.41000000000001 2.0380000000000154 40.635000000000005 1.000000000000015 40.635000000000005 L 1.000000000000015 45.00000000000001 C 2.0380000000000154 45.00000000000001 3.030000000000015 44.77700000000001 3.9260000000000153 44.37700000000001 C 4.834000000000016 43.95300000000001 5.861000000000015 43.70500000000001 6.923000000000015 43.70500000000001 C 7.996000000000015 43.70500000000001 9.022000000000016 43.95300000000001 9.931000000000015 44.37700000000001 C 10.816000000000015 44.77700000000001 11.819000000000015 45.00000000000001 12.845000000000015 45.00000000000001 C 13.883000000000015 45.00000000000001 14.874000000000015 44.77700000000001 15.759000000000015 44.37700000000001 C 16.667000000000016 43.95300000000001 17.694000000000013 43.70500000000001 18.767000000000014 43.70500000000001 C 19.842000000000013 43.70500000000001 20.867000000000015 43.95300000000001 21.775000000000013 44.37700000000001 C 22.660000000000014 44.77700000000001 23.66300000000001 45.00000000000001 24.701000000000015 45.00000000000001 C 25.73900000000002 45.00000000000001 26.731000000000016 44.77700000000001 27.616000000000014 44.37700000000001 C 28.524000000000015 43.95300000000001 29.552000000000014 43.70500000000001 30.624000000000013 43.70500000000001 C 31.698000000000015 43.70500000000001 32.72400000000001 43.95300000000001 33.63200000000001 44.37700000000001 C 34.51700000000001 44.77700000000001 35.521000000000015 45.00000000000001 36.558000000000014 45.00000000000001 C 37.58300000000001 45.00000000000001 38.58900000000001 44.77700000000001 39.472000000000016 44.37700000000001 C 40.38200000000001 43.95300000000001 41.408000000000015 43.70500000000001 42.48200000000001 43.70500000000001 C 43.554000000000016 43.70500000000001 44.37400000000002 43.95300000000001 45.28200000000001 44.37700000000001 C 46.16700000000001 44.77700000000001 47.000000000000014 45.00000000000001 48.000000000000014 45.00000000000001 L 48.000000000000014 40.635000000000005 C 47.000000000000014 40.635000000000005 46.167000000000016 40.410000000000004 45.28200000000001 40.010000000000005 C 44.37400000000001 39.586000000000006 43.45100000000001 39.34 42.37900000000001 39.34 C 41.305000000000014 39.34 40.33100000000001 39.586000000000006 39.421000000000014 40.010000000000005 L 39.23300000000001 40.092000000000006 L 38.33800000000001 36.61000000000001 L 38.82800000000001 36.422000000000004 C 39.97400000000001 35.893 41.25600000000001 35.609 42.50600000000001 35.609 z" stroke-linecap="round" />
</g>
</svg>