<?xml version="1.0" encoding="iso-8859-1"?>
<!-- Generator: Adobe Illustrator 19.0.0, SVG Export Plug-In . SVG Version: 6.00 Build 0)  -->
<svg version="1.1" id="Layer_1" xmlns="http://www.w3.org/2000/svg" xmlns:xlink="http://www.w3.org/1999/xlink" x="0px" y="0px"
	 viewBox="0 0 511.999 511.999" style="enable-background:new 0 0 511.999 511.999;" xml:space="preserve">
<path style="fill:#B9E578;" d="M227.804,71.718c-14.2-9.467-33.336-6.075-43.418,7.695l-61.309,83.738
	c-10.729,14.654-7.071,35.296,8.041,45.371l34,22.667l99.02-135.247L227.804,71.718z"/>
<path style="fill:#CEFF86;" d="M227.804,71.718c-14.2-9.467-33.336-6.075-43.418,7.695l-7.392,10.095
	c9.586-4.093,20.962-3.397,30.235,2.785l36.335,24.224l-82.149,112.202l3.704,2.469l99.02-135.247L227.804,71.718z"/>
<path style="fill:#F0C19C;" d="M371.283,107.279L371.283,107.279L371.283,107.279l-8.505-35.348l-9.168-24.661l-4.849,1.458
	l-0.37-4.681l0.941-0.075c-9.503-6.809-21.139-10.831-33.721-10.831c-12.549,0-24.16,3.993-33.645,10.771l-0.076,0.06l0.942,0.075
	l-0.371,4.682l-4.85-1.458l-9.168,24.661l-8.505,35.348h0.001l0.036,0.124c7.038,24.087,29.276,41.686,55.637,41.686
	c26.381,0,48.632-17.625,55.653-41.74L371.283,107.279L371.283,107.279L371.283,107.279z"/>
<path style="fill:#70BBD6;" d="M123.06,461.437l-32.109,15.888l-33.994-15.888l73.367-95.943V251.674h61.726v126.605
	c0,8.185-3.252,16.035-9.04,21.823L123.06,461.437z"/>
<polygon style="fill:#FF6465;" points="323.554,164.179 233.276,95.941 134.256,231.189 224.534,299.426 "/>
<path style="fill:#946C55;" d="M380.686,504.284c-0.551,0-1.108-0.029-1.669-0.09c-8.473-0.911-14.604-8.518-13.694-16.993
	l35.199-327.418c0.911-8.474,8.524-14.607,16.993-13.694c8.473,0.911,14.604,8.519,13.694,16.993l-35.199,327.418
	C395.16,498.414,388.469,504.284,380.686,504.284z"/>
<path style="fill:#FF6465;" d="M321.184,7.716h-11.148c-24.712,0-44.745,20.033-44.745,44.745l0,0h100.64l0,0
	C365.93,27.749,345.897,7.716,321.184,7.716z"/>
<path style="fill:#FF8080;" d="M327.441,8.16c-2.045-0.286-4.133-0.445-6.257-0.445h-11.148c-24.712,0-44.745,20.033-44.745,44.745
	l0,0h23.662l0,0C288.952,29.874,305.693,11.205,327.441,8.16z"/>
<g>
	<path style="fill:#5A4146;" d="M349.331,43.973l-0.942,0.075l2.571,32.453c1.073,13.558,9.113,24.889,20.323,30.781
		c1.488-5.133,2.301-10.552,2.301-16.164C373.585,71.68,364.01,54.491,349.331,43.973z"/>
	<path style="fill:#5A4146;" d="M257.636,91.115c0,5.612,0.814,11.032,2.301,16.164c11.21-5.892,19.249-17.223,20.322-30.78
		l2.571-32.453l-0.942-0.075C267.211,54.491,257.636,71.68,257.636,91.115z"/>
</g>
<path style="fill:#7DD2F0;" d="M365.93,40.549H265.29c-6.579,0-11.912,5.333-11.912,11.913s5.333,11.913,11.912,11.913h100.64
	c6.579,0,11.913-5.333,11.913-11.913S372.51,40.549,365.93,40.549z"/>
<path style="fill:#8CE1FF;" d="M277.039,52.461c0-6.58,5.333-11.913,11.913-11.913h-23.662c-6.579,0-11.913,5.334-11.913,11.913
	s5.333,11.913,11.913,11.913h23.662C282.373,64.374,277.039,59.04,277.039,52.461z"/>
<path style="fill:#FF8080;" d="M376.781,172.37L376.781,172.37c-10.75-2.595-21.321-6.023-31.66-10.306
	c-26.012-10.774-49.295-26.331-69.204-46.239l-15.732-15.732c-11.047-11.047-28.96-11.05-40.01,0
	c-11.048,11.048-11.049,28.961,0,40.01l15.732,15.732c25.188,25.19,54.648,44.873,87.559,58.505
	c13.722,5.684,27.768,10.182,42.058,13.515l22.695-25.366L376.781,172.37z"/>
<path style="fill:#FF9C9C;" d="M218.557,101.863c-0.389,0.46-0.764,0.926-1.119,1.404c-0.019,0.026-0.039,0.049-0.058,0.075
	c-0.371,0.504-0.718,1.022-1.052,1.543c-0.08,0.127-0.159,0.253-0.238,0.381c-0.305,0.494-0.597,0.994-0.868,1.502
	c-0.02,0.036-0.041,0.071-0.061,0.108c-0.29,0.549-0.557,1.108-0.809,1.672c-0.052,0.118-0.104,0.237-0.155,0.356
	c-0.229,0.535-0.447,1.073-0.642,1.618c-0.012,0.034-0.027,0.068-0.038,0.102c-0.209,0.591-0.395,1.188-0.564,1.789
	c-0.028,0.099-0.053,0.199-0.08,0.298c-0.155,0.578-0.296,1.159-0.415,1.745c-0.004,0.022-0.01,0.043-0.014,0.066
	c-0.126,0.627-0.226,1.258-0.31,1.89c-0.009,0.07-0.016,0.141-0.026,0.211c-0.076,0.619-0.135,1.241-0.171,1.864
	c0,0.006-0.001,0.013-0.001,0.02c-0.036,0.654-0.048,1.31-0.04,1.965c0,0.038,0.002,0.075,0.003,0.112
	c0.023,1.315,0.135,2.629,0.339,3.931c0.001,0.009,0.003,0.019,0.005,0.028c0.315,1.986,0.84,3.943,1.579,5.838
	c0,0.001,0.001,0.002,0.001,0.004c1.38-3.539,3.492-6.859,6.35-9.718c11.049-11.049,28.962-11.047,40.01,0l15.732,15.732
	c19.909,19.908,43.191,35.466,69.204,46.239c10.339,4.283,20.911,7.712,31.66,10.306l0,0c2.825,0.682,5.668,1.284,8.517,1.85
	l-8.517-22.425l0,0c-10.75-2.595-21.321-6.023-31.66-10.306c-26.012-10.774-49.295-26.331-69.204-46.239l-15.732-15.732
	c-11.047-11.047-28.96-11.05-40.01,0c-0.456,0.456-0.886,0.927-1.304,1.405C218.766,101.618,218.661,101.741,218.557,101.863z"/>
<path style="fill:#7DD2F0;" d="M426.752,178.301c-16.964,0-33.674-1.998-49.971-5.931l-11.256,55.485
	c19.986,4.661,40.456,7.03,61.226,7.03c15.625,0,28.291-12.666,28.291-28.291S442.376,178.301,426.752,178.301z"/>
<path style="fill:#8CE1FF;" d="M376.781,172.37l-3.971,19.577c1.321,0.346,2.645,0.679,3.971,0.999l0,0
	c16.296,3.933,33.006,5.931,49.971,5.931c11.993,0,22.237,7.467,26.354,18.004c0.152-0.39,0.296-0.785,0.431-1.183
	c0.006-0.019,0.012-0.036,0.019-0.055c0.129-0.381,0.249-0.764,0.361-1.151c0.013-0.045,0.026-0.091,0.039-0.136
	c0.104-0.364,0.201-0.73,0.29-1.1c0.02-0.079,0.037-0.159,0.056-0.239c0.079-0.341,0.154-0.683,0.221-1.028
	c0.024-0.121,0.043-0.245,0.066-0.367c0.056-0.309,0.11-0.619,0.155-0.932c0.026-0.174,0.044-0.35,0.067-0.526
	c0.034-0.27,0.07-0.537,0.097-0.809c0.024-0.248,0.039-0.497,0.057-0.747c0.014-0.207,0.034-0.412,0.044-0.619
	c0.023-0.464,0.035-0.929,0.035-1.398c0-15.625-12.667-28.291-28.291-28.291c-8.482,0-16.901-0.499-25.236-1.491
	C393.181,175.817,384.929,174.336,376.781,172.37L376.781,172.37z"/>
<path style="opacity:0.1;enable-background:new    ;" d="M392.684,232.707l-2.751,25.591c10.21,1.28,20.496,2.026,30.8,2.236
	l2.762-25.697C413.14,234.713,402.863,234.001,392.684,232.707z"/>
<path style="fill:#7DD2F0;" d="M277.583,321.309L147.907,212.545l0,0c-24.654,21.709-24.19,60.275,0.979,81.385l78,65.421v102.086
	l29.698,18.526l32.029-18.526V344.955C288.612,335.83,284.575,327.173,277.583,321.309z"/>
<g>
	<path style="fill:#946C55;" d="M292.989,461.437h-66.103v37.052h96.669v-6.486C323.554,475.123,309.87,461.437,292.989,461.437z"/>
	<path style="fill:#946C55;" d="M123.06,461.437H56.957v37.052h96.669v-6.486C153.626,475.123,139.941,461.437,123.06,461.437z"/>
</g>
<circle cx="295.608" cy="86.351" r="6.776"/>
<circle cx="335.617" cy="86.351" r="6.776"/>
<path d="M334.51,102.209c-3.229-2.781-8.102-2.417-10.881,0.814c-0.801,0.931-3.687,2.408-8.018,2.408
	c-4.331,0-7.217-1.477-8.018-2.409c-2.781-3.229-7.652-3.595-10.881-0.815c-3.23,2.78-3.595,7.652-0.815,10.881
	c4.19,4.868,11.56,7.774,19.715,7.774c8.154,0,15.523-2.905,19.712-7.772C338.103,109.861,337.739,104.989,334.51,102.209z"/>
<path d="M462.759,206.591c0-15.938-10.412-29.482-24.788-34.209c0.896-8.336,2.072-16.044-2.812-23.454
	c-4.243-6.437-11.554-10.646-19.311-10.646c-7.62,0-14.853,3.958-19.12,10.246c-3.891,5.734-4.089,12.417-4.805,19.071
	c-4.471-0.768-8.917-1.668-13.331-2.733c-10.392-2.508-20.66-5.851-30.519-9.935c-2.429-1.006-4.826-2.069-7.197-3.157
	c1.811,0.78,7.691-3.796,9.162-4.704c18.429-11.366,30.438-32.044,31.221-53.677c0.307-8.466-1.078-16.987-3.995-24.937
	c5.01-3.56,8.295-9.397,8.295-15.997c0-9.43-6.686-17.322-15.564-19.2C362.19,13.433,342.85,0,321.184,0h-11.148
	c-21.666,0-41.006,13.433-48.81,33.261c-8.878,1.878-15.564,9.77-15.564,19.2c0,6.601,3.285,12.437,8.295,15.997
	c-1.147,3.126-2.054,6.34-2.717,9.609l-19.155-12.77c-17.683-11.788-41.369-7.59-53.923,9.557l-13.695,18.704
	c-2.517,3.439-1.771,8.266,1.668,10.784c3.437,2.516,8.266,1.772,10.784-1.668l13.695-18.705
	c7.663-10.466,22.12-13.028,32.913-5.833l9.902,6.602c-0.013,0.002-0.026,0.006-0.039,0.009
	c-17.341,3.359-30.279,20.163-29.125,37.76l-61.748,84.338l-7.116-4.745c-5.54-3.693-9.231-9.338-10.394-15.895
	c-1.163-6.556,0.364-13.126,4.297-18.498l29.165-39.835c2.517-3.438,1.771-8.266-1.668-10.784
	c-3.438-2.516-8.266-1.772-10.784,1.668l-29.165,39.835c-6.445,8.802-8.945,19.566-7.042,30.307
	c1.903,10.74,7.951,19.99,17.028,26.041l5.557,3.706c-6.852,10.215-10.55,22.348-10.399,34.907c0.032,2.629,0.251,5.229,0.611,7.8
	V362.88l-71.781,93.868c-0.027,0.035-0.046,0.074-0.073,0.11c-0.964,1.303-1.514,2.954-1.514,4.577v37.052
	c0,4.261,3.455,7.716,7.716,7.716h96.669c4.261,0,7.716-3.455,7.716-7.716v-6.486c0-15.697-9.5-29.211-23.05-35.112l50.175-51.334
	c7.287-7.287,11.299-16.975,11.299-27.279v-31.603l19.404,16.274v98.488v37.052c0,4.261,3.455,7.716,7.716,7.716h96.669
	c4.261,0,7.716-3.455,7.716-7.716v-6.486c0-19.983-15.393-36.428-34.942-38.127V344.955c0-11.436-5.026-22.21-13.788-29.558
	l-37.258-31.25l53.37-72.894c4.266,2.215,8.589,4.335,12.983,6.335c3.879,1.765,8.453,0.052,10.219-3.826s0.052-8.453-3.826-10.219
	c-28.43-12.939-54.58-31.072-76.664-53.166c-8.14-8.14-20.622-15.88-21.669-28.488c-0.897-10.793,7.032-20.74,17.773-22.159
	c5.597-0.739,11.43,0.81,15.982,4.66c0.438,0.371,0.871,0.75,1.268,1.146c11.408,11.381,22.582,23.086,35.264,33.081
	c7.906,6.231,16.243,11.928,24.929,17.017c0.01,0.006,0.021,0.012,0.039,0.023c16.882,9.331,34.185,17.175,52.814,22.343
	l-8.199,40.422c-3.841-1.024-7.72-2.152-11.589-3.373c-4.066-1.283-8.398,0.972-9.681,5.036c-1.283,4.064,0.972,8.398,5.036,9.681
	c6.306,1.991,12.643,3.75,18.891,5.246c7.278,1.702,14.605,3.146,21.991,4.289l-26.56,247.075
	c-1.364,12.69,7.85,24.125,20.54,25.489c0.824,0.088,1.664,0.134,2.494,0.134c11.842,0,21.729-8.888,22.996-20.674l26.759-248.915
	C448.569,240.556,462.759,225.2,462.759,206.591z M320.684,141.116c-3.545-2.134-7.026-4.375-10.436-6.721
	c-0.037-0.025-0.074-0.05-0.111-0.076c-1.613-1.119-35.809-28.051-34.386-29.574c7.023-7.518,11.374-17.212,12.199-27.637
	l0.397-5.018h54.522l0.397,5.017c1.07,13.519,7.933,25.591,18.697,33.419C355.014,127.108,339.434,139.241,320.684,141.116z
	 M365.868,91.115c0,0.711-0.021,1.417-0.05,2.121c-4.103-4.799-6.65-10.822-7.166-17.347l-0.3-3.799h3.784
	C364.614,78.116,365.868,84.495,365.868,91.115z M365.931,48.264c2.315,0,4.197,1.883,4.197,4.197c0,2.315-1.883,4.197-4.197,4.197
	h-15.932H281.22H265.29c-2.315,0-4.197-1.883-4.197-4.197c0-2.315,1.883-4.197,4.197-4.197h1.616h97.407H365.931z M272.568,75.891
	c-0.383,4.834-1.906,9.437-4.384,13.474l-2.696-1.797c0.369-5.355,1.565-10.537,3.599-15.477h3.783L272.568,75.891z M310.036,15.432
	h11.148c12.962,0,24.748,6.806,31.393,17.401h-73.936C285.288,22.238,297.074,15.432,310.036,15.432z M145.877,490.773H64.673
	v-21.621h58.386l0,0C135.248,469.153,145.237,478.744,145.877,490.773z M184.335,333.732v44.546c0,6.183-2.407,11.995-6.841,16.431
	l-57.682,59.013H72.57l63.883-83.541c1.029-1.346,1.586-2.993,1.586-4.687v-71.296c0.134,0.146,0.281,0.281,0.416,0.426
	c1.716,1.844,3.54,3.599,5.471,5.217L184.335,333.732z M315.806,490.773h-81.204v-21.621h54.011h4.376
	C305.176,469.153,315.166,478.744,315.806,490.773z M280.896,344.955v108.767h-46.295v-94.371c0-2.282-1.009-4.445-2.757-5.911
	c-15.375-12.896-30.746-25.797-46.121-38.691c-20.077-16.838-47.936-31.545-48.295-61.379c-0.128-10.523,3.347-20.654,9.713-28.81
	c0.657-0.252,1.281-0.6,1.856-1.03l26.131,21.917c0,0,54.705,45.883,54.708,45.885l42.789,35.889
	C277.882,331.629,280.896,338.093,280.896,344.955z M285.047,203.712l-51.615,70.497l-75.035-62.934l6.643-9.073l45.322-61.901
	c-1.107,1.594,18.196,19.097,20.089,20.989c0.028,0.028,0.058,0.055,0.085,0.082c16.257,16.241,34.527,30.402,54.253,42.181
	C284.877,203.605,284.961,203.66,285.047,203.712z M407.225,169.641l0.971-9.033c0.452-4.208,4.221-7.307,8.497-6.846
	c4.23,0.455,7.302,4.266,6.846,8.497l-0.889,8.266c-2.309-0.043-4.615-0.124-6.921-0.248
	C412.891,170.123,410.054,169.913,407.225,169.641z M388.339,489.676c-0.423,3.929-3.712,6.892-7.652,6.892
	c-0.281,0-0.565-0.015-0.844-0.045c-4.23-0.455-7.302-4.266-6.846-8.497l26.531-246.786c0.11,0.011,0.221,0.017,0.331,0.028
	c4.961,0.497,9.936,0.807,14.915,1.043c0.053,0.002,0.106,0.006,0.158,0.009L388.339,489.676z M426.752,227.167
	c-17.494,0-35.008-1.751-52.153-5.231l8.182-40.332c-0.063,0.285,18.204,2.902,19.867,3.083c8.007,0.838,16.051,1.328,24.104,1.328
	c11.345,0,20.575,9.23,20.575,20.575C447.327,217.937,438.097,227.167,426.752,227.167z"/>
<g>
</g>
<g>
</g>
<g>
</g>
<g>
</g>
<g>
</g>
<g>
</g>
<g>
</g>
<g>
</g>
<g>
</g>
<g>
</g>
<g>
</g>
<g>
</g>
<g>
</g>
<g>
</g>
<g>
</g>
</svg>
