<?xml version="1.0" encoding="iso-8859-1"?>
<!-- Generator: Adobe Illustrator 19.0.0, SVG Export Plug-In . SVG Version: 6.00 Build 0)  -->
<svg version="1.1" id="Layer_1" xmlns="http://www.w3.org/2000/svg" xmlns:xlink="http://www.w3.org/1999/xlink" x="0px" y="0px"
	 viewBox="0 0 512 512" style="enable-background:new 0 0 512 512;" xml:space="preserve">
<circle style="fill:#C4F5FF;" cx="256" cy="256" r="247.83"/>
<g>
	<path style="fill:#FFFFFF;" d="M410.7,106.495c-7.98,6.635-13.868,15.698-16.515,26.062c-3.166-0.781-6.475-1.197-9.883-1.197
		c-22.354,0-40.532,17.826-41.126,40.037c-22.012,0.814-39.608,18.905-39.608,41.115v58.881l167.487-21.787
		C469.433,194.047,446.74,143.779,410.7,106.495z"/>
	<path style="fill:#FFFFFF;" d="M272.544,249.604c0-22.728-18.425-41.154-41.154-41.154c-3.408,0-6.717,0.417-9.883,1.197
		c-5.521-21.622-25.128-37.609-48.47-37.609s-42.949,15.987-48.47,37.609c-3.166-0.781-6.475-1.197-9.883-1.197
		c-22.728,0-41.154,18.425-41.154,41.154l99.507,21.787L272.544,249.604z"/>
</g>
<path style="fill:#4DE1FF;" d="M471.045,249.604l-430.194,0.001c-0.062,2.123,0,4.256,0,6.395
	c0,46.282,14.691,89.196,39.652,124.328l28.567,32.681c38.486,36.037,90.172,58.14,146.93,58.14
	c98.195,0,181.234-66.124,206.933-156.183l6.607-32.681c1.054-8.618,1.608-17.387,1.608-26.285
	C471.149,253.86,471.108,251.73,471.045,249.604z"/>
<rect x="310.468" y="205.192" style="fill:#064855;" width="66.647" height="87.988"/>
<rect x="201.532" y="139.83" style="fill:#096C80;" width="108.936" height="153.349"/>
<path style="fill:#557714;" d="M469.548,282.285H168.851c-18.05,0-32.681,14.631-32.681,32.681h326.798
	C465.977,304.384,468.186,293.465,469.548,282.285z"/>
<path style="fill:#7FB21E;" d="M223.319,380.328H80.503c8.41,11.837,17.994,22.781,28.567,32.681H256
	C256,394.96,241.369,380.328,223.319,380.328z"/>
<g>
	<path style="fill:#03242B;" d="M437.019,74.981C388.668,26.628,324.38,0,256,0S123.332,26.628,74.981,74.981
		C26.628,123.332,0,187.62,0,256s26.628,132.668,74.981,181.019C123.332,485.372,187.62,512,256,512s132.668-26.628,181.019-74.981
		C485.372,388.668,512,324.38,512,256S485.372,123.332,437.019,74.981z M256,495.66c-132.149,0-239.66-107.51-239.66-239.66
		S123.851,16.34,256,16.34S495.66,123.851,495.66,256S388.149,495.66,256,495.66z"/>
	<path style="fill:#03242B;" d="M256,164.342c-4.512,0-8.17,3.658-8.17,8.17v32.681c0,4.512,3.658,8.17,8.17,8.17
		s8.17-3.658,8.17-8.17v-32.681C264.17,168,260.512,164.342,256,164.342z"/>
	<path style="fill:#03242B;" d="M413.73,355.817c4.512,0,8.17-3.658,8.17-8.17c0-4.512-3.658-8.17-8.17-8.17h-21.787
		c-4.512,0-8.17,3.658-8.17,8.17c0,4.512,3.658,8.17,8.17,8.17H413.73z"/>
	<path style="fill:#03242B;" d="M367.432,347.647c0-4.512-3.658-8.17-8.17-8.17H256c-4.512,0-8.17,3.658-8.17,8.17
		c0,4.512,3.658,8.17,8.17,8.17h103.262C363.774,355.817,367.432,352.159,367.432,347.647z"/>
	<path style="fill:#03242B;" d="M477.639,283.38c0.019-0.137,0.036-0.275,0.048-0.413c1.069-8.843,1.632-17.84,1.632-26.967
		c0-1.807-0.022-3.611-0.065-5.412c0.039-0.324,0.065-0.65,0.065-0.984c0-0.542-0.056-1.072-0.157-1.585
		c-1.946-55.181-24.013-107.169-62.664-147.148c-2.976-3.079-7.825-3.337-11.109-0.593c-7.52,6.277-13.237,14.165-16.793,23.097
		c-1.427-0.124-2.86-0.186-4.293-0.186c-27.197,0-49.324,22.127-49.324,49.324c0,4.512,3.658,8.17,8.17,8.17s8.17-3.658,8.17-8.17
		c0-18.187,14.797-32.984,32.984-32.984c2.675,0,5.343,0.322,7.928,0.96c4.359,1.072,8.762-1.566,9.872-5.912
		c1.539-6.029,4.363-11.551,8.29-16.279c30.729,34.382,48.888,77.409,52.078,123.136h-52.677c-4.512,0-8.17,3.658-8.17,8.17
		c0,4.512,3.658,8.17,8.17,8.17h53.164c-0.047,5.5-0.309,10.949-0.779,16.34h-76.895v-68.922c0-2.167-0.861-4.245-2.393-5.777
		c-1.532-1.533-3.61-2.393-5.777-2.393h-58.474v-78.979c0-4.512-3.658-8.17-8.17-8.17c-4.512,0-8.17,3.658-8.17,8.17v13.617h-19.971
		v-13.617c0-4.512-3.658-8.17-8.17-8.17s-8.17,3.658-8.17,8.17v13.617h-19.971v-13.617c0-4.512-3.658-8.17-8.17-8.17
		c-4.512,0-8.17,3.658-8.17,8.17v13.617h-19.975v-13.617c0-4.512-3.658-8.17-8.17-8.17s-8.17,3.658-8.17,8.17v156.071h-24.511
		c-19.728,0-36.233,14.057-40.029,32.681h-14.439c-4.512,0-8.17,3.658-8.17,8.17c0,4.512,3.658,8.17,8.17,8.17h54.468
		c4.512,0,8.17-3.658,8.17-8.17c0-4.512-3.658-8.17-8.17-8.17h-23.105c3.373-9.509,12.454-16.34,23.105-16.34h291.244
		c-0.929,5.523-2.072,10.974-3.43,16.34H201.532c-4.512,0-8.17,3.658-8.17,8.17c0,4.512,3.658,8.17,8.17,8.17h250.263
		C423.849,404.411,346.639,462.979,256,462.979c-46.733,0-89.889-15.578-124.573-41.8h146.36c4.512,0,8.17-3.658,8.17-8.17
		c0-4.512-3.658-8.17-8.17-8.17h-14.44c-3.795-18.624-20.3-32.681-40.029-32.681H84.772
		c-22.243-32.684-35.386-72.035-35.743-114.382l119.822-0.001c4.512,0,8.17-3.658,8.17-8.17c0-4.512-3.658-8.17-8.17-8.17
		l-86.124,0.001c3.644-14.248,16.59-24.813,31.959-24.813c2.678,0,5.344,0.322,7.926,0.96c4.36,1.074,8.763-1.565,9.873-5.911
		c4.406-17.26,19.292-29.844,37.039-31.316c4.497-0.373,7.84-4.32,7.468-8.817c-0.374-4.497-4.305-7.829-8.817-7.468
		c-22.159,1.838-41.11,16.13-49.192,36.398c-1.428-0.124-2.862-0.186-4.296-0.186c-24.414,0-44.729,17.833-48.635,41.155H40.852
		c-4.42,0-8.037,3.514-8.167,7.931c-0.046,1.574-0.032,3.099-0.017,4.574c0.007,0.685,0.013,1.371,0.013,2.059
		c0,47.948,15.193,92.412,41.012,128.84c0.033,0.049,0.068,0.097,0.101,0.146c40.499,57.042,107.079,94.333,182.206,94.333
		c101.844,0,187.979-68.528,214.726-161.895c0.008-0.025,0.015-0.05,0.023-0.075C473.896,306.347,476.212,294.999,477.639,283.38z
		 M368.942,213.363v60.752h-50.303v-60.752H368.942z M209.702,148.002h92.596v126.113h-92.596V148.002z M97.108,388.498h126.211
		c10.652,0,19.733,6.831,23.105,16.34H112.328C106.971,399.666,101.885,394.216,97.108,388.498z"/>
	<path style="fill:#03242B;" d="M75.427,274.115c-4.512,0-8.17,3.658-8.17,8.17c0,4.512,3.658,8.17,8.17,8.17h36.836
		c4.512,0,8.17-3.658,8.17-8.17c0-4.512-3.658-8.17-8.17-8.17H75.427z"/>
	<path style="fill:#03242B;" d="M310.468,404.838c-4.512,0-8.17,3.658-8.17,8.17c0,4.512,3.658,8.17,8.17,8.17h38.397
		c4.512,0,8.17-3.658,8.17-8.17c0-4.512-3.658-8.17-8.17-8.17H310.468z"/>
</g>
<g>
</g>
<g>
</g>
<g>
</g>
<g>
</g>
<g>
</g>
<g>
</g>
<g>
</g>
<g>
</g>
<g>
</g>
<g>
</g>
<g>
</g>
<g>
</g>
<g>
</g>
<g>
</g>
<g>
</g>
</svg>
