<?xml version="1.0" encoding="iso-8859-1"?>
<!-- Generator: Adobe Illustrator 19.0.0, SVG Export Plug-In . SVG Version: 6.00 Build 0)  -->
<svg version="1.1" id="Layer_1" xmlns="http://www.w3.org/2000/svg" xmlns:xlink="http://www.w3.org/1999/xlink" x="0px" y="0px"
	 viewBox="0 0 512 512" style="enable-background:new 0 0 512 512;" xml:space="preserve">
<circle style="fill:#9FC657;" cx="256" cy="256" r="247.83"/>
<polygon style="fill:#557714;" points="355.308,97.809 399.035,175.721 379.15,175.721 425.737,258.726 405.853,258.726 
	452.439,341.732 218.409,341.732 "/>
<polygon style="fill:#7FB21E;" points="156.691,97.809 112.964,175.721 132.848,175.721 86.262,258.726 106.146,258.726 
	59.56,341.732 293.59,341.732 "/>
<polygon style="fill:#405A0F;" points="375.81,341.732 318.346,239.344 342.873,239.344 285.409,136.955 309.936,136.955 
	255.999,40.851 202.061,136.955 226.589,136.955 169.124,239.344 193.653,239.344 136.188,341.732 "/>
<path style="fill:#557714;" d="M420.507,394.504H91.488c39.497,46.838,98.588,76.645,164.51,76.645S381.01,441.341,420.507,394.504z
	"/>
<g>
	<path style="fill:#03242B;" d="M459.564,337.733l-39.757-70.837h5.929c2.901,0,5.584-1.538,7.05-4.042
		c1.466-2.503,1.495-5.597,0.074-8.127l-39.757-70.837h5.93c2.901,0,5.584-1.538,7.05-4.042s1.495-5.597,0.074-8.127l-43.727-77.911
		c-1.447-2.576-4.171-4.171-7.125-4.171c-2.954,0-5.679,1.595-7.126,4.171l-14.933,26.607c-2.208,3.935-0.808,8.915,3.126,11.123
		c3.936,2.208,8.915,0.809,11.123-3.126l7.807-13.912l29.772,53.048h-5.931c-2.901,0-5.584,1.538-7.05,4.042
		s-1.495,5.597-0.074,8.127l39.757,70.837h-5.929c-2.901,0-5.584,1.538-7.05,4.042c-1.466,2.503-1.495,5.597-0.074,8.127
		l39.757,70.837h-25.198c-4.512,0-8.17,3.658-8.17,8.17c0,4.512,3.658,8.17,8.17,8.17h39.152c2.901,0,5.584-1.538,7.05-4.042
		C460.952,343.356,460.983,340.263,459.564,337.733z"/>
	<path style="fill:#03242B;" d="M106.882,341.732c0-4.512-3.658-8.17-8.17-8.17H73.514l39.757-70.837
		c1.419-2.531,1.391-5.623-0.074-8.127c-1.465-2.503-4.149-4.042-7.05-4.042h-5.93l39.757-70.837
		c1.419-2.531,1.391-5.623-0.074-8.127s-4.149-4.042-7.05-4.042h-5.929l29.772-53.048l7.807,13.912
		c2.208,3.935,7.188,5.334,11.123,3.126c3.935-2.208,5.335-7.189,3.126-11.123l-14.933-26.607c-1.447-2.576-4.17-4.172-7.126-4.172
		c-2.954,0-5.679,1.595-7.126,4.171l-43.727,77.911c-1.419,2.531-1.391,5.623,0.074,8.127s4.149,4.042,7.05,4.042h5.929
		l-39.757,70.837c-1.419,2.531-1.391,5.623,0.074,8.127c1.465,2.503,4.149,4.042,7.05,4.042h5.93l-39.757,70.837
		c-1.419,2.531-1.391,5.623,0.074,8.127c1.465,2.503,4.149,4.042,7.05,4.042h39.152
		C103.224,349.902,106.882,346.244,106.882,341.732z"/>
	<path style="fill:#03242B;" d="M243.934,193.212c-4.512,0-8.17,3.658-8.17,8.17v10.894c0,4.512,3.658,8.17,8.17,8.17
		s8.17-3.658,8.17-8.17v-10.894C252.104,196.871,248.446,193.212,243.934,193.212z"/>
	<path style="fill:#03242B;" d="M276.456,266.921c-4.512,0-8.17,3.658-8.17,8.17v10.894c0,4.512,3.658,8.17,8.17,8.17
		c4.512,0,8.17-3.658,8.17-8.17v-10.894C284.626,270.579,280.968,266.921,276.456,266.921z"/>
	<path style="fill:#03242B;" d="M437.019,74.981C388.668,26.628,324.38,0,256,0S123.332,26.628,74.981,74.981
		C26.628,123.332,0,187.62,0,256s26.628,132.668,74.981,181.019C123.332,485.372,187.62,512,256,512s132.668-26.628,181.019-74.981
		C485.372,388.668,512,324.38,512,256S485.372,123.332,437.019,74.981z M256,495.66c-132.149,0-239.66-107.51-239.66-239.66
		S123.851,16.34,256,16.34S495.66,123.851,495.66,256S388.149,495.66,256,495.66z"/>
	<path style="fill:#03242B;" d="M420.507,386.333h-57.028v-11.92c0-4.512-3.658-8.17-8.17-8.17c-4.512,0-8.17,3.658-8.17,8.17v11.92
		H264.17v-36.43h111.641c2.901,0,5.584-1.538,7.05-4.042c1.466-2.503,1.495-5.597,0.074-8.127l-50.635-90.219h10.595
		c4.512,0,8.17-3.658,8.17-8.17c0-1.657-0.493-3.199-1.341-4.486l-50.361-89.733h10.573c4.534,0,8.192-3.658,8.192-8.17
		c0-1.657-0.493-3.199-1.341-4.487l-53.664-95.618c-1.447-2.576-4.171-4.171-7.124-4.171c-2.953,0-5.679,1.595-7.126,4.171
		l-53.938,96.103c-1.419,2.531-1.391,5.623,0.074,8.127c1.465,2.503,4.149,4.042,7.05,4.042h10.573L162,235.344
		c-1.419,2.531-1.391,5.623,0.074,8.127s4.149,4.042,7.05,4.042h10.573l-50.635,90.219c-1.419,2.531-1.391,5.623,0.074,8.127
		c1.465,2.503,4.149,4.042,7.05,4.042H247.83v36.43h-82.969v-11.92c0-4.512-3.658-8.17-8.17-8.17s-8.17,3.658-8.17,8.17v11.92
		H91.488c-3.179,0-6.069,1.843-7.409,4.727c-1.34,2.882-0.886,6.28,1.163,8.711c42.63,50.558,104.868,79.553,170.757,79.553
		c24.888,0,49.357-4.094,72.728-12.167c4.265-1.474,6.529-6.125,5.055-10.39c-1.473-4.266-6.128-6.529-10.39-5.055
		c-21.651,7.48-44.325,11.272-67.392,11.272c-54.965,0-107.19-21.775-145.896-60.305h291.792
		c-14.63,14.57-31.274,26.815-49.668,36.519c-3.991,2.106-5.52,7.047-3.414,11.039c2.106,3.991,7.049,5.519,11.038,3.414
		c25.665-13.54,48.174-31.666,66.901-53.874c2.049-2.43,2.503-5.828,1.163-8.711C426.576,388.177,423.685,386.333,420.507,386.333z
		 M150.142,333.561l50.635-90.219c1.419-2.531,1.391-5.623-0.074-8.127c-1.465-2.503-4.149-4.042-7.05-4.042h-10.573l50.635-90.22
		c1.419-2.531,1.391-5.623-0.074-8.127c-1.465-2.503-4.149-4.042-7.05-4.042h-10.573L256,57.544l39.983,71.24h-10.573
		c-2.901,0-5.584,1.538-7.05,4.042c-1.466,2.503-1.495,5.597-0.074,8.127l50.635,90.22h-10.573c-2.901,0-5.584,1.538-7.05,4.042
		c-1.466,2.503-1.495,5.597-0.074,8.127l50.635,90.219H150.142V333.561z"/>
</g>
<g>
</g>
<g>
</g>
<g>
</g>
<g>
</g>
<g>
</g>
<g>
</g>
<g>
</g>
<g>
</g>
<g>
</g>
<g>
</g>
<g>
</g>
<g>
</g>
<g>
</g>
<g>
</g>
<g>
</g>
</svg>
