<?xml version="1.0" encoding="iso-8859-1"?>
<!-- Generator: Adobe Illustrator 19.0.0, SVG Export Plug-In . SVG Version: 6.00 Build 0)  -->
<svg version="1.1" id="Layer_1" xmlns="http://www.w3.org/2000/svg" xmlns:xlink="http://www.w3.org/1999/xlink" x="0px" y="0px"
	 viewBox="0 0 512 512" style="enable-background:new 0 0 512 512;" xml:space="preserve">
<circle style="fill:#C4F5FF;" cx="256" cy="256" r="247.83"/>
<path style="fill:#096C80;" d="M469.673,281.13c-17.051-0.539-32.081-10.322-41.533-25.13
	c-9.726,15.237-25.378,25.183-43.053,25.183c-17.662,0-33.269-9.946-43.009-25.183c-9.755,15.237-25.378,25.183-43.039,25.183
	c-17.676,0-33.283-9.946-43.024-25.183L48.724,313.873C73.999,404.588,157.226,471.149,256,471.149
	C366.322,471.149,457.249,388.115,469.673,281.13z"/>
<path style="fill:#4DE1FF;" d="M256,223.319H43.328c-1.631,10.659-2.477,21.573-2.477,32.681c0,20.04,2.764,39.444,7.913,57.863H256
	V223.319z"/>
<circle style="fill:#FFC240;" cx="256" cy="84.426" r="43.574"/>
<g>
	<path style="fill:#03242B;" d="M437.019,74.981C388.667,26.628,324.38,0,256,0S123.332,26.628,74.981,74.981
		C26.628,123.332,0,187.62,0,256s26.628,132.668,74.981,181.019C123.332,485.372,187.62,512,256,512s132.667-26.628,181.019-74.981
		C485.372,388.668,512,324.38,512,256S485.372,123.332,437.019,74.981z M256,495.66c-132.149,0-239.66-107.51-239.66-239.66
		S123.851,16.34,256,16.34S495.66,123.851,495.66,256S388.149,495.66,256,495.66z"/>
	<path style="fill:#03242B;" d="M381.334,420.611c-36.311,27.718-79.651,42.367-125.334,42.367
		c-91.05,0-168.554-59.097-196.177-140.946h119.921c4.512,0,8.17-3.658,8.17-8.17c0-4.512-3.658-8.17-8.17-8.17H55.066
		c-3.94-15.925-6.045-32.566-6.045-49.692c0-8.187,0.485-16.404,1.443-24.511H247.83v74.203h-35.404c-4.512,0-8.17,3.658-8.17,8.17
		c0,4.512,3.658,8.17,8.17,8.17h54.468c4.513,0,8.17-3.658,8.17-8.17c0-4.512-3.657-8.17-8.17-8.17h-2.723v-82.373
		c0-4.512-3.657-8.17-8.17-8.17h-57.176v-16.34h8.17c4.512,0,8.17-3.658,8.17-8.17s-3.658-8.17-8.17-8.17h-16.34
		c-4.512,0-8.17,3.658-8.17,8.17v24.511h-65.362v-16.34h8.17c4.512,0,8.17-3.658,8.17-8.17s-3.658-8.17-8.17-8.17h-16.34
		c-4.512,0-8.17,3.658-8.17,8.17v24.511H43.328c-4.035,0-7.466,2.946-8.077,6.934c-1.706,11.15-2.571,22.562-2.571,33.917
		c0,123.139,100.18,223.319,223.319,223.319c49.297,0,96.065-15.809,135.249-45.718c3.586-2.739,4.275-7.865,1.537-11.452
		C390.047,418.562,384.919,417.873,381.334,420.611z"/>
	<path style="fill:#03242B;" d="M256,136.17c28.531,0,51.745-23.213,51.745-51.745S284.531,32.681,256,32.681
		s-51.745,23.213-51.745,51.745S227.469,136.17,256,136.17z M256,49.021c19.522,0,35.404,15.883,35.404,35.404
		S275.522,119.83,256,119.83c-19.521,0-35.404-15.883-35.404-35.404S236.479,49.021,256,49.021z"/>
	<path style="fill:#03242B;" d="M416.681,189.526c3.848,0,7.337,1.987,9.334,5.315c1.476,2.461,4.136,3.966,7.007,3.966
		s5.53-1.505,7.007-3.966c1.997-3.328,5.486-5.315,9.334-5.315c4.513,0,8.17-3.658,8.17-8.17c0-4.512-3.657-8.17-8.17-8.17
		c-5.949,0-11.682,1.992-16.34,5.489c-4.658-3.497-10.391-5.489-16.34-5.489c-4.513,0-8.17,3.658-8.17,8.17
		C408.511,185.868,412.168,189.526,416.681,189.526z"/>
	<path style="fill:#03242B;" d="M351.319,147.564c3.848,0,7.337,1.987,9.334,5.315c1.476,2.461,4.136,3.966,7.007,3.966
		c2.87,0,5.53-1.506,7.007-3.966c1.997-3.328,5.486-5.315,9.334-5.315c4.513,0,8.17-3.658,8.17-8.17s-3.657-8.17-8.17-8.17
		c-5.949,0-11.682,1.992-16.34,5.489c-4.658-3.497-10.391-5.489-16.34-5.489c-4.513,0-8.17,3.658-8.17,8.17
		S346.806,147.564,351.319,147.564z"/>
	<path style="fill:#03242B;" d="M475.861,275.796c-1.493-1.732-3.645-2.759-5.929-2.831c-13.797-0.436-26.519-8.221-34.904-21.36
		c-1.501-2.351-4.098-3.775-6.887-3.775c-2.789,0-5.386,1.423-6.886,3.774c-8.687,13.605-21.868,21.408-36.167,21.408
		c-14.26,0-27.427-7.805-36.125-21.413c-1.501-2.348-4.095-3.768-6.88-3.769c-2.789,0-5.381,1.419-6.884,3.765
		c-8.715,13.612-21.894,21.418-36.158,21.418c-2.875,0-5.75-0.322-8.545-0.96c-4.399-1.005-8.779,1.751-9.781,6.151
		c-1.002,4.4,1.751,8.779,6.151,9.781c3.984,0.907,8.08,1.368,12.175,1.368c16.132,0,31.594-7.289,43.035-19.926
		c11.43,12.634,26.885,19.926,43.013,19.926c16.151,0,31.611-7.278,43.035-19.896c8.867,9.875,20.068,16.406,32.322,18.822
		c-6.584,41.587-26.153,80.881-55.632,111.408c-3.134,3.245-3.044,8.419,0.203,11.553c1.586,1.532,3.631,2.293,5.674,2.293
		c2.139,0,4.276-0.834,5.878-2.495c33.857-35.061,55.599-80.86,61.22-128.959C478.054,279.807,477.355,277.528,475.861,275.796z"/>
	<path style="fill:#03242B;" d="M326.278,354.714c4.513,0,8.17-3.658,8.17-8.17c0-4.512-3.657-8.17-8.17-8.17h-10.894
		c-4.513,0-8.17,3.658-8.17,8.17c0,4.512,3.657,8.17,8.17,8.17H326.278z"/>
	<path style="fill:#03242B;" d="M390.525,305.692h-10.894c-4.513,0-8.17,3.658-8.17,8.17c0,4.512,3.657,8.17,8.17,8.17h10.894
		c4.513,0,8.17-3.658,8.17-8.17C398.695,309.35,395.038,305.692,390.525,305.692z"/>
	<path style="fill:#03242B;" d="M196.616,371.054h-10.894c-4.512,0-8.17,3.658-8.17,8.17c0,4.512,3.658,8.17,8.17,8.17h10.894
		c4.512,0,8.17-3.658,8.17-8.17C204.786,374.712,201.128,371.054,196.616,371.054z"/>
</g>
<g>
</g>
<g>
</g>
<g>
</g>
<g>
</g>
<g>
</g>
<g>
</g>
<g>
</g>
<g>
</g>
<g>
</g>
<g>
</g>
<g>
</g>
<g>
</g>
<g>
</g>
<g>
</g>
<g>
</g>
</svg>
