<?xml version="1.0" encoding="iso-8859-1"?>
<!-- Generator: Adobe Illustrator 19.0.0, SVG Export Plug-In . SVG Version: 6.00 Build 0)  -->
<svg version="1.1" id="Layer_1" xmlns="http://www.w3.org/2000/svg" xmlns:xlink="http://www.w3.org/1999/xlink" x="0px" y="0px"
	 viewBox="0 0 512 512" style="enable-background:new 0 0 512 512;" xml:space="preserve">
<circle style="fill:#4DE1FF;" cx="256" cy="256" r="247.83"/>
<path style="fill:#C4F5FF;" d="M322.791,109.688c-3.9,0-7.688,0.477-11.312,1.37C305.16,86.31,282.718,68.01,256,68.01
	s-49.16,18.3-55.479,43.048c-3.624-0.893-7.412-1.37-11.312-1.37c-26.015,0-47.105,21.09-47.105,47.105h227.793
	C369.896,130.778,348.807,109.688,322.791,109.688z"/>
<path style="fill:#7FB21E;" d="M42.32,281.13C54.768,388.111,145.679,471.149,256,471.149s201.232-83.038,213.68-190.018H42.32z"/>
<g>
	<path style="fill:#FFFFFF;" d="M225.91,175.222c0-17.139-13.894-31.032-31.032-31.032c-2.569,0-5.064,0.315-7.452,0.903
		c-4.164-16.303-18.947-28.359-36.548-28.359s-32.386,12.056-36.548,28.359c-2.388-0.588-4.883-0.903-7.452-0.903
		c-17.139,0-31.032,13.894-31.032,31.032L225.91,175.222L225.91,175.222z"/>
	<path style="fill:#FFFFFF;" d="M409.018,189.761c-3.235,0-6.378,0.395-9.385,1.137c-5.243-20.532-23.861-35.714-46.027-35.714
		s-40.784,15.182-46.027,35.714c-3.007-0.741-6.149-1.137-9.385-1.137c-21.582,0-39.08,17.496-39.08,39.08h188.982
		C448.098,207.258,430.602,189.761,409.018,189.761z"/>
</g>
<g>
	<path style="fill:#03242B;" d="M437.019,74.981C388.667,26.628,324.38,0,256,0S123.333,26.628,74.981,74.981
		C26.628,123.332,0,187.62,0,256s26.628,132.668,74.981,181.019C123.333,485.372,187.62,512,256,512s132.667-26.628,181.019-74.981
		C485.372,388.668,512,324.38,512,256S485.372,123.332,437.019,74.981z M256,495.66c-132.149,0-239.66-107.51-239.66-239.66
		S123.851,16.34,256,16.34S495.66,123.851,495.66,256S388.149,495.66,256,495.66z"/>
	<path style="fill:#03242B;" d="M475.777,275.699c-1.55-1.742-3.771-2.739-6.104-2.739h-76.421v-2.723c0-4.512-3.657-8.17-8.17-8.17
		c-4.513,0-8.17,3.658-8.17,8.17v2.723H232.017v-2.723c0-4.512-3.657-8.17-8.17-8.17s-8.17,3.658-8.17,8.17v2.723h-47.908v-2.723
		c0-4.512-3.657-8.17-8.17-8.17s-8.17,3.658-8.17,8.17v2.723H42.326c-2.332,0-4.554,0.997-6.104,2.739
		c-1.55,1.742-2.283,4.063-2.012,6.379c6.303,53.93,32.185,103.722,72.879,140.207c41.024,36.779,93.907,57.034,148.91,57.034
		c49.283,0,96.048-15.814,135.239-45.734c3.587-2.739,4.275-7.865,1.536-11.452c-2.738-3.586-7.866-4.275-11.451-1.536
		c-36.318,27.726-79.654,42.382-125.323,42.382c-101.925,0-188.174-74.031-204.289-173.678H460.28
		c-6.741,41.209-26.229,80.108-55.467,110.385c-3.134,3.245-3.044,8.419,0.203,11.553c3.246,3.134,8.42,3.045,11.553-0.202
		c33.857-35.061,55.599-80.86,61.22-128.958C478.06,279.762,477.327,277.442,475.777,275.699z"/>
	<path style="fill:#03242B;" d="M312.664,346.492v10.894c0,4.512,3.657,8.17,8.17,8.17c4.513,0,8.17-3.658,8.17-8.17v-10.894
		c0-4.512-3.657-8.17-8.17-8.17C316.321,338.322,312.664,341.98,312.664,346.492z"/>
	<path style="fill:#03242B;" d="M279.983,313.811v10.894c0,4.512,3.657,8.17,8.17,8.17c4.513,0,8.17-3.658,8.17-8.17v-10.894
		c0-4.512-3.657-8.17-8.17-8.17C283.64,305.641,279.983,309.299,279.983,313.811z"/>
	<path style="fill:#03242B;" d="M376.912,313.811v10.894c0,4.512,3.657,8.17,8.17,8.17c4.513,0,8.17-3.658,8.17-8.17v-10.894
		c0-4.512-3.657-8.17-8.17-8.17C380.569,305.641,376.912,309.299,376.912,313.811z"/>
	<path style="fill:#03242B;" d="M118.748,313.811v10.894c0,4.512,3.657,8.17,8.17,8.17s8.17-3.658,8.17-8.17v-10.894
		c0-4.512-3.657-8.17-8.17-8.17S118.748,309.299,118.748,313.811z"/>
	<path style="fill:#03242B;" d="M75.844,183.392H225.91c4.513,0,8.17-3.658,8.17-8.17c0-21.616-17.587-39.202-39.202-39.202
		c-0.647,0-1.293,0.016-1.938,0.048c-7.193-16.501-23.579-27.504-42.062-27.504s-34.87,11.004-42.062,27.504
		c-0.646-0.032-1.292-0.048-1.938-0.048c-21.616,0-39.202,17.587-39.202,39.202C67.673,179.734,71.33,183.392,75.844,183.392z
		 M106.875,152.359c1.856,0,3.705,0.224,5.496,0.666c4.349,1.075,8.763-1.564,9.873-5.911c3.34-13.078,15.114-22.211,28.633-22.211
		c13.519,0,25.293,9.133,28.633,22.211c1.11,4.347,5.519,6.986,9.873,5.911c1.791-0.441,3.64-0.666,5.496-0.666
		c9.729,0,18.058,6.108,21.354,14.691H85.523C88.817,158.467,97.147,152.359,106.875,152.359z"/>
	<path style="fill:#03242B;" d="M199.309,113.774c4.25,1.514,8.923-0.707,10.436-4.959C216.688,89.296,235.277,76.18,256,76.18
		c22.456,0,42.015,15.174,47.563,36.9c1.11,4.347,5.518,6.987,9.872,5.911c3.05-0.752,6.198-1.133,9.358-1.133
		c9.96,0,19.442,3.769,26.698,10.613c1.577,1.489,3.593,2.227,5.605,2.227c2.171,0,4.337-0.861,5.945-2.564
		c3.096-3.283,2.945-8.453-0.339-11.549c-10.301-9.715-23.763-15.066-37.909-15.066c-1.903,0-3.803,0.098-5.693,0.292
		C307.515,76.761,283.372,59.84,256,59.84c-27.62,0-52.395,17.481-61.651,43.498C192.838,107.59,195.058,112.262,199.309,113.774z"
		/>
	<path style="fill:#03242B;" d="M302.004,181.744c-1.266-0.102-2.536-0.154-3.808-0.154c-26.054,0-47.25,21.196-47.25,47.25
		c0,4.512,3.657,8.17,8.17,8.17h107.837c4.513,0,8.17-3.658,8.17-8.17c0-4.512-3.657-8.17-8.17-8.17h-98.571
		c3.593-13.091,15.598-22.739,29.814-22.739c2.509,0,5.008,0.303,7.427,0.9c4.351,1.076,8.763-1.564,9.873-5.911
		c4.446-17.408,20.117-29.565,38.11-29.565s33.666,12.157,38.111,29.565c1.11,4.347,5.52,6.986,9.873,5.911
		c2.421-0.597,4.92-0.9,7.427-0.9c14.216,0,26.221,9.647,29.814,22.739h-39.197c-4.513,0-8.17,3.658-8.17,8.17
		c0,4.512,3.657,8.17,8.17,8.17h48.464c4.513,0,8.17-3.658,8.17-8.17c0-26.054-21.197-47.25-47.25-47.25
		c-1.272,0-2.543,0.051-3.808,0.154c-8.406-20.772-28.673-34.73-51.603-34.73C330.678,147.015,310.409,160.972,302.004,181.744z"/>
</g>
<g>
</g>
<g>
</g>
<g>
</g>
<g>
</g>
<g>
</g>
<g>
</g>
<g>
</g>
<g>
</g>
<g>
</g>
<g>
</g>
<g>
</g>
<g>
</g>
<g>
</g>
<g>
</g>
<g>
</g>
</svg>
