<?xml version="1.0" encoding="UTF-8" standalone="no" ?>
<!DOCTYPE svg PUBLIC "-//W3C//DTD SVG 1.1//EN" "http://www.w3.org/Graphics/SVG/1.1/DTD/svg11.dtd">
<svg xmlns="http://www.w3.org/2000/svg" xmlns:xlink="http://www.w3.org/1999/xlink" version="1.1" width="1080" height="1080" viewBox="0 0 1080 1080" xml:space="preserve">
<desc>Created with Fabric.js 5.2.4</desc>
<defs>
</defs>
<g transform="matrix(1 0 0 1 540 540)" id="29645a12-1a64-4cf8-b990-458f6589742b"  >
<rect style="stroke: none; stroke-width: 1; stroke-dasharray: none; stroke-linecap: butt; stroke-dashoffset: 0; stroke-linejoin: miter; stroke-miterlimit: 4; fill: rgb(255,255,255); fill-rule: nonzero; opacity: 1; visibility: hidden;" vector-effect="non-scaling-stroke"  x="-540" y="-540" rx="0" ry="0" width="1080" height="1080" />
</g>
<g transform="matrix(1 0 0 1 540 540)" id="b2653e7d-7738-495d-bace-5467d7ef84bc"  >
</g>
<g transform="matrix(1 0 0 1 540 540)"  >
<g style="" vector-effect="non-scaling-stroke"   >
		<g transform="matrix(1 0 0 1 0 -34.47)"  >
<polygon style="stroke: none; stroke-width: 1; stroke-dasharray: none; stroke-linecap: butt; stroke-dashoffset: 0; stroke-linejoin: miter; stroke-miterlimit: 4; fill: rgb(101,156,47); fill-rule: nonzero; opacity: 1;" vector-effect="non-scaling-stroke"  points="51.31,-94.06 0,-196.68 -51.31,-94.06 -196.68,196.68 196.68,196.68 " />
</g>
		<g transform="matrix(1 0 0 1 0 -171.29)"  >
<polygon style="stroke: none; stroke-width: 1; stroke-dasharray: none; stroke-linecap: butt; stroke-dashoffset: 0; stroke-linejoin: miter; stroke-miterlimit: 4; fill: rgb(206,215,217); fill-rule: nonzero; opacity: 1;" vector-effect="non-scaling-stroke"  points="-17.1,42.76 0,59.86 17.1,42.76 34.2,59.86 51.31,42.76 0,-59.86 -51.31,42.76 -34.21,59.86 " />
</g>
		<g transform="matrix(1 0 0 1 111.16 42.49)"  >
<polygon style="stroke: none; stroke-width: 1; stroke-dasharray: none; stroke-linecap: butt; stroke-dashoffset: 0; stroke-linejoin: miter; stroke-miterlimit: 4; fill: rgb(148,197,75); fill-rule: nonzero; opacity: 1;" vector-effect="non-scaling-stroke"  points="0,-119.72 119.72,119.72 -119.72,119.72 " />
</g>
		<g transform="matrix(1 0 0 1 -145.37 76.69)"  >
<polygon style="stroke: none; stroke-width: 1; stroke-dasharray: none; stroke-linecap: butt; stroke-dashoffset: 0; stroke-linejoin: miter; stroke-miterlimit: 4; fill: rgb(171,212,110); fill-rule: nonzero; opacity: 1;" vector-effect="non-scaling-stroke"  points="0,-85.51 -85.51,85.51 85.51,85.51 " />
</g>
		<g transform="matrix(1 0 0 1 111.16 -21.65)"  >
<polygon style="stroke: none; stroke-width: 1; stroke-dasharray: none; stroke-linecap: butt; stroke-dashoffset: 0; stroke-linejoin: miter; stroke-miterlimit: 4; fill: rgb(206,215,217); fill-rule: nonzero; opacity: 1;" vector-effect="non-scaling-stroke"  points="-48.46,41.33 -34.2,55.58 -17.1,38.48 0,55.58 17.1,38.48 34.21,55.58 48.46,41.33 0,-55.58 " />
</g>
		<g transform="matrix(1 0 0 1 -145.37 42.49)"  >
<polygon style="stroke: none; stroke-width: 1; stroke-dasharray: none; stroke-linecap: butt; stroke-dashoffset: 0; stroke-linejoin: miter; stroke-miterlimit: 4; fill: rgb(206,215,217); fill-rule: nonzero; opacity: 1;" vector-effect="non-scaling-stroke"  points="-45.61,39.91 -34.2,51.31 -17.1,34.2 0,51.31 17.1,34.2 34.2,51.31 45.61,39.91 0,-51.31 " />
</g>
		<g transform="matrix(1 0 0 1 0 204.96)"  >
<rect style="stroke: none; stroke-width: 1; stroke-dasharray: none; stroke-linecap: butt; stroke-dashoffset: 0; stroke-linejoin: miter; stroke-miterlimit: 4; fill: rgb(139,103,40); fill-rule: nonzero; opacity: 1;" vector-effect="non-scaling-stroke"  x="-247.9835" y="-42.7555" rx="0" ry="0" width="495.967" height="85.511" />
</g>
		<g transform="matrix(1 0 0 1 145.37 196.41)"  >
<path style="stroke: none; stroke-width: 1; stroke-dasharray: none; stroke-linecap: butt; stroke-dashoffset: 0; stroke-linejoin: miter; stroke-miterlimit: 4; fill: rgb(122,84,17); fill-rule: nonzero; opacity: 1;" vector-effect="non-scaling-stroke"  transform=" translate(-401.37, -452.41)" d="M 418.472 443.858 L 384.267 443.858 C 379.545 443.858 375.716 447.687 375.716 452.409 C 375.716 457.131 379.545 460.96 384.267 460.96 L 418.472 460.96 C 423.19399999999996 460.96 427.02299999999997 457.131 427.02299999999997 452.409 C 427.023 447.687 423.194 443.858 418.472 443.858 z" stroke-linecap="round" />
</g>
		<g transform="matrix(1 0 0 1 171.02 213.51)"  >
<path style="stroke: none; stroke-width: 1; stroke-dasharray: none; stroke-linecap: butt; stroke-dashoffset: 0; stroke-linejoin: miter; stroke-miterlimit: 4; fill: rgb(122,84,17); fill-rule: nonzero; opacity: 1;" vector-effect="non-scaling-stroke"  transform=" translate(-427.02, -469.51)" d="M 444.125 460.96 L 409.92 460.96 C 405.19800000000004 460.96 401.369 464.789 401.369 469.51099999999997 C 401.369 474.23299999999995 405.19800000000004 478.06199999999995 409.92 478.06199999999995 L 444.125 478.06199999999995 C 448.847 478.06199999999995 452.676 474.23299999999995 452.676 469.51099999999997 C 452.676 464.789 448.848 460.96 444.125 460.96 z" stroke-linecap="round" />
</g>
		<g transform="matrix(1 0 0 1 -8.55 196.41)"  >
<path style="stroke: none; stroke-width: 1; stroke-dasharray: none; stroke-linecap: butt; stroke-dashoffset: 0; stroke-linejoin: miter; stroke-miterlimit: 4; fill: rgb(122,84,17); fill-rule: nonzero; opacity: 1;" vector-effect="non-scaling-stroke"  transform=" translate(-247.45, -452.41)" d="M 264.551 443.858 L 230.346 443.858 C 225.624 443.858 221.79500000000002 447.687 221.79500000000002 452.409 C 221.79500000000002 457.131 225.62400000000002 460.96 230.346 460.96 L 264.551 460.96 C 269.27299999999997 460.96 273.102 457.131 273.102 452.409 C 273.102 447.687 269.274 443.858 264.551 443.858 z" stroke-linecap="round" />
</g>
		<g transform="matrix(1 0 0 1 17.1 213.51)"  >
<path style="stroke: none; stroke-width: 1; stroke-dasharray: none; stroke-linecap: butt; stroke-dashoffset: 0; stroke-linejoin: miter; stroke-miterlimit: 4; fill: rgb(122,84,17); fill-rule: nonzero; opacity: 1;" vector-effect="non-scaling-stroke"  transform=" translate(-273.1, -469.51)" d="M 290.205 460.96 L 256 460.96 C 251.278 460.96 247.449 464.789 247.449 469.51099999999997 C 247.449 474.23299999999995 251.27800000000002 478.06199999999995 256 478.06199999999995 L 290.205 478.06199999999995 C 294.92699999999996 478.06199999999995 298.756 474.23299999999995 298.756 469.51099999999997 C 298.756 464.789 294.927 460.96 290.205 460.96 z" stroke-linecap="round" />
</g>
		<g transform="matrix(1 0 0 1 -188.13 196.41)"  >
<path style="stroke: none; stroke-width: 1; stroke-dasharray: none; stroke-linecap: butt; stroke-dashoffset: 0; stroke-linejoin: miter; stroke-miterlimit: 4; fill: rgb(122,84,17); fill-rule: nonzero; opacity: 1;" vector-effect="non-scaling-stroke"  transform=" translate(-67.87, -452.41)" d="M 84.977 443.858 L 50.772 443.858 C 46.05 443.858 42.221 447.687 42.221 452.409 C 42.221 457.131 46.05 460.96 50.772 460.96 L 84.977 460.96 C 89.699 460.96 93.528 457.131 93.528 452.409 C 93.528 447.687 89.699 443.858 84.977 443.858 z" stroke-linecap="round" />
</g>
		<g transform="matrix(1 0 0 1 -162.47 213.51)"  >
<path style="stroke: none; stroke-width: 1; stroke-dasharray: none; stroke-linecap: butt; stroke-dashoffset: 0; stroke-linejoin: miter; stroke-miterlimit: 4; fill: rgb(122,84,17); fill-rule: nonzero; opacity: 1;" vector-effect="non-scaling-stroke"  transform=" translate(-93.53, -469.51)" d="M 110.63 460.96 L 76.426 460.96 C 71.70400000000001 460.96 67.875 464.789 67.875 469.51099999999997 C 67.875 474.23299999999995 71.704 478.06199999999995 76.426 478.06199999999995 L 110.631 478.06199999999995 C 115.353 478.06199999999995 119.182 474.23299999999995 119.182 469.51099999999997 C 119.182 464.789 115.353 460.96 110.63 460.96 z" stroke-linecap="round" />
</g>
		<g transform="matrix(1 0 0 1 179.58 -196.94)"  >
<path style="stroke: none; stroke-width: 1; stroke-dasharray: none; stroke-linecap: butt; stroke-dashoffset: 0; stroke-linejoin: miter; stroke-miterlimit: 4; fill: rgb(206,215,217); fill-rule: nonzero; opacity: 1;" vector-effect="non-scaling-stroke"  transform=" translate(-435.58, -59.06)" d="M 469.779 50.505 C 465.823 50.505 462.078 51.402 458.73199999999997 53.001000000000005 C 460.33099999999996 49.655 461.22799999999995 45.910000000000004 461.22799999999995 41.95400000000001 C 461.22799999999995 27.78600000000001 449.74299999999994 16.30100000000001 435.57499999999993 16.30100000000001 C 421.4069999999999 16.30100000000001 409.9219999999999 27.78600000000001 409.9219999999999 41.95400000000001 C 409.9219999999999 45.91000000000001 410.8189999999999 49.65500000000001 412.4179999999999 53.001000000000005 C 409.0719999999999 51.40200000000001 405.3269999999999 50.505 401.37099999999987 50.505 C 387.20299999999986 50.505 375.71799999999985 61.99 375.71799999999985 76.158 C 375.71799999999985 90.326 387.20299999999986 101.811 401.37099999999987 101.811 L 469.77999999999986 101.811 C 483.94799999999987 101.811 495.4329999999999 90.32600000000001 495.4329999999999 76.15800000000002 C 495.4329999999999 61.99000000000002 483.947 50.505 469.779 50.505 z" stroke-linecap="round" />
</g>
		<g transform="matrix(1 0 0 1 179.53 -176.61)"  >
<path style="stroke: none; stroke-width: 1; stroke-dasharray: none; stroke-linecap: butt; stroke-dashoffset: 0; stroke-linejoin: miter; stroke-miterlimit: 4; fill: rgb(182,196,198); fill-rule: nonzero; opacity: 1;" vector-effect="non-scaling-stroke"  transform=" translate(-435.53, -79.39)" d="M 478.33 84.71 L 409.921 84.71 C 395.753 84.71 384.268 73.225 384.268 59.056999999999995 C 384.268 58.352 384.304 57.654999999999994 384.35999999999996 56.962999999999994 C 379.05999999999995 61.663 375.717 68.51899999999999 375.717 76.15899999999999 C 375.717 90.327 387.202 101.81199999999998 401.37 101.81199999999998 L 469.779 101.81199999999998 C 483.242 101.81199999999998 494.274 91.43899999999998 495.341 78.25299999999999 C 490.812 82.267 484.858 84.71 478.33 84.71 z" stroke-linecap="round" />
</g>
		<g transform="matrix(1 0 0 1 -179.57 -119.98)"  >
<path style="stroke: none; stroke-width: 1; stroke-dasharray: none; stroke-linecap: butt; stroke-dashoffset: 0; stroke-linejoin: miter; stroke-miterlimit: 4; fill: rgb(206,215,217); fill-rule: nonzero; opacity: 1;" vector-effect="non-scaling-stroke"  transform=" translate(-76.43, -136.02)" d="M 110.63 127.466 C 106.67399999999999 127.466 102.929 128.363 99.583 129.962 C 101.182 126.61599999999999 102.079 122.871 102.079 118.91499999999999 C 102.079 104.74699999999999 90.594 93.262 76.42599999999999 93.262 C 62.25799999999998 93.262 50.77299999999999 104.747 50.77299999999999 118.91499999999999 C 50.77299999999999 122.871 51.66999999999999 126.61599999999999 53.26899999999999 129.962 C 49.92299999999999 128.363 46.17799999999999 127.466 42.221999999999994 127.466 C 28.053999999999995 127.466 16.568999999999996 138.951 16.568999999999996 153.119 C 16.568999999999996 167.287 28.053999999999995 178.772 42.221999999999994 178.772 L 110.631 178.772 C 124.799 178.772 136.284 167.28699999999998 136.284 153.119 C 136.284 138.951 124.799 127.466 110.63 127.466 z" stroke-linecap="round" />
</g>
		<g transform="matrix(1 0 0 1 -179.62 -99.65)"  >
<path style="stroke: none; stroke-width: 1; stroke-dasharray: none; stroke-linecap: butt; stroke-dashoffset: 0; stroke-linejoin: miter; stroke-miterlimit: 4; fill: rgb(182,196,198); fill-rule: nonzero; opacity: 1;" vector-effect="non-scaling-stroke"  transform=" translate(-76.38, -156.35)" d="M 119.182 161.67 L 50.772 161.67 C 36.604 161.67 25.119 150.185 25.119 136.017 C 25.119 135.31199999999998 25.155 134.615 25.211 133.923 C 19.910999999999998 138.623 16.567999999999998 145.479 16.567999999999998 153.119 C 16.567999999999998 167.287 28.052999999999997 178.772 42.221 178.772 L 110.63 178.772 C 124.09299999999999 178.772 135.125 168.399 136.192 155.213 C 131.664 159.228 125.709 161.67 119.182 161.67 z" stroke-linecap="round" />
</g>
		<g transform="matrix(1 0 0 1 0 -34.43)"  >
<path style="stroke: none; stroke-width: 1; stroke-dasharray: none; stroke-linecap: butt; stroke-dashoffset: 0; stroke-linejoin: miter; stroke-miterlimit: 4; fill: rgb(0,0,0); fill-rule: nonzero; opacity: 1;" vector-effect="non-scaling-stroke"  transform=" translate(-256, -221.57)" d="M 503.983 410.188 L 491.835 410.188 L 449.938 326.394 C 447.984 322.485 443.09 320.855 439.182 322.809 C 435.27500000000003 324.762 433.644 329.65700000000004 435.59700000000004 333.564 L 473.90900000000005 410.188 L 260.41900000000004 410.188 L 320.903 289.219 L 327.29 295.606 C 330.37800000000004 298.693 335.541 298.693 338.62800000000004 295.606 L 350.06100000000004 284.17199999999997 L 361.494 295.606 C 364.62600000000003 298.73699999999997 369.701 298.73699999999997 372.83200000000005 295.606 L 384.26500000000004 284.17199999999997 L 395.69800000000004 295.606 C 398.78700000000003 298.694 403.94700000000006 298.694 407.03600000000006 295.606 L 413.42400000000004 289.219 L 424.48400000000004 311.33799999999997 C 426.46400000000006 315.29799999999994 431.278 316.905 435.24 314.92299999999994 C 439.199 312.9429999999999 440.805 308.12799999999993 438.825 304.16799999999995 L 374.334 175.18799999999996 C 371.437 169.39499999999995 362.89 169.39499999999995 359.994 175.18799999999996 L 350.062 195.05099999999996 L 314.418 123.76299999999996 C 314.41200000000003 123.75099999999996 314.406 123.73899999999996 314.40000000000003 123.72799999999997 L 263.167 21.267 C 260.27 15.474 251.72299999999998 15.474 248.82699999999997 21.267 L 197.59899999999996 123.72399999999999 C 197.58999999999997 123.74099999999999 197.58199999999997 123.758 197.57299999999995 123.77499999999999 L 127.73199999999996 263.461 L 117.79999999999995 243.597 C 114.90299999999995 237.804 106.35599999999995 237.804 103.45999999999995 243.597 L 20.165 410.188 L 8.017 410.188 C 3.5889999999999995 410.188 0 413.777 0 418.205 C 0 422.632 3.588 426.222 8.017 426.222 L 486.865 426.222 C 486.872 426.222 486.88 426.22299999999996 486.887 426.22299999999996 C 486.897 426.22299999999996 486.905 426.222 486.915 426.222 L 503.983 426.222 C 508.411 426.222 512 422.633 512 418.205 C 512 413.777 508.412 410.188 503.983 410.188 z M 367.165 196.699 L 405.867 274.103 L 401.369 278.601 L 389.93600000000004 267.167 C 386.80400000000003 264.036 381.72900000000004 264.036 378.598 267.167 L 367.164 278.601 L 355.731 267.167 C 352.599 264.036 347.524 264.036 344.393 267.167 L 332.96 278.6 L 328.462 274.10200000000003 L 367.165 196.699 z M 256 42.778 L 297.553 125.882 L 290.204 133.231 L 278.771 121.797 C 275.639 118.666 270.564 118.666 267.433 121.797 L 256 133.231 L 244.567 121.797 C 241.435 118.666 236.36 118.666 233.229 121.797 L 221.79500000000002 133.231 L 214.447 125.88199999999999 L 256 42.778 z M 206.889 140.999 L 216.126 150.236 C 219.258 153.367 224.333 153.367 227.464 150.236 L 238.897 138.802 L 250.32999999999998 150.236 C 253.462 153.367 258.537 153.367 261.668 150.236 L 273.101 138.802 L 284.534 150.236 C 287.623 153.32399999999998 292.783 153.32399999999998 295.872 150.236 L 305.10900000000004 140.999 L 340.91700000000003 212.615 C 340.97600000000006 212.733 341.045 212.841 341.108 212.954 L 242.49200000000002 410.187 L 201.09400000000002 410.187 L 136.69300000000004 281.385 L 206.889 140.999 z M 110.63 265.108 L 146.482 336.812 L 144.835 338.459 L 133.40200000000002 327.025 C 130.27 323.894 125.19500000000002 323.894 122.06400000000002 327.025 L 110.63000000000002 338.459 L 99.19700000000003 327.025 C 96.06500000000003 323.894 90.99000000000004 323.894 87.85900000000004 327.025 L 76.42500000000004 338.45799999999997 L 74.77800000000003 336.811 L 110.63 265.108 z M 67.221 351.928 L 70.75800000000001 355.465 C 73.846 358.55199999999996 79.00900000000001 358.55199999999996 82.096 355.465 L 93.529 344.03 L 104.96199999999999 355.464 C 108.094 358.59499999999997 113.16899999999998 358.59499999999997 116.29999999999998 355.464 L 127.73299999999998 344.03 L 139.16599999999997 355.464 C 142.25499999999997 358.552 147.41499999999996 358.552 150.50399999999996 355.464 L 154.04099999999997 351.927 L 183.17199999999997 410.187 L 38.09 410.187 L 67.221 351.928 z" stroke-linecap="round" />
</g>
		<g transform="matrix(1 0 0 1 179.57 -196.94)"  >
<path style="stroke: none; stroke-width: 1; stroke-dasharray: none; stroke-linecap: butt; stroke-dashoffset: 0; stroke-linejoin: miter; stroke-miterlimit: 4; fill: rgb(0,0,0); fill-rule: nonzero; opacity: 1;" vector-effect="non-scaling-stroke"  transform=" translate(-435.57, -59.06)" d="M 401.37 109.829 L 469.779 109.829 C 488.34499999999997 109.829 503.449 94.72399999999999 503.449 76.15899999999999 C 503.449 57.593999999999994 488.344 42.48899999999999 469.779 42.48899999999999 C 469.599 42.48899999999999 469.42 42.48999999999999 469.24 42.49299999999999 C 469.243 42.31299999999999 469.244 42.13499999999999 469.244 41.953999999999986 C 469.244 23.387999999999987 454.139 8.283999999999985 435.574 8.283999999999985 C 417.00800000000004 8.283999999999985 401.904 23.388999999999985 401.904 41.953999999999986 C 401.904 42.133999999999986 401.905 42.31299999999999 401.908 42.49299999999999 C 401.728 42.490999999999985 401.54900000000004 42.48899999999999 401.369 42.48899999999999 C 382.80300000000005 42.48899999999999 367.699 57.593999999999994 367.699 76.15899999999999 C 367.699 94.72399999999999 382.804 109.829 401.37 109.829 z M 401.37 58.522 C 404.029 58.522 406.583 59.098 408.96 60.234 C 412.025 61.699000000000005 415.68199999999996 61.073 418.08599999999996 58.67 C 420.489 56.267 421.11499999999995 52.61 419.65 49.544000000000004 C 418.51399999999995 47.167 417.938 44.61300000000001 417.938 41.95400000000001 C 417.938 32.229000000000006 425.84999999999997 24.317000000000007 435.575 24.317000000000007 C 445.3 24.317000000000007 453.212 32.229000000000006 453.212 41.95400000000001 C 453.212 44.61300000000001 452.63599999999997 47.16700000000001 451.5 49.54400000000001 C 450.035 52.610000000000014 450.661 56.26700000000001 453.064 58.67000000000001 C 455.468 61.07400000000001 459.12600000000003 61.69900000000001 462.19 60.23400000000001 C 464.567 59.098000000000006 467.12 58.522000000000006 469.78 58.522000000000006 C 479.505 58.522000000000006 487.417 66.43400000000001 487.417 76.159 C 487.417 85.884 479.505 93.796 469.78 93.796 L 401.37 93.796 C 391.645 93.796 383.733 85.884 383.733 76.159 C 383.733 66.43400000000001 391.645 58.522 401.37 58.522 z" stroke-linecap="round" />
</g>
		<g transform="matrix(1 0 0 1 -179.57 -119.98)"  >
<path style="stroke: none; stroke-width: 1; stroke-dasharray: none; stroke-linecap: butt; stroke-dashoffset: 0; stroke-linejoin: miter; stroke-miterlimit: 4; fill: rgb(0,0,0); fill-rule: nonzero; opacity: 1;" vector-effect="non-scaling-stroke"  transform=" translate(-76.43, -136.02)" d="M 42.221 186.789 L 110.63 186.789 C 129.196 186.789 144.3 171.684 144.3 153.11899999999997 C 144.30100000000002 134.37399999999997 128.888 119.19399999999997 110.09100000000001 119.45299999999997 C 110.09400000000001 119.27299999999997 110.09500000000001 119.09499999999997 110.09500000000001 118.91399999999997 C 110.09500000000001 100.34799999999997 94.99000000000001 85.24399999999997 76.42500000000001 85.24399999999997 C 57.860000000000014 85.24399999999997 42.75500000000001 100.34899999999998 42.75500000000001 118.91399999999997 C 42.75500000000001 119.09399999999998 42.75600000000001 119.27299999999997 42.75900000000001 119.45299999999997 C 42.57900000000001 119.45099999999998 42.400000000000006 119.44899999999997 42.220000000000006 119.44899999999997 C 23.654000000000007 119.44899999999997 8.550000000000004 134.55399999999997 8.550000000000004 153.11899999999997 C 8.550000000000004 171.68399999999997 23.656 186.789 42.221 186.789 z M 42.221 135.482 C 44.879999999999995 135.482 47.434 136.058 49.81099999999999 137.194 C 52.87599999999999 138.661 56.532 138.033 58.93699999999999 135.63 C 61.33999999999999 133.227 61.965999999999994 129.57 60.50099999999999 126.50399999999999 C 59.36499999999999 124.127 58.78899999999999 121.573 58.78899999999999 118.91399999999999 C 58.78899999999999 109.189 66.701 101.27699999999999 76.42599999999999 101.27699999999999 C 86.15099999999998 101.27699999999999 94.06299999999999 109.189 94.06299999999999 118.91399999999999 C 94.06299999999999 121.573 93.487 124.12699999999998 92.35099999999998 126.50399999999999 C 90.90099999999998 129.53799999999998 91.53799999999998 133.254 93.91499999999999 135.63 C 96.291 138.005 100.008 138.64499999999998 103.041 137.194 C 105.41799999999999 136.058 107.971 135.482 110.631 135.482 C 120.356 135.482 128.268 143.394 128.268 153.119 C 128.268 162.844 120.356 170.756 110.631 170.756 L 42.221 170.756 C 32.495999999999995 170.756 24.583999999999996 162.844 24.583999999999996 153.119 C 24.585 143.394 32.497 135.482 42.221 135.482 z" stroke-linecap="round" />
</g>
</g>
</g>
<g transform="matrix(1 0 0 1 471.56 578.5)"  >
<g style="" vector-effect="non-scaling-stroke"   >
		<g transform="matrix(1 0 0 1 -145 55)" id="XMLID_1837_"  >
<path style="stroke: none; stroke-width: 1; stroke-dasharray: none; stroke-linecap: butt; stroke-dashoffset: 0; stroke-linejoin: miter; stroke-miterlimit: 4; fill: rgb(97,96,100); fill-rule: nonzero; opacity: 1;" vector-effect="non-scaling-stroke"  transform=" translate(-35, -235)" d="M 30 235 C 30 212.906 47.908 195 70 195 L 70 165 C 31.341 165 0 196.338 0 235 C 0 273.66200000000003 31.341 305 70 305 L 70 275 C 47.908 275 30 257.092 30 235 z" stroke-linecap="round" />
</g>
		<g transform="matrix(1 0 0 1 -100.23 0.3)" id="XMLID_1838_"  >
<path style="stroke: none; stroke-width: 1; stroke-dasharray: none; stroke-linecap: butt; stroke-dashoffset: 0; stroke-linejoin: miter; stroke-miterlimit: 4; fill: rgb(86,86,89); fill-rule: nonzero; opacity: 1;" vector-effect="non-scaling-stroke"  transform=" translate(-79.77, -180.3)" d="M 76.893 195.604 L 89.546 167.787 C 83.34 165.984 76.787 165 70 165 L 70 195 C 72.352 195 74.652 195.215 76.893 195.604 z" stroke-linecap="round" />
</g>
		<g transform="matrix(1 0 0 1 -75.1 92.51)" id="XMLID_1839_"  >
<path style="stroke: none; stroke-width: 1; stroke-dasharray: none; stroke-linecap: butt; stroke-dashoffset: 0; stroke-linejoin: miter; stroke-miterlimit: 4; fill: rgb(86,86,89); fill-rule: nonzero; opacity: 1;" vector-effect="non-scaling-stroke"  transform=" translate(-104.9, -272.51)" d="M 70 275 L 70 305 C 106.961 305 137.209 276.351 139.799 240.048 L 109.67500000000001 240.026 C 107.201 259.742 90.388 275 70 275 z" stroke-linecap="round" />
</g>
		<g transform="matrix(1 0 0 1 -60.65 16.13)" id="XMLID_1840_"  >
<path style="stroke: none; stroke-width: 1; stroke-dasharray: none; stroke-linecap: butt; stroke-dashoffset: 0; stroke-linejoin: miter; stroke-miterlimit: 4; fill: rgb(86,86,89); fill-rule: nonzero; opacity: 1;" vector-effect="non-scaling-stroke"  transform=" translate(-119.35, -196.13)" d="M 115.943 182.211 L 103.294 210.02 L 135.403 210.04500000000002 C 131.27 199.219 124.527 189.689 115.943 182.211 z" stroke-linecap="round" />
</g>
		<g transform="matrix(1 0 0 1 -110.16 55)" id="XMLID_1841_"  >
<path style="stroke: none; stroke-width: 1; stroke-dasharray: none; stroke-linecap: butt; stroke-dashoffset: 0; stroke-linejoin: miter; stroke-miterlimit: 4; fill: rgb(255,255,255); fill-rule: nonzero; opacity: 1;" vector-effect="non-scaling-stroke"  transform=" translate(-69.84, -235)" d="M 30 235 C 30 257.092 47.908 275 70 275 C 90.388 275 107.201 259.742 109.675 240.025 L 79.988 240.002 L 66.345 218.791 L 76.892 195.603 C 74.652 195.215 72.352 195 70 195 C 47.908 195 30 212.906 30 235 z" stroke-linecap="round" />
</g>
		<g transform="matrix(1 0 0 1 75 58.69)" id="XMLID_1842_"  >
<path style="stroke: none; stroke-width: 1; stroke-dasharray: none; stroke-linecap: butt; stroke-dashoffset: 0; stroke-linejoin: miter; stroke-miterlimit: 4; fill: rgb(97,96,100); fill-rule: nonzero; opacity: 1;" vector-effect="non-scaling-stroke"  transform=" translate(-255, -238.69)" d="M 250 235 C 250 221.922 256.277 210.312 265.981 203.014 L 258.739 172.37 C 235.776 183.854 220 207.577 220 235 C 220 273.662 251.341 305 290 305 L 290 275 C 267.909 275 250 257.092 250 235 z" stroke-linecap="round" />
</g>
		<g transform="matrix(1 0 0 1 144.01 55)" id="XMLID_1843_"  >
<path style="stroke: none; stroke-width: 1; stroke-dasharray: none; stroke-linecap: butt; stroke-dashoffset: 0; stroke-linejoin: miter; stroke-miterlimit: 4; fill: rgb(86,86,89); fill-rule: nonzero; opacity: 1;" vector-effect="non-scaling-stroke"  transform=" translate(-324.01, -235)" d="M 290 165 C 289.339 165 288.685 165.031 288.027 165.05 L 290 173.32500000000002 L 295.25 195.353 C 314.857 197.926 330 214.688 330 235 C 330 257.092 312.091 275 290 275 L 290 305 C 328.659 305 360 273.662 360 235 C 360 196.33800000000002 328.659 165 290 165 z" stroke-linecap="round" />
</g>
		<g transform="matrix(1 0 0 1 110 55.18)" id="XMLID_1844_"  >
<path style="stroke: none; stroke-width: 1; stroke-dasharray: none; stroke-linecap: butt; stroke-dashoffset: 0; stroke-linejoin: miter; stroke-miterlimit: 4; fill: rgb(255,255,255); fill-rule: nonzero; opacity: 1;" vector-effect="non-scaling-stroke"  transform=" translate(-290, -235.18)" d="M 274.82 240.413 L 265.981 203.014 C 256.277 210.313 250 221.922 250 235 C 250 257.092 267.909 275 290 275 C 312.091 275 330 257.092 330 235 C 330 214.687 314.85699999999997 197.926 295.25 195.35399999999998 L 305.988 240.414 L 274.82 240.414 z" stroke-linecap="round" />
</g>
		<g transform="matrix(1 0 0 1 62.99 -32.29)" id="XMLID_1845_"  >
<polygon style="stroke: none; stroke-width: 1; stroke-dasharray: none; stroke-linecap: butt; stroke-dashoffset: 0; stroke-linejoin: miter; stroke-miterlimit: 4; fill: rgb(191,60,26); fill-rule: nonzero; opacity: 1;" vector-effect="non-scaling-stroke"  points="31.83,92.71 62.99,92.71 52.26,47.65 47.01,25.62 45.03,17.34 25.96,-62.71 57.01,-62.71 57.01,-92.71 -11.99,-92.71 4.57,-22.63 -62.99,-22.63 -62.99,7.37 11.66,7.37 15.74,24.66 22.99,55.31 " />
</g>
		<g transform="matrix(1 0 0 1 -55.37 2.57)" id="XMLID_1846_"  >
<path style="stroke: none; stroke-width: 1; stroke-dasharray: none; stroke-linecap: butt; stroke-dashoffset: 0; stroke-linejoin: miter; stroke-miterlimit: 4; fill: rgb(255,80,35); fill-rule: nonzero; opacity: 1;" vector-effect="non-scaling-stroke"  transform=" translate(-124.63, -182.57)" d="M 160 125.079 L 108.97200000000001 125.079 L 89.546 167.786 L 76.893 195.603 L 66.346 218.791 L 79.989 240.002 L 109.676 240.025 L 139.8 240.047 L 154.013 240.058 C 151.466 235.65 150.001 230.53699999999998 150.001 225.079 C 150.001 219.60500000000002 151.475 214.477 154.036 210.059 L 135.404 210.044 L 103.29499999999999 210.019 L 115.94399999999999 182.21 L 129.99599999999998 151.316 L 155.59699999999998 207.639 C 161.04 200.037 169.939 195.078 180.00099999999998 195.078 C 180.98099999999997 195.078 181.95 195.129 182.90599999999998 195.221 L 164.659 155.078 L 180 155.078 L 180 125.078 L 160 125.078 z" stroke-linecap="round" />
</g>
		<g transform="matrix(1 0 0 1 -15 45.08)" id="XMLID_1847_"  >
<path style="stroke: none; stroke-width: 1; stroke-dasharray: none; stroke-linecap: butt; stroke-dashoffset: 0; stroke-linejoin: miter; stroke-miterlimit: 4; fill: rgb(222,221,224); fill-rule: nonzero; opacity: 1;" vector-effect="non-scaling-stroke"  transform=" translate(-165, -225.08)" d="M 155.596 207.641 C 155.038 208.42 154.518 209.227 154.035 210.06 C 151.47299999999998 214.478 150 219.606 150 225.08 C 150 230.538 151.465 235.651 154.012 240.05900000000003 C 159.198 249.03600000000003 168.89 255.08000000000004 180 255.08000000000004 L 180 195.08000000000004 C 169.938 195.079 161.039 200.039 155.596 207.641 z" stroke-linecap="round" />
</g>
		<g transform="matrix(1 0 0 1 15 45.08)" id="XMLID_1848_"  >
<path style="stroke: none; stroke-width: 1; stroke-dasharray: none; stroke-linecap: butt; stroke-dashoffset: 0; stroke-linejoin: miter; stroke-miterlimit: 4; fill: rgb(205,205,208); fill-rule: nonzero; opacity: 1;" vector-effect="non-scaling-stroke"  transform=" translate(-195, -225.08)" d="M 180 255.079 C 196.568 255.079 210 241.64700000000002 210 225.079 C 210 209.491 198.109 196.683 182.905 195.222 C 181.949 195.13 180.98 195.079 180 195.079 L 180 255.079 z" stroke-linecap="round" />
</g>
		<g transform="matrix(1 0 0 1 -60 -69.92)" id="XMLID_1849_"  >
<polygon style="stroke: none; stroke-width: 1; stroke-dasharray: none; stroke-linecap: butt; stroke-dashoffset: 0; stroke-linejoin: miter; stroke-miterlimit: 4; fill: rgb(86,86,89); fill-rule: nonzero; opacity: 1;" vector-effect="non-scaling-stroke"  points="40,-15 -40,-15 -40,15 -11.03,15 40,15 " />
</g>
</g>
</g>
</svg>