<?xml version="1.0" encoding="iso-8859-1"?>
<!-- Generator: Adobe Illustrator 19.0.0, SVG Export Plug-In . SVG Version: 6.00 Build 0)  -->
<svg version="1.1" id="Layer_1" xmlns="http://www.w3.org/2000/svg" xmlns:xlink="http://www.w3.org/1999/xlink" x="0px" y="0px"
	 viewBox="0 0 512 512" style="enable-background:new 0 0 512 512;" xml:space="preserve">
<path style="fill:#B6BBDB;" d="M383.468,205.922h-37.795c-8.632,0-15.63-6.998-15.63-15.63s6.998-15.63,15.63-15.63h37.795
	c5.244,0,9.512-4.267,9.512-9.512s-4.267-9.512-9.512-9.512h-22.652c-16.251,0-30.928-9.631-37.403-24.54
	c-0.006-0.012-0.011-0.024-0.017-0.036c-2.225-5.135-3.353-10.585-3.353-16.196v-7.041c0-8.266,6.437-15.103,14.688-15.602
	c8.241-0.498,15.464,5.514,16.459,13.72l1.725,14.22c1.747,2.604,4.693,4.214,7.901,4.214h22.652
	c22.482,0,40.772,18.291,40.772,40.772S405.949,205.922,383.468,205.922z"/>
<path style="fill:#9FA3BF;" d="M383.468,205.922c4.667,0,9.148-0.799,13.327-2.249l-12.491-29.055
	c-0.276,0.024-0.554,0.043-0.837,0.043h-37.795c-8.632,0-15.63,6.998-15.63,15.63s6.998,15.63,15.63,15.63H383.468z"/>
<path style="fill:#FF6465;" d="M418.29,319.631l-58.257-135.512c-0.028-0.065-0.064-0.123-0.092-0.188
	c-0.092-0.206-0.18-0.414-0.281-0.618c-0.071-0.141-0.15-0.275-0.225-0.414c-0.065-0.122-0.129-0.243-0.197-0.363
	c-0.222-0.388-0.453-0.767-0.704-1.131c-0.067-0.097-0.141-0.188-0.209-0.282c-0.196-0.271-0.399-0.535-0.611-0.79
	c-0.114-0.138-0.229-0.273-0.347-0.405c-0.205-0.231-0.417-0.454-0.635-0.672c-0.101-0.101-0.198-0.207-0.302-0.306
	c-0.298-0.282-0.609-0.548-0.926-0.805c-0.13-0.105-0.264-0.205-0.396-0.305c-0.24-0.181-0.483-0.355-0.734-0.522
	c-0.123-0.082-0.243-0.167-0.368-0.245c-0.361-0.227-0.728-0.441-1.107-0.638c-0.097-0.051-0.197-0.095-0.296-0.144
	c-0.307-0.152-0.62-0.295-0.938-0.427c-0.128-0.053-0.257-0.106-0.387-0.156c-0.351-0.135-0.708-0.258-1.069-0.368
	c-0.069-0.021-0.135-0.047-0.205-0.067c-0.411-0.119-0.827-0.216-1.249-0.3c-0.156-0.031-0.315-0.057-0.472-0.083
	c-0.282-0.048-0.566-0.088-0.852-0.12c-0.176-0.02-0.352-0.042-0.529-0.056c-0.38-0.03-0.763-0.047-1.147-0.049
	c-0.089,0-0.177-0.004-0.267-0.003h-137.86l-13.845-39.791c-2.837-8.152-11.744-12.46-19.899-9.625
	c-8.153,2.837-12.462,11.746-9.625,19.899l10.271,29.516h-24.961c-6.789,0-12.801,4.383-14.88,10.844L91.104,321.018
	c-1.53,4.755-0.694,9.955,2.249,13.992c2.943,4.037,7.637,6.424,12.631,6.424h137.58c0.035,0,0.07,0.004,0.104,0.004
	c0.554,0,1.113-0.042,1.671-0.102c0.119-0.013,0.235-0.029,0.354-0.045c0.452-0.059,0.903-0.139,1.356-0.24
	c0.105-0.023,0.213-0.042,0.318-0.067c0.481-0.118,0.962-0.253,1.439-0.419c0.035-0.012,0.068-0.029,0.102-0.042
	c0.171-0.06,0.334-0.138,0.503-0.204c0.369-0.146,0.734-0.295,1.085-0.466c0.167-0.081,0.327-0.173,0.491-0.259
	c0.348-0.184,0.69-0.376,1.019-0.584c0.151-0.095,0.297-0.195,0.445-0.296c0.334-0.227,0.658-0.465,0.97-0.715
	c0.131-0.105,0.263-0.21,0.391-0.32c0.327-0.279,0.638-0.572,0.939-0.875c0.1-0.101,0.203-0.196,0.301-0.3
	c0.408-0.436,0.797-0.888,1.151-1.365l85.752-113.921l47.615,110.757c2.544,5.919,8.309,9.461,14.366,9.461
	c2.06,0,4.153-0.411,6.167-1.275C418.035,336.754,421.7,327.561,418.29,319.631z M160.959,205.922h24.446l36.276,104.251H127.43
	L160.959,205.922z M248.802,292.995l-30.298-87.072h95.84L248.802,292.995z"/>
<g>
	<path style="fill:#494A59;" d="M226.682,155.638h-80.241c-17.746,0-32.183-14.437-32.183-32.183c0-8.632,6.998-15.63,15.63-15.63
		c8.632,0,15.63,6.998,15.63,15.63c0,0.509,0.414,0.922,0.922,0.922h80.241c8.632,0,15.63,6.998,15.63,15.63
		S235.314,155.638,226.682,155.638z"/>
	<path style="fill:#494A59;" d="M101.816,419.805c-51.832,0-94.001-42.17-94.001-94.002s42.168-94.001,94.001-94.001
		s94.001,42.168,94.001,94.001S153.648,419.805,101.816,419.805z M101.816,263.063c-34.595,0-62.74,28.145-62.74,62.74
		s28.145,62.741,62.74,62.741s62.74-28.146,62.74-62.741S136.411,263.063,101.816,263.063z"/>
	<path style="fill:#494A59;" d="M410.184,419.805c-51.832,0-94.002-42.17-94.002-94.002s42.17-94.001,94.002-94.001
		s94.001,42.168,94.001,94.001S462.016,419.805,410.184,419.805z M410.184,263.063c-34.595,0-62.741,28.145-62.741,62.74
		s28.146,62.741,62.741,62.741s62.74-28.146,62.74-62.741S444.779,263.063,410.184,263.063z"/>
</g>
<path d="M101.816,396.36c30.827,0,59.546-21.71,67.906-51.387c1.754-6.225,2.649-12.702,2.649-19.168
	c0-26.101-15.169-51.018-38.51-62.826c-0.022-0.01-0.043-0.022-0.065-0.033c-9.859-5.047-20.905-7.696-31.981-7.696
	c-38.904,0-70.555,31.65-70.555,70.555C31.261,364.708,62.911,396.36,101.816,396.36z M142.475,288.916
	c3.624,3.991,6.664,8.519,8.998,13.443h-13.321L142.475,288.916z M114.923,272.482c5.089,1.255,9.99,3.24,14.526,5.887
	l-9.459,29.411c-0.765,2.378-0.347,4.978,1.124,6.996s3.818,3.213,6.316,3.213c0,0,28.744,0,28.746,0
	c0.471,0.013,0.565,7.126,0.565,7.814c0,2.619-0.194,5.225-0.566,7.816h-50.191c-2.489,0-4.85-1.2-6.316-3.211
	c-1.466-2.012-1.886-4.628-1.124-6.996L114.923,272.482z M98.998,270.95l-15.333,47.676c-2.286,7.108-1.025,14.953,3.372,20.987
	c4.397,6.034,11.481,9.637,18.947,9.637h45.489c-8.812,18.59-27.754,31.479-49.657,31.479c-30.285,0-54.925-24.64-54.925-54.926
	C46.891,296.463,70.016,272.422,98.998,270.95z"/>
<path d="M410.184,223.988c-8.03,0-15.844,0.938-23.342,2.704l-5.569-12.953h2.194c26.791,0,48.587-21.796,48.587-48.587
	s-21.796-48.587-48.587-48.587h-22.652c-0.163,0-0.322-0.023-0.473-0.067l-1.394-11.493c-1.483-12.226-12.226-21.336-24.689-20.58
	c-12.354,0.746-22.031,11.027-22.031,23.403v7.042c0,6.686,1.345,13.179,4.025,19.367c0.006,0.015,0.014,0.03,0.021,0.046
	c7.73,17.725,25.205,29.174,44.541,29.174h22.652c0.935,0,1.696,0.761,1.696,1.696s-0.761,1.696-1.696,1.696h-37.795
	c-0.061,0-0.129,0.001-0.196,0.003l-132.295-0.003l-1.181-3.393h14.681c12.928,0,23.445-10.517,23.445-23.445
	s-10.517-23.445-23.445-23.445h-26.057c-4.316,0-7.815,3.499-7.815,7.815s3.499,7.815,7.815,7.815h26.057
	c4.31,0,7.815,3.505,7.815,7.815s-3.505,7.815-7.815,7.815h-25.675h-33.1H146.44c-13.437,0-24.368-10.932-24.368-24.369
	c0-4.31,3.505-7.815,7.815-7.815c4.31,0,7.815,3.505,7.815,7.815c0,4.818,3.92,8.738,8.737,8.738h22.923
	c4.316,0,7.815-3.499,7.815-7.815s-3.499-7.815-7.815-7.815H152.3c-2.95-9.575-11.881-16.554-22.412-16.554
	c-12.928,0-23.445,10.517-23.445,23.445c0,22.055,17.944,39.999,39.998,39.999h15.912l1.181,3.393h-13.966
	c-10.221,0-19.191,6.537-22.319,16.267l-13.376,41.59c-3.954-0.469-7.977-0.717-12.055-0.717c-21.196,0-41.53,6.48-58.804,18.739
	c-3.52,2.498-4.348,7.376-1.85,10.896c2.498,3.519,7.376,4.348,10.896,1.85c14.615-10.372,31.822-15.855,49.758-15.855
	c35.018,0,67.354,22.119,80.192,54.64c3.932,9.961,5.994,20.833,5.994,31.545c0,31.366-17.691,60.875-45.234,75.817
	c-12.532,6.799-26.697,10.369-40.952,10.369c-47.522,0-86.186-38.663-86.186-86.187c0-18.084,5.568-35.408,16.1-50.097
	c2.515-3.507,1.711-8.39-1.797-10.906c-3.508-2.514-8.39-1.711-10.906,1.797C6.579,283.959,0,304.432,0,325.803
	C0,381.945,45.675,427.62,101.816,427.62c48.075,0,88.47-33.494,99.087-78.37h42.522c0.085,0.002,0.171,0.004,0.245,0.004
	c7.269,0,14.441-3.569,18.779-9.413l77.649-103.157l4.765,11.084c-22.294,18.692-36.496,46.734-36.496,78.035
	c0,56.142,45.675,101.817,101.817,101.817C466.325,427.62,512,381.945,512,325.803C512,269.663,466.325,223.988,410.184,223.988z
	 M383.468,182.478c9.553,0,17.327-7.772,17.327-17.327s-7.772-17.327-17.327-17.327h-22.652c-13.133,0-25-7.787-30.234-19.839
	c-0.014-0.03-0.027-0.06-0.041-0.091c-1.78-4.132-2.682-8.514-2.682-13.027v-7.042c0-4.125,3.226-7.553,7.344-7.801
	c4.144-0.248,7.735,2.782,8.229,6.86l1.725,14.22c0.148,1.222,0.582,2.391,1.268,3.414c3.224,4.806,8.604,7.674,14.39,7.674h22.652
	c18.173,0,32.957,14.784,32.957,32.957s-14.784,32.957-32.957,32.957h-8.914l-6.719-15.63h15.634V182.478z M157.923,240.886
	l8.732-27.148h13.194l30.838,88.621h-9.784C194.862,276.823,179.179,254.977,157.923,240.886z M342.888,213.462
	c-2.771-0.336-5.501,0.833-7.176,3.059c0,0-85.655,113.792-85.781,113.96c-1.445,1.92-3.769,3.08-6.166,3.143
	c-0.071-0.002-0.14-0.003-0.201-0.003h-40.228c0.391-0.071,0.297-7.314,0.297-7.816c0-2.605-0.099-5.216-0.297-7.814h18.346
	c2.53,0,4.904-1.225,6.37-3.288c1.466-2.062,1.843-4.707,1.012-7.096l-36.276-104.251c-1.093-3.142-4.056-5.247-7.381-5.247h-24.446
	c-3.394,0-6.401,2.191-7.44,5.423l-9.524,29.61c-0.035-0.017-0.072-0.03-0.107-0.047c-4.717-2.139-9.595-3.933-14.582-5.332
	l12.82-39.863c1.043-3.243,4.034-5.422,7.44-5.422h24.961c2.53,0,4.904-1.225,6.37-3.288c1.466-2.062,1.843-4.707,1.012-7.096
	l-3.006-8.639h16.55l4.793,13.777c1.093,3.142,4.056,5.247,7.381,5.247h137.889c0.008,0,0.028,0,0.042,0.001
	c2.306,0.067,4.489,0.919,6.017,2.701c0.505,0.59,0.885,1.235,1.226,1.929c0.033,0.074,0.081,0.175,0.129,0.274l9.298,21.628
	l9.653,22.456c-0.128,0.052-0.254,0.111-0.382,0.165c-4.579,1.888-9.019,4.112-13.272,6.647c-0.114,0.068-0.231,0.13-0.345,0.199
	l-8.746-20.341C348.035,215.574,345.655,213.794,342.888,213.462z M410.184,411.99c-47.523,0-86.187-38.663-86.187-86.187
	c0-28.79,14.205-54.31,35.958-69.971c5.457-3.93,11.382-7.249,17.609-9.792c2.144-0.875,4.316-1.671,6.522-2.375
	c0.183-0.058,0.364-0.125,0.548-0.182c8.076-2.512,16.658-3.867,25.549-3.867c47.522,0,86.186,38.663,86.186,86.186
	C496.37,373.327,457.707,411.99,410.184,411.99z"/>
<path d="M314.344,198.108h-95.84c-2.53,0-4.904,1.225-6.37,3.288c-1.466,2.062-1.843,4.707-1.012,7.096l30.298,87.073
	c0.948,2.726,3.322,4.707,6.173,5.153c0.404,0.064,0.808,0.094,1.209,0.094c2.431,0,4.754-1.136,6.243-3.116l65.542-87.073
	c1.782-2.366,2.072-5.537,0.749-8.188C320.015,199.784,317.307,198.108,314.344,198.108z M251.369,276.592l-21.87-62.853h69.182
	L251.369,276.592z"/>
<path d="M410.184,255.248c-23.336,0-45.82,12.157-58.749,31.547c-7.673,11.507-11.807,25.177-11.807,39.008
	c0,38.905,31.651,70.556,70.556,70.556c11.554,0,23.034-2.876,33.198-8.318c3.805-2.037,5.238-6.773,3.201-10.579
	c-2.037-3.805-6.773-5.238-10.579-3.201c-7.903,4.231-16.831,6.468-25.82,6.468c-30.286,0-54.926-24.64-54.926-54.926
	c0-11.575,3.609-22.318,9.746-31.184l17.387,40.445c3.705,8.62,12.162,14.189,21.547,14.189c3.191,0,6.303-0.643,9.253-1.91
	c5.753-2.474,10.199-7.039,12.519-12.856c2.32-5.818,2.234-12.19-0.24-17.944l-19.553-45.483c1.41-0.109,2.83-0.182,4.268-0.182
	c30.285,0,54.925,24.64,54.925,54.925c0,10.717-3.115,21.118-9.006,30.078c-2.372,3.606-1.37,8.452,2.236,10.823
	c3.606,2.371,8.452,1.37,10.823-2.236c7.573-11.517,11.577-24.888,11.577-38.665C480.739,286.9,449.088,255.248,410.184,255.248z
	 M411.111,322.718c0.825,1.918,0.853,4.042,0.08,5.981c-0.773,1.939-2.255,3.461-4.171,4.285c-0.989,0.425-2.026,0.64-3.081,0.64
	c-3.13,0-5.951-1.857-7.187-4.733l-20.03-46.59c4.08-3.146,8.575-5.698,13.332-7.585c0.12-0.047,0.239-0.096,0.359-0.142
	L411.111,322.718z"/>
<g>
</g>
<g>
</g>
<g>
</g>
<g>
</g>
<g>
</g>
<g>
</g>
<g>
</g>
<g>
</g>
<g>
</g>
<g>
</g>
<g>
</g>
<g>
</g>
<g>
</g>
<g>
</g>
<g>
</g>
</svg>
