<?xml version="1.0" encoding="iso-8859-1"?>
<!-- Generator: Adobe Illustrator 19.0.0, SVG Export Plug-In . SVG Version: 6.00 Build 0)  -->
<svg version="1.1" id="Layer_1" xmlns="http://www.w3.org/2000/svg" xmlns:xlink="http://www.w3.org/1999/xlink" x="0px" y="0px"
	 viewBox="0 0 512 512" style="enable-background:new 0 0 512 512;" xml:space="preserve">
<path style="fill:#EC2620;" d="M190.111,190.071C111.042,269.14,61.98,366.848,42.907,469.052
	c102.203-19.073,199.913-68.135,278.981-147.204S450.018,145.07,469.092,42.867C366.888,61.94,269.18,111.002,190.111,190.071z"/>
<path style="fill:#C21C23;" d="M205.735,205.695c73.976-73.977,164.269-121.681,259.293-143.14
	c1.477-6.542,2.835-13.105,4.064-19.688C366.888,61.94,269.18,111.002,190.111,190.071S61.98,366.848,42.907,469.052
	c6.583-1.228,13.146-2.587,19.688-4.064C84.052,369.965,131.758,279.671,205.735,205.695z"/>
<circle style="fill:#54747B;" cx="256.002" cy="255.962" r="59.297"/>
<path style="fill:#3C6168;" d="M231.012,280.947c-20.255-20.255-22.792-51.517-7.614-74.531c-3.297,2.175-6.425,4.712-9.328,7.614
	c-23.156,23.158-23.156,60.702,0,83.858s60.702,23.156,83.858,0c2.902-2.901,5.439-6.03,7.614-9.328
	C282.529,303.74,251.267,301.202,231.012,280.947z"/>
<g>
	<path style="fill:#FDE265;" d="M363.817,148.142c19.801,19.801,33.008,43.694,39.641,68.957
		c13.334-22.413,24.873-45.598,34.638-69.34c-8.819-14.818-19.598-28.795-32.35-41.546c-12.752-12.751-26.728-23.53-41.546-32.35
		c-23.742,9.765-46.926,21.303-69.34,34.638C320.122,115.134,344.016,128.341,363.817,148.142z"/>
	<path style="fill:#FDE265;" d="M148.182,363.778c-19.801-19.801-33.008-43.694-39.641-68.957
		c-13.334,22.413-24.873,45.598-34.638,69.34c8.819,14.818,19.598,28.795,32.35,41.546s26.728,23.53,41.546,32.35
		c23.742-9.765,46.926-21.303,69.34-34.638C191.876,396.786,167.983,383.579,148.182,363.778z"/>
</g>
<g>
	<path style="fill:#FCB82D;" d="M364.2,73.863c-23.742,9.765-46.926,21.303-69.34,34.638c8.938,2.346,17.699,5.534,26.174,9.528
		c20.591-11.618,41.789-21.756,63.441-30.422C377.926,82.598,371.16,78.005,364.2,73.863z"/>
	<path style="fill:#FCB82D;" d="M108.541,294.82c-13.334,22.413-24.873,45.598-34.638,69.34c4.142,6.96,8.735,13.726,13.743,20.275
		c8.667-21.652,18.806-42.849,30.422-63.441C114.075,312.52,110.887,303.759,108.541,294.82z"/>
</g>
<path style="fill:#FDD349;" d="M453.665,501.617l-59.899-59.899l-11.98-47.919l11.98-11.98l47.919,11.98l59.899,59.899
	c3.308,3.308,3.308,8.672,0,11.98l-35.939,35.939C462.337,504.925,456.973,504.925,453.665,501.617z"/>
<path style="fill:#FCB82D;" d="M471.884,485.879l-59.899-59.899l-10.562-42.247l-7.657-1.914l-11.98,11.98l11.98,47.919
	l59.899,59.899c3.308,3.308,8.672,3.308,11.98,0l13.339-13.339C476.462,488.611,473.822,487.817,471.884,485.879z"/>
<path style="fill:#FDD349;" d="M10.414,58.367l59.899,59.899l47.919,11.98l11.98-11.98l-11.98-47.919L58.333,10.447
	c-3.308-3.308-8.672-3.308-11.98,0L10.414,46.386C7.106,49.695,7.106,55.059,10.414,58.367z"/>
<path style="fill:#FCB82D;" d="M85.977,99.973L26.079,40.075c-1.893-1.893-2.698-4.459-2.424-6.928l-13.241,13.24
	c-3.308,3.308-3.308,8.671,0,11.98l59.899,59.899l47.919,11.98l11.98-11.98l-1.929-7.716L85.977,99.973z"/>
<path d="M298.303,166.485c-3.101,3.102-3.101,8.13,0,11.231l35.939,35.939c3.23,3.228,8.684,3.012,11.653-0.456
	c2.662-3.109,2.469-7.884-0.422-10.776l-35.939-35.939C306.432,163.384,301.404,163.384,298.303,166.485z"/>
<path d="M208.08,347.76c6.945,0,10.507-8.665,5.615-13.558l-35.939-35.939c-3.101-3.1-8.13-3.1-11.23,0
	c-3.101,3.103-3.101,8.13,0,11.231l35.939,35.939C204.015,346.984,206.048,347.76,208.08,347.76z"/>
<path d="M507.199,448.083L447.3,388.184c-1.018-1.018-2.293-1.74-3.689-2.089l-47.918-11.98c-2.988-0.745-5.801,0.348-7.916,2.464
	l-54.736-54.736c13.609-14.008,26.523-28.794,38.459-44.047c2.703-3.454,2.094-8.446-1.36-11.148
	c-3.455-2.705-8.446-2.093-11.148,1.36c-11.542,14.748-24.027,29.051-37.182,42.604l-13.024-13.024
	c20.823-26.368,19.087-64.844-5.241-89.172c-12.7-12.699-29.585-19.694-47.544-19.694c-15.302,0-29.813,5.093-41.631,14.449
	l-13.014-13.014c28.952-28.111,60.693-52.567,94.661-73.084c23.41,6.727,44.855,19.354,62.185,36.686
	c17.336,17.335,29.966,38.789,36.692,62.209c-5.533,9.145-11.357,18.151-17.479,27.007c-2.524,3.651-1.439,8.951,2.359,11.267
	c3.522,2.148,8.352,1.169,10.706-2.236c43.323-62.677,72.398-132.552,86.419-207.681c1.008-5.395-3.872-10.264-9.264-9.264
	c-104.992,19.593-200.768,69.29-277.509,143.869l-54.674-54.674c2.116-2.116,3.21-4.929,2.463-7.916L125.937,68.42
	c-0.349-1.396-1.071-2.67-2.089-3.689L63.949,4.831c-6.399-6.399-16.812-6.399-23.21,0L4.799,40.771
	c-6.399,6.4-6.399,16.812,0,23.212l59.899,59.898c1.018,1.018,2.294,1.74,3.689,2.089l47.918,11.98
	c2.99,0.747,5.8-0.348,7.916-2.464l54.679,54.679c-8.419,8.669-16.603,17.634-24.37,26.765c-2.803,3.296-2.393,8.392,0.904,11.194
	c3.296,2.804,8.39,2.393,11.194-0.904c7.493-8.809,15.383-17.459,23.503-25.826l13.019,13.019
	c-20.755,26.365-18.998,64.787,5.305,89.089c12.7,12.699,29.585,19.694,47.544,19.694c15.267,0,29.746-5.07,41.548-14.386
	l13.022,13.022c-28.93,28.08-60.649,52.51-94.589,73.012c-23.408-6.727-44.854-19.354-62.183-36.686
	c-17.313-17.313-29.933-38.734-36.667-62.118c9.085-15.092,18.918-29.721,29.48-43.787c2.597-3.459,1.879-8.522-1.582-11.119
	c-3.46-2.597-8.521-1.876-11.119,1.583c-11.403,15.187-21.982,31.01-31.713,47.353c-0.166,0.222-0.337,0.443-0.481,0.686
	c-13.35,22.442-25.18,46.122-35.158,70.381c-0.144,0.35-0.253,0.709-0.345,1.07c-13.901,33.96-24.385,69.331-31.113,105.384
	c-1.008,5.397,3.872,10.265,9.264,9.264c104.958-19.588,200.708-69.258,277.436-143.796l54.747,54.747
	c-2.116,2.116-3.211,4.929-2.463,7.916l11.979,47.919c0.349,1.396,1.07,2.67,2.089,3.689l59.899,59.898
	c6.316,6.316,16.894,6.316,23.21,0l35.939-35.939C513.599,464.895,513.599,454.483,507.199,448.083z M314.347,106.506
	c15.93-8.751,32.398-16.708,49.174-23.76c13.219,8.224,25.52,17.993,36.609,29.084c11.088,11.087,20.859,23.388,29.082,36.607
	c-7.051,16.775-15.009,33.244-23.759,49.175c-8.028-20.554-20.284-39.349-36.022-55.086
	C353.695,126.789,334.9,114.532,314.347,106.506z M436.417,130.551c-7.432-10.667-15.81-20.708-25.055-29.953
	c-9.23-9.23-19.254-17.595-29.901-25.018c25.094-9.467,50.992-17.05,77.538-22.616C453.429,79.561,445.882,105.452,436.417,130.551z
	 M74.373,111.094L16.029,52.75c-0.038-0.038-0.155-0.155-0.155-0.375c0-0.219,0.116-0.335,0.155-0.374l35.939-35.938
	c0.038-0.038,0.155-0.155,0.375-0.155s0.336,0.116,0.375,0.155l58.344,58.343l10.356,41.423l-5.622,5.623L74.373,111.094z
	 M142.567,369.393c15.738,15.737,34.532,27.994,55.085,36.021c-15.93,8.75-32.398,16.708-49.174,23.76
	c-13.219-8.224-25.52-17.993-36.609-29.084c-11.066-11.065-20.818-23.34-29.031-36.529c7.061-16.791,14.996-33.207,23.745-49.165
	C114.609,334.915,126.852,353.679,142.567,369.393z M75.682,381.511c7.408,10.614,15.751,20.608,24.954,29.811
	c9.23,9.23,19.253,17.594,29.9,25.018c-25.093,9.467-50.989,17.049-77.532,22.616C58.547,432.614,66.157,406.699,75.682,381.511z
	 M255.999,204.604c13.718,0,26.614,5.342,36.314,15.042c18.126,18.126,19.841,46.543,5.149,66.618l-71.77-71.77
	C234.435,208.076,244.95,204.604,255.999,204.604z M255.999,307.314c-13.718,0-26.614-5.342-36.314-15.042
	c-18.1-18.1-19.835-46.461-5.21-66.532l71.745,71.745C277.494,303.864,267.014,307.314,255.999,307.314z M495.969,460.062
	l-35.939,35.939c-0.038,0.038-0.155,0.155-0.375,0.155c-0.22,0-0.336-0.116-0.375-0.155l-58.344-58.343l-10.356-41.423l5.622-5.623
	l41.422,10.357l58.344,58.344c0.038,0.038,0.155,0.155,0.155,0.375C496.124,459.908,496.007,460.024,495.969,460.062z"/>
<g>
</g>
<g>
</g>
<g>
</g>
<g>
</g>
<g>
</g>
<g>
</g>
<g>
</g>
<g>
</g>
<g>
</g>
<g>
</g>
<g>
</g>
<g>
</g>
<g>
</g>
<g>
</g>
<g>
</g>
</svg>
