<?xml version="1.0" encoding="iso-8859-1"?>
<!-- Generator: Adobe Illustrator 19.0.0, SVG Export Plug-In . SVG Version: 6.00 Build 0)  -->
<svg version="1.1" id="Layer_1" xmlns="http://www.w3.org/2000/svg" xmlns:xlink="http://www.w3.org/1999/xlink" x="0px" y="0px"
	 viewBox="0 0 390.056 390.056" style="enable-background:new 0 0 390.056 390.056;" xml:space="preserve">
<g>
	<path style="fill:#56ACE0;" d="M65.087,314.777c8.663,1.616,11.895,10.861,11.895,11.378c-1.099,8.663-18.424,39.564-25.988,41.762
		c-14.093,3.232-29.802-20.04-27.087-27.087C27.139,332.62,56.36,314.777,65.087,314.777z"/>
	<path style="fill:#56ACE0;" d="M368.02,49.727c-3.232,8.145-32.517,25.988-41.18,25.988c-8.145-1.616-11.895-10.861-11.895-11.378
		c1.099-8.663,18.424-39.564,25.988-41.762C354.445,19.408,370.218,42.68,368.02,49.727z"/>
</g>
<g>
	<path style="fill:#FFC10D;" d="M212.998,261.121h-35.749v-23.337c0-9.762,8.145-17.907,17.907-17.907
		c9.762,0,17.907,8.145,17.907,17.907v23.337H212.998z"/>
	<path style="fill:#FFC10D;" d="M177.249,282.777h35.749v2.715c0,9.762-8.145,17.907-17.907,17.907s-17.907-8.145-17.907-17.907
		v-2.715H177.249z"/>
	<path style="fill:#FFC10D;" d="M169.103,123.424c0-5.947-4.848-10.861-10.861-10.861h-10.861c1.616-7.564,3.814-14.61,5.947-21.657
		h37.366c5.947,0,10.861-4.848,10.861-10.861c0-5.947-4.848-10.861-10.861-10.861h-30.319
		c10.861-29.285,23.273-47.127,34.133-47.127c17.325,0,38.465,44.994,50.941,106.796L133.354,241.598v-4.848
		c0-35.749,3.814-70.982,9.762-102.465h15.192C164.255,134.284,169.103,129.436,169.103,123.424z"/>
	<path style="fill:#FFC10D;" d="M250.428,153.808c3.814,26.053,6.529,53.657,6.529,81.842c0,84.558-22.238,132.267-61.802,132.267
		c-33.616,0-54.756-35.232-60.186-97.552l21.139-21.139v35.749c0,21.657,17.907,39.046,39.046,39.046
		c21.657,0,39.046-17.907,39.046-39.046v-47.709c0-17.907-12.477-33.616-29.285-37.947L250.428,153.808z"/>
</g>
<g>
	<path style="fill:#56ACE0;" d="M212.998,237.783v23.337h-35.749v-23.337c0-9.762,8.145-17.907,17.907-17.907
		C204.917,219.941,212.998,228.022,212.998,237.783z"/>
	<path style="fill:#56ACE0;" d="M177.249,282.777h35.749v2.715c0,9.762-8.145,17.907-17.907,17.907s-17.907-8.145-17.907-17.907
		v-2.715H177.249z"/>
</g>
<path style="fill:#194F82;" d="M333.305,2.018c-18.424,7.564-39.564,46.093-40.081,60.703c-0.517,4.848,1.099,10.279,4.331,15.192
	l-33.034,33.034C250.428,50.309,226.574,0.402,195.673,0.402c-52.04,0-83.976,137.697-83.976,236.347
	c0,9.244,0.517,17.907,0.517,25.988L78.081,296.87c-4.331-2.198-9.244-3.814-13.576-3.814c0-1.616-45.511,8.663-61.802,40.081
	c-14.093,28.186,30.319,65.034,54.756,54.756c18.424-7.564,39.564-46.093,40.081-60.703c0.517-4.848-1.099-10.279-4.331-15.709
	l21.139-21.139c13.059,88.372,58.57,99.232,79.709,99.232c24.954,0,83.459-15.192,83.459-152.824
	c0-31.418-3.232-66.651-9.244-100.267l42.796-42.796c4.848,2.715,9.762,4.331,14.093,4.331c0,1.616,45.511-8.663,61.802-40.081
	C402.154,28.587,357.742-7.679,333.305,2.018z M50.994,367.852c-14.093,3.232-29.802-20.04-27.087-27.087
	c3.232-8.145,32.517-25.988,41.18-25.988c8.663,1.616,11.895,10.861,11.895,11.378C75.883,334.818,58.558,365.719,50.994,367.852z
	 M133.354,236.749c0-35.749,3.814-70.982,9.762-102.4h15.192c5.947,0,10.861-4.848,10.861-10.861
	c0-6.012-4.848-10.861-10.861-10.861h-10.861c1.616-7.564,3.814-14.61,5.947-21.657h37.366c5.947,0,10.861-4.848,10.861-10.861
	c0-6.012-4.848-10.861-10.861-10.861h-30.319c10.861-29.285,23.273-47.127,34.133-47.127c17.325,0,38.465,44.994,50.941,106.796
	L133.354,241.598C133.354,239.981,133.354,238.365,133.354,236.749z M177.249,261.121v-23.273c0-9.762,8.145-17.907,17.907-17.907
	c9.762,0,17.907,8.145,17.907,17.907v23.273H177.249z M212.998,282.777v2.715c0,9.762-8.145,17.907-17.907,17.907
	s-17.907-8.145-17.907-17.907v-2.715H212.998z M195.156,367.852c-33.616,0-54.756-35.232-60.186-97.552l21.139-21.139v35.749
	c0,21.657,17.907,39.046,39.046,39.046c21.657,0,39.046-17.907,39.046-39.046v-47.709c0-17.907-12.477-33.616-29.285-37.947
	l45.511-45.511c3.814,25.988,6.529,53.657,6.529,81.842C256.893,320.208,234.719,367.852,195.156,367.852z M368.02,49.727
	c-3.232,8.145-32.517,25.988-41.18,25.988c-8.145-1.616-11.895-10.861-11.895-11.378c1.099-8.663,18.424-39.564,25.988-41.762
	C354.445,19.408,370.218,42.68,368.02,49.727z"/>
<g>
</g>
<g>
</g>
<g>
</g>
<g>
</g>
<g>
</g>
<g>
</g>
<g>
</g>
<g>
</g>
<g>
</g>
<g>
</g>
<g>
</g>
<g>
</g>
<g>
</g>
<g>
</g>
<g>
</g>
</svg>
