<?xml version="1.0" ?><svg width="32px" height="32px" viewBox="0 0 32 32" xmlns="http://www.w3.org/2000/svg"><title/><path d="M16,0A15.91,15.91,0,1,0,32,16,16,16,0,0,0,16,0Zm8.5,17.46-.13,0a4.49,4.49,0,0,1-5.74.84l-3.11.45A5,5,0,0,1,14,19a4.37,4.37,0,0,1-3.5-1.54A4.33,4.33,0,0,1,7.15,19,51.43,51.43,0,0,1,2,11H31s-.85,4.95-4,7.7l-.13.17A4,4,0,0,1,24.5,17.46Z" style="fill: #0bf"/><path d="M27,18.7c3.15-2.75,4-7.7,4-7.7H15.19" style="fill: none;stroke: #000;stroke-linecap: round;stroke-linejoin: round;stroke-width: 2px"/><polyline points="12.21 5.89 19 19 18 22 21 26 24.5 24.25 22.36 19.6 19 19" style="fill: none;stroke: #000;stroke-linecap: round;stroke-linejoin: round;stroke-width: 2px"/><path d="M28,23A4.55,4.55,0,0,0,31,22" style="fill: none;stroke: #000;stroke-linecap: round;stroke-linejoin: round;stroke-width: 2px"/><path d="M1,23a4.11,4.11,0,0,0,2.5-1.55A4.32,4.32,0,0,0,7,23a4.37,4.37,0,0,0,3.5-1.54A4.37,4.37,0,0,0,14,23a5.19,5.19,0,0,0,1.4-.19" style="fill: none;stroke: #000;stroke-linecap: round;stroke-linejoin: round;stroke-width: 2px"/><path d="M24.5,17.46A4.37,4.37,0,0,0,28,19,4.55,4.55,0,0,0,31,18" style="fill: none;stroke: #000;stroke-linecap: round;stroke-linejoin: round;stroke-width: 2px"/><path d="M1,19a4.11,4.11,0,0,0,2.5-1.55A4.32,4.32,0,0,0,7,19a4.37,4.37,0,0,0,3.5-1.54A4.37,4.37,0,0,0,14,19a5.17,5.17,0,0,0,1.52-.23" style="fill: none;stroke: #000;stroke-linecap: round;stroke-linejoin: round;stroke-width: 2px"/><path d="M11.2,11H2a63.06,63.06,0,0,0,4.66,7.4" style="fill: none;stroke: #000;stroke-linecap: round;stroke-linejoin: round;stroke-width: 2px"/></svg>