<?xml version="1.0" encoding="iso-8859-1"?>
<!-- Generator: Adobe Illustrator 19.0.0, SVG Export Plug-In . SVG Version: 6.00 Build 0)  -->
<svg version="1.1" id="Layer_1" xmlns="http://www.w3.org/2000/svg" xmlns:xlink="http://www.w3.org/1999/xlink" x="0px" y="0px"
	 viewBox="0 0 512 512" style="enable-background:new 0 0 512 512;" xml:space="preserve">
<g>
	<g>
		<path d="M209.455,0H87.51C74.657,0,64.237,10.42,64.237,23.273v69.818h168.49V23.273C232.727,10.42,222.307,0,209.455,0z"/>
	</g>
</g>
<g>
	<g>
		<path d="M424.49,0H302.545c-12.853,0-23.273,10.42-23.273,23.273v69.818h168.49V23.273C447.763,10.42,437.343,0,424.49,0z"/>
	</g>
</g>
<g>
	<g>
		<polygon points="509.184,341.333 483.086,139.636 28.914,139.636 2.816,341.333 232.727,341.333 232.727,310.303 279.273,310.303 
			279.273,341.333 		"/>
	</g>
</g>
<g>
	<g>
		<path d="M0,387.879v100.849C0,501.578,10.42,512,23.273,512h186.182c12.853,0,23.273-10.422,23.273-23.273V387.879H0z"/>
	</g>
</g>
<g>
	<g>
		<path d="M279.273,387.879v100.849c0,12.851,10.42,23.273,23.273,23.273h186.182C501.58,512,512,501.578,512,488.727V387.879
			H279.273z"/>
	</g>
</g>
<g>
</g>
<g>
</g>
<g>
</g>
<g>
</g>
<g>
</g>
<g>
</g>
<g>
</g>
<g>
</g>
<g>
</g>
<g>
</g>
<g>
</g>
<g>
</g>
<g>
</g>
<g>
</g>
<g>
</g>
</svg>
