<?xml version="1.0" encoding="iso-8859-1"?>
<!-- Generator: Adobe Illustrator 19.0.0, SVG Export Plug-In . SVG Version: 6.00 Build 0)  -->
<svg xmlns="http://www.w3.org/2000/svg" xmlns:xlink="http://www.w3.org/1999/xlink" version="1.1" id="Capa_1" x="0px" y="0px" viewBox="0 0 504.02 504.02" style="enable-background:new 0 0 504.02 504.02;" xml:space="preserve" width="512" height="512">
<g>
	<path style="fill:#FABA45;" d="M265.063,388.966H40.887V133.394c0-32.57,26.403-58.974,58.974-58.974h222.802   c96.018,0,173.857,77.839,173.857,173.858v140.687H346.33"/>
	<rect x="40.887" y="252.668" style="fill:#E95B2D;" width="455.633" height="135.841"/>
	<rect x="115.424" y="141.777" style="fill:#E95B2D;" width="95.693" height="210.303"/>
	<circle style="fill:#FABA45;" cx="305.697" cy="388.966" r="40.633"/>
	<path style="fill:#E95B2D;" d="M370.977,164.774c0,12.7-10.296,22.996-22.996,22.996h-63.795   c-12.701,0-22.996-10.296-22.996-22.996l0,0c0-12.701,10.295-22.997,22.996-22.997h63.795   C360.681,141.777,370.977,152.073,370.977,164.774L370.977,164.774z"/>
	<path style="fill:#0F2639;" d="M504.02,248.279c0-100.001-81.357-181.358-181.357-181.358H99.86   c-36.653,0-66.474,29.82-66.474,66.474v248.071H0v55.633h15v-40.633h18.387h15h209.765c3.612,22.991,23.556,40.633,47.546,40.633   c23.99,0,43.932-17.642,47.545-40.633H504.02V248.279z M99.86,81.921h222.802c90.689,0,164.652,72.948,166.318,163.247H311.262v15   H489.02v14.775H218.617v-14.775h70.389v-15h-70.389V134.277H107.924v110.891H48.387V133.394   C48.387,105.012,71.478,81.921,99.86,81.921z M218.617,289.943H489.02v14.775H218.617V289.943z M203.617,149.277V344.58h-80.693   V149.277H203.617z M107.924,304.719H48.387v-14.775h59.537V304.719z M107.924,274.943H48.387v-14.775h59.537V274.943z    M305.697,422.099c-18.271,0-33.134-14.864-33.134-33.133c0-18.27,14.863-33.134,33.134-33.134   c18.27,0,33.133,14.864,33.133,33.134C338.83,407.235,323.967,422.099,305.697,422.099z M353.242,381.466   c-3.613-22.991-23.555-40.634-47.545-40.634c-23.99,0-43.934,17.643-47.546,40.634H48.387v-61.747h59.537v39.861h110.693v-39.861   H489.02v61.747H353.242z"/>
	<circle style="fill:#0F2639;" cx="305.697" cy="388.965" r="19.008"/>
	<path style="fill:#0F2639;" d="M284.185,195.269h63.795c16.815,0,30.496-13.68,30.496-30.496c0-16.816-13.681-30.497-30.496-30.497   h-63.795c-16.815,0-30.496,13.681-30.496,30.497C253.689,181.589,267.37,195.269,284.185,195.269z M284.185,149.277h63.795   c8.545,0,15.496,6.952,15.496,15.497c0,8.544-6.951,15.496-15.496,15.496h-63.795c-8.545,0-15.496-6.951-15.496-15.496   C268.689,156.229,275.641,149.277,284.185,149.277z"/>
</g>















</svg>
