<?xml version="1.0" encoding="iso-8859-1"?>
<!-- Generator: Adobe Illustrator 19.0.0, SVG Export Plug-In . SVG Version: 6.00 Build 0)  -->
<svg version="1.1" id="Layer_1" xmlns="http://www.w3.org/2000/svg" xmlns:xlink="http://www.w3.org/1999/xlink" x="0px" y="0px"
	 viewBox="0 0 470 470" style="enable-background:new 0 0 470 470;" xml:space="preserve">
<g id="XMLID_35_">
	<g>
		<polygon style="fill:#009E6C;" points="235,10 450,460 260,460 260,433.701 347.1,390.4 334.102,364.297 260,401.103 260,358.701 
			315,331.299 302.002,305.195 260,326.103 260,290 210,290 210,358.301 142.998,325 130,351.103 210,390.898 210,460 20,460 		"/>
	</g>
	<path style="fill:#231F20;" d="M459.024,455.689l-215-450C242.362,2.213,238.853,0,235,0s-7.362,2.213-9.023,5.689l-215,450
		c-1.481,3.099-1.268,6.74,0.564,9.645C13.373,468.238,16.566,470,20,470h190c5.523,0,10-4.477,10-10v-69.102
		c0-3.795-2.148-7.263-5.546-8.954l-71.043-35.339l4.085-8.203l58.054,28.854c3.1,1.54,6.776,1.368,9.718-0.455
		s4.732-5.039,4.732-8.5V300h30v26.103c0,3.463,1.791,6.679,4.735,8.502c2.942,1.822,6.62,1.993,9.721,0.45l33.051-16.453
		l4.085,8.204l-46.051,22.944c-3.396,1.691-5.541,5.158-5.541,8.951v42.402c0,3.461,1.79,6.676,4.731,8.5
		c2.941,1.823,6.616,1.996,9.717,0.457l65.154-32.362l4.085,8.203l-78.14,38.846c-3.398,1.69-5.548,5.159-5.548,8.955V460
		c0,5.523,4.477,10,10,10h190c3.434,0,6.628-1.762,8.459-4.667C460.29,462.429,460.503,458.788,459.024,455.689z M270,450v-10.103
		l81.551-40.542c2.376-1.181,4.185-3.258,5.029-5.773c0.844-2.516,0.654-5.263-0.529-7.639l-12.997-26.104
		c-2.461-4.94-8.459-6.956-13.4-4.499L270,384.971v-20.08l49.459-24.642c4.943-2.462,6.954-8.465,4.492-13.408l-12.998-26.104
		c-2.462-4.943-8.464-6.956-13.407-4.495L270,309.955V290c0-5.523-4.478-10-10-10h-50c-5.523,0-10,4.477-10,10v52.164
		l-52.551-26.119c-4.944-2.456-10.942-0.444-13.402,4.498l-12.998,26.103c-1.183,2.375-1.373,5.122-0.529,7.637
		c0.844,2.515,2.652,4.592,5.027,5.774L200,397.093V450H35.861L235,33.196L434.14,450H270z"/>
</g>
<g>
</g>
<g>
</g>
<g>
</g>
<g>
</g>
<g>
</g>
<g>
</g>
<g>
</g>
<g>
</g>
<g>
</g>
<g>
</g>
<g>
</g>
<g>
</g>
<g>
</g>
<g>
</g>
<g>
</g>
</svg>
