<?xml version="1.0" encoding="iso-8859-1"?>
<!-- Generator: Adobe Illustrator 18.0.0, SVG Export Plug-In . SVG Version: 6.00 Build 0)  -->
<!DOCTYPE svg PUBLIC "-//W3C//DTD SVG 1.1//EN" "http://www.w3.org/Graphics/SVG/1.1/DTD/svg11.dtd">
<svg version="1.1" id="Capa_1" xmlns="http://www.w3.org/2000/svg" xmlns:xlink="http://www.w3.org/1999/xlink" x="0px" y="0px"
	 viewBox="0 0 455.182 455.182" style="enable-background:new 0 0 455.182 455.182;" xml:space="preserve">
<g>
	<path d="M360.723,76.864C332.935,28.734,283.166,0,227.59,0C172.015,0,122.246,28.734,94.459,76.863
		c-27.787,48.13-27.787,105.598,0,153.728l127.936,221.591c1.072,1.856,3.053,3,5.196,3s4.124-1.144,5.196-3l127.936-221.591
		C388.51,182.461,388.51,124.993,360.723,76.864z M350.33,224.591L227.591,437.182L104.852,224.591
		c-25.619-44.373-25.619-97.354,0-141.727C130.47,38.491,176.354,12,227.591,12s97.121,26.491,122.739,70.864
		C375.949,127.236,375.949,180.218,350.33,224.591z"/>
	<path d="M227.591,35.443c-64.403,0-116.799,52.396-116.799,116.799s52.396,116.799,116.799,116.799S344.39,216.646,344.39,152.243
		S291.994,35.443,227.591,35.443z M227.591,257.042c-43.97,0-81.696-27.222-97.226-65.696l32.059-45.285l9.428,8.78
		c2.34,2.178,5.978,2.141,8.271-0.088l8.955-8.704l9.616,9.875c1.132,1.162,2.683,1.814,4.299,1.814
		c0.071,0,0.144-0.001,0.216-0.004c1.693-0.061,3.281-0.835,4.373-2.13l8.226-9.766l33.077,46.723
		c1.17,1.652,3.021,2.534,4.902,2.534c1.199,0,2.409-0.358,3.462-1.104c2.705-1.915,3.345-5.659,1.431-8.364l-23.738-33.531
		l4.272-6.036l9.429,8.78c2.34,2.178,5.978,2.141,8.271-0.088l8.955-8.704l9.615,9.875c1.132,1.162,2.683,1.814,4.299,1.814
		c0.071,0,0.144-0.001,0.216-0.004c1.693-0.061,3.281-0.835,4.373-2.13l8.227-9.767l32.218,45.506
		C309.289,229.818,271.562,257.042,227.591,257.042z M169.42,136.179l19.775-27.934l19.448,27.472l-5.973,7.09l-9.177-9.425
		c-2.308-2.371-6.104-2.426-8.48-0.117l-9.161,8.903L169.42,136.179z M246.211,136.178l19.773-27.934l19.451,27.473l-5.973,7.091
		l-9.177-9.425c-2.311-2.372-6.105-2.424-8.48-0.117l-9.16,8.903L246.211,136.178z M329.412,177.066l-58.531-82.673
		c-1.125-1.589-2.951-2.533-4.897-2.533c-1.947,0-3.772,0.945-4.897,2.534l-33.495,47.319l-33.498-47.318
		c-1.125-1.589-2.951-2.533-4.897-2.533s-3.772,0.944-4.897,2.533l-58.528,82.673c-1.941-7.961-2.978-16.273-2.978-24.824
		c0-57.787,47.013-104.799,104.799-104.799S332.39,94.456,332.39,152.243C332.39,160.793,331.353,169.104,329.412,177.066z"/>
</g>
<g>
</g>
<g>
</g>
<g>
</g>
<g>
</g>
<g>
</g>
<g>
</g>
<g>
</g>
<g>
</g>
<g>
</g>
<g>
</g>
<g>
</g>
<g>
</g>
<g>
</g>
<g>
</g>
<g>
</g>
</svg>
