<svg id="e3gDFnfb5wL1" xmlns="http://www.w3.org/2000/svg" xmlns:xlink="http://www.w3.org/1999/xlink" viewBox="0 0 455.182 455.182" shape-rendering="geometricPrecision" text-rendering="geometricPrecision"><g><path d="M360.723,76.864C332.935,28.734,283.166,0,227.59,0C172.015,0,122.246,28.734,94.459,76.863c-27.787,48.13-27.787,105.598,0,153.728L222.395,452.182c1.072,1.856,3.053,3,5.196,3s4.124-1.144,5.196-3L360.723,230.591c27.787-48.13,27.787-105.598,0-153.727ZM350.33,224.591L227.591,437.182L104.852,224.591c-25.619-44.373-25.619-97.354,0-141.727C130.47,38.491,176.354,12,227.591,12s97.121,26.491,122.739,70.864c25.619,44.372,25.619,97.354,0,141.727Z" fill="#229027"/><path d="M227.591,35.443c-64.403,0-116.799,52.396-116.799,116.799s52.396,116.799,116.799,116.799s116.799-52.395,116.799-116.798-52.396-116.8-116.799-116.8Zm0,221.599c-43.97,0-81.696-27.222-97.226-65.696l32.059-45.285l9.428,8.78c2.34,2.178,5.978,2.141,8.271-.088l8.955-8.704l9.616,9.875c1.132,1.162,2.683,1.814,4.299,1.814.071,0,.144-.001.216-.004c1.693-.061,3.281-.835,4.373-2.13l8.226-9.766l33.077,46.723c1.17,1.652,3.021,2.534,4.902,2.534c1.199,0,2.409-.358,3.462-1.104c2.705-1.915,3.345-5.659,1.431-8.364l-23.738-33.531l4.272-6.036l9.429,8.78c2.34,2.178,5.978,2.141,8.271-.088l8.955-8.704l9.615,9.875c1.132,1.162,2.683,1.814,4.299,1.814.071,0,.144-.001.216-.004c1.693-.061,3.281-.835,4.373-2.13l8.227-9.767l32.218,45.506c-15.528,38.476-53.255,65.7-97.226,65.7ZM169.42,136.179l19.775-27.934l19.448,27.472-5.973,7.09-9.177-9.425c-2.308-2.371-6.104-2.426-8.48-.117l-9.161,8.903-6.432-5.989Zm76.791-.001l19.773-27.934l19.451,27.473-5.973,7.091-9.177-9.425c-2.311-2.372-6.105-2.424-8.48-.117l-9.16,8.903-6.434-5.991Zm83.201,40.888L270.881,94.393c-1.125-1.589-2.951-2.533-4.897-2.533-1.947,0-3.772.945-4.897,2.534l-33.495,47.319-33.498-47.318c-1.125-1.589-2.951-2.533-4.897-2.533s-3.772.944-4.897,2.533l-58.528,82.673c-1.941-7.961-2.978-16.273-2.978-24.824c0-57.787,47.013-104.799,104.799-104.799s104.797,47.011,104.797,104.798c0,8.55-1.037,16.861-2.978,24.823Z" fill="#229027"/></g></svg>
