<?xml version="1.0" encoding="iso-8859-1"?>
<!-- Generator: Adobe Illustrator 19.0.0, SVG Export Plug-In . SVG Version: 6.00 Build 0)  -->
<svg version="1.1" id="Layer_1" xmlns="http://www.w3.org/2000/svg" xmlns:xlink="http://www.w3.org/1999/xlink" x="0px" y="0px"
	 viewBox="0 0 496 496" style="enable-background:new 0 0 496 496;" xml:space="preserve">
<g>
	<g>
		<path d="M372.513,97.416c-10.736,0-19.472,8.744-19.472,19.496c0,10.736,8.74,19.472,19.472,19.472
			c10.752,0,19.488-8.74,19.488-19.472C392,106.156,383.26,97.416,372.513,97.416z"/>
	</g>
</g>
<g>
	<g>
		<path d="M486.852,105.308c-7.492-21.732-19.888-42.132-37.192-59.444C420.076,16.284,380.745,0,338.909,0
			S257.74,16.284,228.161,45.864c-26.968,26.98-42.012,61.412-45.152,96.724c-3.272,35.096,5.224,71.1,25.472,101.528l-2.584,2.576
			c-5.184,5.18-7.892,11.9-8.184,18.704c-0.28,3.916,0.264,7.864,1.592,11.596L170.196,306.1l-3.368-3.372
			c-1.484-1.48-3.864-1.504-5.392-0.08L8.896,446.128c-4.228,4.232-6.848,9.456-7.872,14.924c-2.064,9.268,0.472,19.352,7.664,26.54
			C14.1,493.024,21.297,496,28.953,496s14.852-2.976,20.348-8.484L192.833,334.92c0.776-0.836,1.084-1.908,0.996-2.964
			c0.16-1.168-0.144-2.376-1.032-3.268l-2.984-2.976l28.912-28.9c3.248,1.244,6.68,1.876,10.116,1.876
			c7.244,0,14.488-2.752,20-8.272l2.868-2.852c25.6,17.22,55.728,26.488,87.284,26.488c41.864,0,81.236-16.3,110.844-45.904
			C493.792,224.18,506.133,160.4,486.852,105.308z M452.065,192.08l-48.248-48.24c-1.512-1.504-3.96-1.504-5.476,0l-27.472,27.476
			l-41.552-41.544c-1.508-1.512-3.956-1.512-5.472,0l-27.22,27.224l-12.436-12.432c-0.756-0.752-1.752-1.132-2.736-1.132
			c-0.992,0-1.984,0.384-2.744,1.132l-51.204,51.204c-1.12-3.24-2.152-6.52-2.984-9.876l-0.072,0.044
			c-9.656-38.908,0.676-81.92,31.02-112.268c22.316-22.308,51.976-34.716,83.528-34.716c0.024,0,0.056,0,0.056,0
			c0.048,0,0.076,0,0.076,0c1.308,0,2.58,0.188,3.856,0.22c0.648,0.032,1.3,0.08,1.944,0.108c1.868,0.092,3.724,0.272,5.572,0.448
			c0.08,0,0.16,0.02,0.244,0.028c1.916,0.192,3.8,0.432,5.688,0.704c0.032,0.008,0.06,0.016,0.088,0.016
			c1.876,0.272,3.744,0.604,5.592,0.968c0.04,0.016,0.08,0.02,0.12,0.036c1.844,0.364,3.676,0.768,5.496,1.224
			c0.048,0.016,0.092,0.016,0.136,0.032c1.844,0.468,3.668,0.968,5.468,1.512c0.028,0,0.052,0.016,0.076,0.024
			c48.524,14.692,83.86,59.74,83.86,113.06C457.265,169.424,455.445,181.1,452.065,192.08z"/>
	</g>
</g>
<g>
</g>
<g>
</g>
<g>
</g>
<g>
</g>
<g>
</g>
<g>
</g>
<g>
</g>
<g>
</g>
<g>
</g>
<g>
</g>
<g>
</g>
<g>
</g>
<g>
</g>
<g>
</g>
<g>
</g>
</svg>
