<?xml version="1.0" ?><!DOCTYPE svg  PUBLIC '-//W3C//DTD SVG 1.1//EN'  'http://www.w3.org/Graphics/SVG/1.1/DTD/svg11.dtd'><svg width="100px" height="100px" viewBox="0 0 100 100" style="enable-background:new 0 0 100 100;" version="1.1" xml:space="preserve" xmlns="http://www.w3.org/2000/svg" xmlns:xlink="http://www.w3.org/1999/xlink"><g id="_x31_"/><g id="_x32_"/><g id="_x33_"/><g id="_x34_"/><g id="_x35_"/><g id="_x36_"/><g id="_x37_"><path d="M91.3,75.5h-3.4L58.2,24c-0.9-1.6-2.6-2.6-4.4-2.6s-3.5,1-4.4,2.6l-7,12.2c-1-1.1-2.3-1.7-3.8-1.7c-1.9,0-3.5,1-4.4,2.6   l-8.7,15c0,0,0,0,0,0L11.8,75.5H8.8c-0.8,0-1.5,0.7-1.5,1.5s0.7,1.5,1.5,1.5h82.5c0.8,0,1.5-0.7,1.5-1.5S92.1,75.5,91.3,75.5z    M44.7,38l7.2-12.5c0.4-0.7,1.1-1.1,1.8-1.1s1.5,0.4,1.8,1.1l28.9,50H65.1L44.7,40.2C44.3,39.5,44.3,38.7,44.7,38z M36.6,38.6   c0.4-0.7,1.1-1.1,1.8-1.1c0.8,0,1.5,0.4,1.8,1.1l6.1,10.6c-2.6-0.6-5.7-0.2-8.7,2.5c-3.5,3.2-7.3,1.7-9,0.7L36.6,38.6z M27.2,55   c1.5,0.9,3.6,1.7,5.8,1.7c2.2,0,4.5-0.7,6.7-2.7c4.3-3.9,8.4-0.9,9.3-0.1l11.8,20.5l0.7,1.2H15.3L27.2,55z M66.3,62.3   c-0.5,0-1-0.3-1.3-0.8l-7.9-14.3c-0.4-0.7-0.1-1.6,0.6-2c0.7-0.4,1.6-0.1,2,0.6L67.6,60c0.4,0.7,0.1,1.6-0.6,2   C66.8,62.2,66.5,62.3,66.3,62.3z"/></g><g id="_x38__x27_"/><g id="_x39_"/><g id="_x31_0"/><g id="_x31_1"/><g id="_x31_2"/><g id="_x31_3"/><g id="_x31_4"/><g id="_x31_5"/><g id="_x31_6"/><g id="_x31_7"/><g id="_x31_8"/><g id="_x31_9"/><g id="_x32_0"/><g id="_x32_1"/><g id="_x32_2"/><g id="_x32_3"/><g id="_x32_4"/><g id="_x32_5"/></svg>