<svg id="Layer_1" data-name="Layer 1" xmlns="http://www.w3.org/2000/svg" viewBox="0 0 351.1 436.98"><defs><style>.cls-1{fill:#3d8ae0;}.cls-2{fill:#7eb0e1;}.cls-3{fill:#3dcfe0;}.cls-4{fill:#80deea;}.cls-5,.cls-6{fill:#03a9f4;}.cls-10,.cls-6,.cls-9{fill-rule:evenodd;}.cls-7{fill:#fff59d;}.cls-8{fill:#00897b;}.cls-9{fill:#4fc3f7;}.cls-10{fill:#fff;}</style></defs><title>OutDoorsyLogoFinal2</title><path class="cls-1" d="M418.79,164.53c0,71.76-175.55,307.07-175.55,307.07S67.69,236.29,67.69,164.53,146.27,34.62,243.24,34.62,418.79,92.79,418.79,164.53Z" transform="translate(-67.69 -34.62)"/><path class="cls-2" d="M243.72,47.75c83.29,0,150.85,53.27,150.85,119S243.72,447.85,243.72,447.85,92.89,232.4,92.89,166.7,160.41,47.75,243.72,47.75Z" transform="translate(-67.69 -34.62)"/><path class="cls-3" d="M246.71,66.81C317,66.81,374,121,374,187.86S317,308.93,246.71,308.93,119.43,254.72,119.43,187.86,176.41,66.81,246.71,66.81Z" transform="translate(-67.69 -34.62)"/><path id="circle9602" class="cls-4" d="M361.37,187C361.37,246.65,310,295,246.7,295h0C183.37,295,132,246.65,132,187h0C132,127.42,183.37,79.1,246.7,79.1S361.37,127.42,361.37,187Z" transform="translate(-67.69 -34.62)"/><path id="rect9636" class="cls-5" d="M170.47,163h.47v5.94h-.47Z" transform="translate(-67.69 -34.62)"/><path id="path9638" class="cls-5" d="M172,163.76a3.18,3.18,0,0,1-2.53,0c-.22-.36.83-2.07,1.27-2.07S172.19,163.4,172,163.76Z" transform="translate(-67.69 -34.62)"/><path id="path9640" class="cls-5" d="M172.88,166.29c-.37.6-4,.6-4.35,0s1.43-3.55,2.18-3.55S173.25,165.68,172.88,166.29Z" transform="translate(-67.69 -34.62)"/><path id="rect9644" class="cls-5" d="M140,172.81h.3v3.82H140Z" transform="translate(-67.69 -34.62)"/><path id="path9646" class="cls-5" d="M141,173.3a2,2,0,0,1-1.63,0c-.14-.23.54-1.33.82-1.33S141.12,173.07,141,173.3Z" transform="translate(-67.69 -34.62)"/><path id="path9648" class="cls-5" d="M141.57,174.93c-.24.39-2.57.39-2.8,0s.92-2.29,1.4-2.29S141.81,174.54,141.57,174.93Z" transform="translate(-67.69 -34.62)"/><path id="path9604" class="cls-6" d="M156.27,160.79l-24,22.63c-.09,1.2-.15,2.41-.2,3.61C132,246.65,183.37,295,246.7,295c43.63-.05,83.45-23.42,102.72-60.26L286,168.06l-41.16,40.87Z" transform="translate(-67.69 -34.62)"/><path id="circle9606" class="cls-7" d="M274,166c0,7.69-6.63,13.93-14.81,13.93s-14.8-6.24-14.8-13.93,6.63-13.94,14.8-13.94S274,158.31,274,166Z" transform="translate(-67.69 -34.62)"/><path id="rect9615" class="cls-8" d="M337.73,188.06h.66v8.52h-.66Z" transform="translate(-67.69 -34.62)"/><path id="path9617" class="cls-8" d="M339.88,189.16c-.31.51-3.33.51-3.63,0s1.19-3,1.81-3S340.19,188.66,339.88,189.16Z" transform="translate(-67.69 -34.62)"/><path id="path9619" class="cls-8" d="M341.18,192.79c-.53.87-5.71.87-6.24,0s2.06-5.09,3.12-5.09S341.71,191.93,341.18,192.79Z" transform="translate(-67.69 -34.62)"/><path id="rect9628" class="cls-8" d="M342.35,196.7h.27v3.42h-.27Z" transform="translate(-67.69 -34.62)"/><path id="path9630" class="cls-8" d="M343.22,197.14a1.85,1.85,0,0,1-1.46,0c-.13-.2.48-1.19.73-1.19S343.34,196.94,343.22,197.14Z" transform="translate(-67.69 -34.62)"/><path id="path9632" class="cls-8" d="M343.74,198.6a3.13,3.13,0,0,1-2.51,0c-.21-.35.83-2,1.26-2S344,198.25,343.74,198.6Z" transform="translate(-67.69 -34.62)"/><path id="path9608" class="cls-9" d="M225.17,134l-88.49,83.29c14.26,46,59.08,77.7,110,77.73,52.19-.06,97.74-33.28,110.85-80.83l-58.21-54.79L282.07,187.5Z" transform="translate(-67.69 -34.62)"/><path id="path9610" class="cls-10" d="M225.17,134,196,161.37c10.1,5.48,24.32,13.75,24.32,13.75l9.45-15.4,8.18,7.7,8.33-13.57Z" transform="translate(-67.69 -34.62)"/></svg>